Sarpanch_1.ufo
<glyph name="exclam" format="1">
  <advance width="394"/>
  <unicode hex="0021"/>
  <outline>
    <contour>
      <point x="58" y="622" type="line"/>
      <point x="101" y="216" type="line"/>
      <point x="294" y="216" type="line"/>
      <point x="336" y="622" type="line"/>
    </contour>
    <contour>
      <point x="70" y="0" type="line"/>
      <point x="324" y="0" type="line"/>
      <point x="324" y="149" type="line"/>
      <point x="70" y="149" type="line"/>
    </contour>
  </outline>
</glyph>
<glyph name="numbersign" format="1">
  <advance width="952"/>
  <unicode hex="0023"/>
  <outline>
    <contour>
      <point x="303" y="622" type="line"/>
      <point x="98" y="0" type="line"/>
      <point x="304" y="0" type="line"/>
      <point x="507" y="622" type="line"/>
    </contour>
    <contour>
      <point x="912" y="484" type="line"/>
      <point x="107" y="484" type="line"/>
      <point x="107" y="377" type="line"/>
      <point x="912" y="377" type="line"/>
    </contour>
    <contour>
      <point x="649" y="0" type="line"/>
      <point x="854" y="622" type="line"/>
      <point x="648" y="622" type="line"/>
      <point x="445" y="0" type="line"/>
    </contour>
    <contour>
      <point x="40" y="138" type="line"/>
      <point x="845" y="138" type="line"/>
      <point x="845" y="244" type="line"/>
      <point x="40" y="244" type="line"/>
    </contour>
  </outline>
</glyph>
<glyph name="dollar" format="1">
  <advance width="695"/>
  <unicode hex="0024"/>
  <outline>
    <contour>
      <point x="469" y="601" type="line"/>
      <point x="469" y="714" type="line"/>
      <point x="222" y="714" type="line"/>
      <point x="222" y="601" type="line"/>
    </contour>
    <contour>
      <point x="469" y="-90" type="line"/>
      <point x="469" y="23" type="line"/>
      <point x="222" y="23" type="line"/>
      <point x="222" y="-90" type="line"/>
    </contour>
    <contour>
      <point x="403" y="90" type="line"/>
      <point x="403" y="64"/>
      <point x="398" y="59"/>
      <point x="372" y="59" type="curve" smooth="yes"/>
      <point x="323" y="59" type="line" smooth="yes"/>
      <point x="297" y="59"/>
      <point x="292" y="64"/>
      <point x="292" y="90" type="curve" smooth="yes"/>
      <point x="292" y="195" type="line"/>
      <point x="45" y="195" type="line"/>
      <point x="45" y="79" type="line" smooth="yes"/>
      <point x="45" y="26"/>
      <point x="71" y="0"/>
      <point x="124" y="0" type="curve" smooth="yes"/>
      <point x="571" y="0" type="line" smooth="yes"/>
      <point x="624" y="0"/>
      <point x="650" y="26"/>
      <point x="650" y="79" type="curve" smooth="yes"/>
      <point x="650" y="264" type="line" smooth="yes"/>
      <point x="650" y="317"/>
      <point x="624" y="343"/>
      <point x="571" y="343" type="curve" smooth="yes"/>
      <point x="320" y="343" type="line" smooth="yes"/>
      <point x="294" y="343"/>
      <point x="289" y="348"/>
      <point x="289" y="374" type="curve" smooth="yes"/>
      <point x="289" y="532" type="line" smooth="yes"/>
      <point x="289" y="558"/>
      <point x="294" y="563"/>
      <point x="320" y="563" type="curve" smooth="yes"/>
      <point x="369" y="563" type="line" smooth="yes"/>
      <point x="395" y="563"/>
      <point x="400" y="558"/>
      <point x="400" y="532" type="curve" smooth="yes"/>
      <point x="400" y="427" type="line"/>
      <point x="647" y="427" type="line"/>
      <point x="647" y="543" type="line" smooth="yes"/>
      <point x="647" y="596"/>
      <point x="621" y="622"/>
      <point x="568" y="622" type="curve" smooth="yes"/>
      <point x="121" y="622" type="line" smooth="yes"/>
      <point x="68" y="622"/>
      <point x="42" y="596"/>
      <point x="42" y="543" type="curve" smooth="yes"/>
      <point x="42" y="363" type="line" smooth="yes"/>
      <point x="42" y="310"/>
      <point x="68" y="284"/>
      <point x="121" y="284" type="curve" smooth="yes"/>
      <point x="372" y="284" type="line" smooth="yes"/>
      <point x="398" y="284"/>
      <point x="403" y="279"/>
      <point x="403" y="253" type="curve" smooth="yes"/>
    </contour>
  </outline>
</glyph>
<glyph name="ampersand" format="1">
  <advance width="892"/>
  <unicode hex="0026"/>
  <outline>
    <contour>
      <point x="878" y="-45" type="line"/>
      <point x="450" y="315" type="line" smooth="yes"/>
      <point x="363" y="388"/>
      <point x="343" y="404"/>
      <point x="343" y="452" type="curve" smooth="yes"/>
      <point x="343" y="532" type="line" smooth="yes"/>
      <point x="343" y="558"/>
      <point x="348" y="563"/>
      <point x="374" y="563" type="curve" smooth="yes"/>
      <point x="415" y="563" type="line" smooth="yes"/>
      <point x="441" y="563"/>
      <point x="446" y="558"/>
      <point x="446" y="532" type="curve" smooth="yes"/>
      <point x="446" y="413" type="line" smooth="yes"/>
      <point x="446" y="388"/>
      <point x="423" y="377"/>
      <point x="374" y="360" type="curve"/>
      <point x="178" y="291" type="line" smooth="yes"/>
      <point x="78" y="256"/>
      <point x="45" y="232"/>
      <point x="45" y="166" type="curve" smooth="yes"/>
      <point x="45" y="79" type="line" smooth="yes"/>
      <point x="45" y="26"/>
      <point x="71" y="0"/>
      <point x="124" y="0" type="curve" smooth="yes"/>
      <point x="753" y="0" type="line" smooth="yes"/>
      <point x="816" y="0"/>
      <point x="852" y="36"/>
      <point x="852" y="99" type="curve" smooth="yes"/>
      <point x="852" y="243" type="line"/>
      <point x="657" y="243" type="line"/>
      <point x="657" y="90" type="line" smooth="yes"/>
      <point x="657" y="64"/>
      <point x="652" y="59"/>
      <point x="626" y="59" type="curve" smooth="yes"/>
      <point x="316" y="59" type="line" smooth="yes"/>
      <point x="290" y="59"/>
      <point x="285" y="64"/>
      <point x="285" y="90" type="curve" smooth="yes"/>
      <point x="285" y="183" type="line" smooth="yes"/>
      <point x="285" y="203"/>
      <point x="296" y="212"/>
      <point x="317" y="220" type="curve" smooth="yes"/>
      <point x="530" y="299" type="line" smooth="yes"/>
      <point x="627" y="335"/>
      <point x="686" y="364"/>
      <point x="686" y="441" type="curve" smooth="yes"/>
      <point x="686" y="543" type="line" smooth="yes"/>
      <point x="686" y="596"/>
      <point x="660" y="622"/>
      <point x="607" y="622" type="curve" smooth="yes"/>
      <point x="182" y="622" type="line" smooth="yes"/>
      <point x="129" y="622"/>
      <point x="103" y="596"/>
      <point x="103" y="543" type="curve" smooth="yes"/>
      <point x="103" y="449" type="line" smooth="yes"/>
      <point x="103" y="380"/>
      <point x="134" y="355"/>
      <point x="222" y="280" type="curve" smooth="yes"/>
      <point x="603" y="-45" type="line"/>
    </contour>
  </outline>
</glyph>
<glyph name="parenright" format="1">
  <advance width="394"/>
  <unicode hex="0029"/>
  <outline>
    <contour>
      <point x="344" y="88" type="line"/>
      <point x="344" y="-106"/>
      <point x="208" y="-220"/>
      <point x="-17" y="-220" type="curve" smooth="yes"/>
      <point x="-61" y="-220" type="line"/>
      <point x="-61" y="-161" type="line"/>
      <point x="-48" y="-161" type="line" smooth="yes"/>
      <point x="56" y="-161"/>
      <point x="90" y="-75"/>
      <point x="90" y="40" type="curve" smooth="yes"/>
      <point x="90" y="459" type="line" smooth="yes"/>
      <point x="90" y="574"/>
      <point x="56" y="660"/>
      <point x="-48" y="660" type="curve" smooth="yes"/>
      <point x="-61" y="660" type="line"/>
      <point x="-61" y="719" type="line"/>
      <point x="-17" y="719" type="line" smooth="yes"/>
      <point x="208" y="719"/>
      <point x="344" y="605"/>
      <point x="344" y="411" type="curve" smooth="yes"/>
    </contour>
  </outline>
</glyph>
<glyph name="asterisk" format="1">
  <advance width="622"/>
  <unicode hex="002A"/>
  <outline>
    <contour>
      <point x="229" y="669" type="line"/>
      <point x="229" y="610" type="line" smooth="yes"/>
      <point x="229" y="576"/>
      <point x="237" y="542"/>
      <point x="248" y="512" type="curve"/>
      <point x="222" y="534"/>
      <point x="191" y="555"/>
      <point x="158" y="566" type="curve" smooth="yes"/>
      <point x="102" y="584" type="line"/>
      <point x="48" y="418" type="line"/>
      <point x="104" y="400" type="line" smooth="yes"/>
      <point x="136" y="389"/>
      <point x="172" y="387"/>
      <point x="204" y="387" type="curve"/>
      <point x="175" y="370"/>
      <point x="145" y="347"/>
      <point x="124" y="319" type="curve" smooth="yes"/>
      <point x="89" y="271" type="line"/>
      <point x="231" y="169" type="line"/>
      <point x="265" y="216" type="line" smooth="yes"/>
      <point x="285" y="244"/>
      <point x="299" y="277"/>
      <point x="308" y="307" type="curve"/>
      <point x="315" y="275"/>
      <point x="328" y="239"/>
      <point x="348" y="210" type="curve" smooth="yes"/>
      <point x="383" y="162" type="line"/>
      <point x="524" y="266" type="line"/>
      <point x="490" y="313" type="line" smooth="yes"/>
      <point x="470" y="340"/>
      <point x="443" y="363"/>
      <point x="417" y="381" type="curve"/>
      <point x="450" y="378"/>
      <point x="487" y="379"/>
      <point x="521" y="390" type="curve" smooth="yes"/>
      <point x="578" y="408" type="line"/>
      <point x="522" y="574" type="line"/>
      <point x="467" y="556" type="line" smooth="yes"/>
      <point x="435" y="545"/>
      <point x="405" y="527"/>
      <point x="380" y="508" type="curve"/>
      <point x="393" y="539"/>
      <point x="403" y="574"/>
      <point x="403" y="610" type="curve" smooth="yes"/>
      <point x="403" y="669" type="line"/>
    </contour>
  </outline>
</glyph>
<glyph name="comma" format="1">
  <advance width="359"/>
  <unicode hex="002C"/>
  <outline>
    <contour>
      <point x="55" y="169" type="line"/>
      <point x="309" y="169" type="line"/>
      <point x="309" y="72" type="line"/>
      <point x="139" y="-141" type="line"/>
      <point x="55" y="-141" type="line"/>
    </contour>
  </outline>
</glyph>
<glyph name="one" format="1">
  <advance width="456"/>
  <unicode hex="0031"/>
  <outline>
    <contour>
      <point x="301" y="622" type="line"/>
      <point x="10" y="622" type="line"/>
      <point x="10" y="563" type="line"/>
      <point x="301" y="563" type="line"/>
    </contour>
    <contour>
      <point x="137" y="622" type="line"/>
      <point x="137" y="0" type="line"/>
      <point x="401" y="0" type="line"/>
      <point x="401" y="622" type="line"/>
    </contour>
  </outline>
</glyph>
<glyph name="two" format="1">
  <advance width="686"/>
  <unicode hex="0032"/>
  <outline>
    <contour>
      <point x="300" y="532" type="line"/>
      <point x="300" y="558"/>
      <point x="305" y="563"/>
      <point x="331" y="563" type="curve" smooth="yes"/>
      <point x="370" y="563" type="line" smooth="yes"/>
      <point x="396" y="563"/>
      <point x="401" y="558"/>
      <point x="401" y="532" type="curve" smooth="yes"/>
      <point x="401" y="430" type="line" smooth="yes"/>
      <point x="401" y="394"/>
      <point x="392" y="378"/>
      <point x="354" y="344" type="curve" smooth="yes"/>
      <point x="40" y="60" type="line"/>
      <point x="40" y="0" type="line"/>
      <point x="656" y="0" type="line"/>
      <point x="656" y="59" type="line"/>
      <point x="365" y="59" type="line"/>
      <point x="587" y="257" type="line" smooth="yes"/>
      <point x="637" y="301"/>
      <point x="653" y="333"/>
      <point x="653" y="431" type="curve" smooth="yes"/>
      <point x="653" y="543" type="line" smooth="yes"/>
      <point x="653" y="596"/>
      <point x="627" y="622"/>
      <point x="574" y="622" type="curve" smooth="yes"/>
      <point x="122" y="622" type="line" smooth="yes"/>
      <point x="69" y="622"/>
      <point x="43" y="596"/>
      <point x="43" y="543" type="curve" smooth="yes"/>
      <point x="43" y="409" type="line"/>
      <point x="300" y="409" type="line"/>
    </contour>
  </outline>
</glyph>
<glyph name="five" format="1">
  <advance width="694"/>
  <unicode hex="0035"/>
  <outline>
    <contour>
      <point x="304" y="218" type="line"/>
      <point x="50" y="218" type="line"/>
      <point x="50" y="79" type="line" smooth="yes"/>
      <point x="50" y="26"/>
      <point x="76" y="0"/>
      <point x="129" y="0" type="curve" smooth="yes"/>
      <point x="575" y="0" type="line" smooth="yes"/>
      <point x="628" y="0"/>
      <point x="654" y="26"/>
      <point x="654" y="79" type="curve" smooth="yes"/>
      <point x="654" y="300" type="line" smooth="yes"/>
      <point x="654" y="353"/>
      <point x="628" y="379"/>
      <point x="575" y="379" type="curve" smooth="yes"/>
      <point x="261" y="379" type="line"/>
      <point x="261" y="320" type="line"/>
      <point x="369" y="320" type="line" smooth="yes"/>
      <point x="395" y="320"/>
      <point x="400" y="315"/>
      <point x="400" y="289" type="curve" smooth="yes"/>
      <point x="400" y="90" type="line" smooth="yes"/>
      <point x="400" y="64"/>
      <point x="395" y="59"/>
      <point x="369" y="59" type="curve" smooth="yes"/>
      <point x="335" y="59" type="line" smooth="yes"/>
      <point x="309" y="59"/>
      <point x="304" y="64"/>
      <point x="304" y="90" type="curve" smooth="yes"/>
    </contour>
    <contour>
      <point x="326" y="320" type="line"/>
      <point x="326" y="563" type="line"/>
      <point x="640" y="563" type="line"/>
      <point x="640" y="622" type="line"/>
      <point x="62" y="622" type="line"/>
      <point x="62" y="320" type="line"/>
    </contour>
  </outline>
</glyph>
<glyph name="seven" format="1">
  <advance width="599"/>
  <unicode hex="0037"/>
  <outline>
    <contour>
      <point x="535" y="622" type="line"/>
      <point x="15" y="622" type="line"/>
      <point x="15" y="563" type="line"/>
      <point x="535" y="563" type="line"/>
    </contour>
    <contour>
      <point x="589" y="622" type="line"/>
      <point x="376" y="622" type="line"/>
      <point x="59" y="0" type="line"/>
      <point x="328" y="0" type="line"/>
      <point x="589" y="530" type="line"/>
    </contour>
  </outline>
</glyph>
<glyph name="colon" format="1">
  <advance width="364"/>
  <unicode hex="003A"/>
  <outline>
    <contour>
      <point x="55" y="336" type="line"/>
      <point x="309" y="336" type="line"/>
      <point x="309" y="485" type="line"/>
      <point x="55" y="485" type="line"/>
    </contour>
    <contour>
      <point x="55" y="0" type="line"/>
      <point x="309" y="0" type="line"/>
      <point x="309" y="149" type="line"/>
      <point x="55" y="149" type="line"/>
    </contour>
  </outline>
</glyph>
<glyph name="semicolon" format="1">
  <advance width="359"/>
  <unicode hex="003B"/>
  <outline>
    <contour>
      <point x="55" y="169" type="line"/>
      <point x="309" y="169" type="line"/>
      <point x="309" y="72" type="line"/>
      <point x="139" y="-141" type="line"/>
      <point x="55" y="-141" type="line"/>
    </contour>
    <contour>
      <point x="55" y="336" type="line"/>
      <point x="309" y="336" type="line"/>
      <point x="309" y="485" type="line"/>
      <point x="55" y="485" type="line"/>
    </contour>
  </outline>
</glyph>
<glyph name="less" format="1">
  <advance width="741"/>
  <unicode hex="003C"/>
  <outline>
    <contour>
      <point x="711" y="381" type="line"/>
      <point x="711" y="530" type="line"/>
      <point x="30" y="386" type="line"/>
      <point x="30" y="244" type="line"/>
      <point x="711" y="89" type="line"/>
      <point x="711" y="240" type="line"/>
      <point x="227" y="313" type="line"/>
    </contour>
  </outline>
</glyph>
<glyph name="greater" format="1">
  <advance width="741"/>
  <unicode hex="003E"/>
  <outline>
    <contour>
      <point x="514" y="313" type="line"/>
      <point x="30" y="240" type="line"/>
      <point x="30" y="89" type="line"/>
      <point x="711" y="244" type="line"/>
      <point x="711" y="386" type="line"/>
      <point x="30" y="530" type="line"/>
      <point x="30" y="381" type="line"/>
    </contour>
  </outline>
</glyph>
<glyph name="question" format="1">
  <advance width="645"/>
  <unicode hex="003F"/>
  <outline>
    <contour>
      <point x="381" y="385" type="line"/>
      <point x="381" y="359"/>
      <point x="376" y="354"/>
      <point x="350" y="354" type="curve"/>
      <point x="266" y="354" type="line"/>
      <point x="266" y="285" type="line"/>
      <point x="546" y="285" type="line" smooth="yes"/>
      <point x="599" y="285"/>
      <point x="625" y="311"/>
      <point x="625" y="364" type="curve" smooth="yes"/>
      <point x="625" y="543" type="line" smooth="yes"/>
      <point x="625" y="596"/>
      <point x="599" y="622"/>
      <point x="546" y="622" type="curve" smooth="yes"/>
      <point x="312" y="622" type="line"/>
      <point x="312" y="563" type="line"/>
      <point x="350" y="563" type="line" smooth="yes"/>
      <point x="376" y="563"/>
      <point x="381" y="558"/>
      <point x="381" y="532" type="curve" smooth="yes"/>
    </contour>
    <contour>
      <point x="191" y="354" type="line"/>
      <point x="210" y="216" type="line"/>
      <point x="414" y="216" type="line"/>
      <point x="435" y="354" type="line"/>
    </contour>
    <contour>
      <point x="182" y="0" type="line"/>
      <point x="436" y="0" type="line"/>
      <point x="436" y="149" type="line"/>
      <point x="182" y="149" type="line"/>
    </contour>
    <contour>
      <point x="264" y="532" type="line"/>
      <point x="264" y="558"/>
      <point x="269" y="563"/>
      <point x="295" y="563" type="curve" smooth="yes"/>
      <point x="316" y="563" type="line"/>
      <point x="316" y="622" type="line"/>
      <point x="99" y="622" type="line" smooth="yes"/>
      <point x="46" y="622"/>
      <point x="20" y="596"/>
      <point x="20" y="543" type="curve" smooth="yes"/>
      <point x="20" y="423" type="line"/>
      <point x="264" y="423" type="line"/>
    </contour>
  </outline>
</glyph>
<glyph name="at" format="1">
  <advance width="1187"/>
  <unicode hex="0040"/>
  <outline>
    <contour>
      <point x="411" y="426" type="line" smooth="yes"/>
      <point x="371" y="426"/>
      <point x="351" y="406"/>
      <point x="351" y="366" type="curve" smooth="yes"/>
      <point x="351" y="138" type="line" smooth="yes"/>
      <point x="351" y="98"/>
      <point x="371" y="78"/>
      <point x="411" y="78" type="curve" smooth="yes"/>
      <point x="596" y="78" type="line" smooth="yes"/>
      <point x="623" y="78"/>
      <point x="636" y="86"/>
      <point x="642" y="101" type="curve"/>
      <point x="642" y="59" type="line"/>
      <point x="1072" y="59" type="line" smooth="yes"/>
      <point x="1112" y="59"/>
      <point x="1132" y="79"/>
      <point x="1132" y="119" type="curve" smooth="yes"/>
      <point x="1132" y="503" type="line" smooth="yes"/>
      <point x="1132" y="543"/>
      <point x="1112" y="563"/>
      <point x="1072" y="563" type="curve" smooth="yes"/>
      <point x="120" y="563" type="line" smooth="yes"/>
      <point x="80" y="563"/>
      <point x="60" y="543"/>
      <point x="60" y="503" type="curve" smooth="yes"/>
      <point x="60" y="-10" type="line" smooth="yes"/>
      <point x="60" y="-50"/>
      <point x="80" y="-70"/>
      <point x="120" y="-70" type="curve" smooth="yes"/>
      <point x="839" y="-70" type="line"/>
      <point x="839" y="-11" type="line"/>
      <point x="275" y="-11" type="line" smooth="yes"/>
      <point x="255" y="-11"/>
      <point x="252" y="-8"/>
      <point x="252" y="12" type="curve" smooth="yes"/>
      <point x="252" y="481" type="line" smooth="yes"/>
      <point x="252" y="501"/>
      <point x="255" y="504"/>
      <point x="275" y="504" type="curve" smooth="yes"/>
      <point x="917" y="504" type="line" smooth="yes"/>
      <point x="937" y="504"/>
      <point x="940" y="501"/>
      <point x="940" y="481" type="curve" smooth="yes"/>
      <point x="940" y="141" type="line" smooth="yes"/>
      <point x="940" y="121"/>
      <point x="937" y="118"/>
      <point x="917" y="118" type="curve" smooth="yes"/>
      <point x="832" y="118" type="line"/>
      <point x="832" y="426" type="line"/>
      <point x="640" y="426" type="line"/>
      <point x="640" y="406" type="line"/>
      <point x="633" y="419"/>
      <point x="620" y="426"/>
      <point x="596" y="426" type="curve" smooth="yes"/>
    </contour>
    <contour>
      <point x="543" y="344" type="line"/>
      <point x="543" y="363"/>
      <point x="546" y="367"/>
      <point x="566" y="367" type="curve" smooth="yes"/>
      <point x="611" y="367" type="line" smooth="yes"/>
      <point x="629" y="367"/>
      <point x="638" y="362"/>
      <point x="640" y="348" type="curve"/>
      <point x="640" y="155" type="line"/>
      <point x="638" y="142"/>
      <point x="629" y="137"/>
      <point x="611" y="137" type="curve" smooth="yes"/>
      <point x="566" y="137" type="line" smooth="yes"/>
      <point x="546" y="137"/>
      <point x="543" y="140"/>
      <point x="543" y="160" type="curve" smooth="yes"/>
    </contour>
  </outline>
</glyph>
<glyph name="A" format="1">
  <advance width="770"/>
  <unicode hex="0041"/>
  <outline>
    <contour>
      <point x="613" y="182" type="line"/>
      <point x="160" y="182" type="line"/>
      <point x="160" y="123" type="line"/>
      <point x="613" y="123" type="line"/>
    </contour>
    <contour>
      <point x="768" y="0" type="line"/>
      <point x="535" y="622" type="line"/>
      <point x="235" y="622" type="line"/>
      <point x="2" y="0" type="line"/>
      <point x="245" y="0" type="line"/>
      <point x="384" y="477" type="line"/>
      <point x="519" y="0" type="line"/>
    </contour>
  </outline>
</glyph>
<glyph name="D" format="1">
  <advance width="739"/>
  <unicode hex="0044"/>
  <outline>
    <contour>
      <point x="430" y="362" type="line"/>
      <point x="684" y="362" type="line"/>
      <point x="684" y="543" type="line" smooth="yes"/>
      <point x="684" y="596"/>
      <point x="658" y="622"/>
      <point x="605" y="622" type="curve" smooth="yes"/>
      <point x="142" y="622" type="line"/>
      <point x="142" y="563" type="line"/>
      <point x="399" y="563" type="line" smooth="yes"/>
      <point x="425" y="563"/>
      <point x="430" y="558"/>
      <point x="430" y="532" type="curve" smooth="yes"/>
    </contour>
    <contour>
      <point x="430" y="90" type="line"/>
      <point x="430" y="64"/>
      <point x="425" y="59"/>
      <point x="399" y="59" type="curve"/>
      <point x="142" y="59" type="line"/>
      <point x="142" y="0" type="line"/>
      <point x="605" y="0" type="line" smooth="yes"/>
      <point x="658" y="0"/>
      <point x="684" y="26"/>
      <point x="684" y="79" type="curve" smooth="yes"/>
      <point x="684" y="375" type="line"/>
      <point x="430" y="375" type="line"/>
    </contour>
    <contour>
      <point x="60" y="622" type="line"/>
      <point x="60" y="0" type="line"/>
      <point x="314" y="0" type="line"/>
      <point x="314" y="622" type="line"/>
    </contour>
  </outline>
</glyph>
<glyph name="E" format="1">
  <advance width="641"/>
  <unicode hex="0045"/>
  <outline>
    <contour>
      <point x="60" y="622" type="line"/>
      <point x="60" y="0" type="line"/>
      <point x="324" y="0" type="line"/>
      <point x="324" y="622" type="line"/>
    </contour>
    <contour>
      <point x="562" y="348" type="line"/>
      <point x="166" y="348" type="line"/>
      <point x="166" y="289" type="line"/>
      <point x="562" y="289" type="line"/>
    </contour>
    <contour>
      <point x="603" y="622" type="line"/>
      <point x="148" y="622" type="line"/>
      <point x="148" y="563" type="line"/>
      <point x="603" y="563" type="line"/>
    </contour>
    <contour>
      <point x="616" y="59" type="line"/>
      <point x="148" y="59" type="line"/>
      <point x="148" y="0" type="line"/>
      <point x="616" y="0" type="line"/>
    </contour>
  </outline>
</glyph>
<glyph name="H" format="1">
  <advance width="783"/>
  <unicode hex="0048"/>
  <outline>
    <contour>
      <point x="512" y="341" type="line"/>
      <point x="258" y="341" type="line"/>
      <point x="258" y="282" type="line"/>
      <point x="512" y="282" type="line"/>
    </contour>
    <contour>
      <point x="60" y="622" type="line"/>
      <point x="60" y="0" type="line"/>
      <point x="314" y="0" type="line"/>
      <point x="314" y="622" type="line"/>
    </contour>
    <contour>
      <point x="469" y="622" type="line"/>
      <point x="469" y="0" type="line"/>
      <point x="723" y="0" type="line"/>
      <point x="723" y="622" type="line"/>
    </contour>
  </outline>
</glyph>
<glyph name="J" format="1">
  <advance width="656"/>
  <unicode hex="004A"/>
  <outline>
    <contour>
      <point x="20" y="249" type="line"/>
      <point x="20" y="79" type="line" smooth="yes"/>
      <point x="20" y="26"/>
      <point x="46" y="0"/>
      <point x="99" y="0" type="curve" smooth="yes"/>
      <point x="522" y="0" type="line" smooth="yes"/>
      <point x="575" y="0"/>
      <point x="601" y="26"/>
      <point x="601" y="79" type="curve" smooth="yes"/>
      <point x="601" y="622" type="line"/>
      <point x="347" y="622" type="line"/>
      <point x="347" y="90" type="line" smooth="yes"/>
      <point x="347" y="64"/>
      <point x="342" y="59"/>
      <point x="316" y="59" type="curve"/>
      <point x="305" y="59" type="line" smooth="yes"/>
      <point x="279" y="59"/>
      <point x="274" y="64"/>
      <point x="274" y="90" type="curve" smooth="yes"/>
      <point x="274" y="249" type="line"/>
    </contour>
  </outline>
</glyph>
<glyph name="O" format="1">
  <advance width="733"/>
  <unicode hex="004F"/>
  <outline>
    <contour>
      <point x="678" y="543" type="line"/>
      <point x="678" y="596"/>
      <point x="652" y="622"/>
      <point x="599" y="622" type="curve" smooth="yes"/>
      <point x="134" y="622" type="line" smooth="yes"/>
      <point x="81" y="622"/>
      <point x="55" y="596"/>
      <point x="55" y="543" type="curve" smooth="yes"/>
      <point x="55" y="79" type="line" smooth="yes"/>
      <point x="55" y="26"/>
      <point x="81" y="0"/>
      <point x="134" y="0" type="curve" smooth="yes"/>
      <point x="599" y="0" type="line" smooth="yes"/>
      <point x="652" y="0"/>
      <point x="678" y="26"/>
      <point x="678" y="79" type="curve" smooth="yes"/>
    </contour>
    <contour>
      <point x="424" y="90" type="line"/>
      <point x="424" y="64"/>
      <point x="419" y="59"/>
      <point x="393" y="59" type="curve" smooth="yes"/>
      <point x="340" y="59" type="line" smooth="yes"/>
      <point x="314" y="59"/>
      <point x="309" y="64"/>
      <point x="309" y="90" type="curve" smooth="yes"/>
      <point x="309" y="532" type="line" smooth="yes"/>
      <point x="309" y="558"/>
      <point x="314" y="563"/>
      <point x="340" y="563" type="curve" smooth="yes"/>
      <point x="393" y="563" type="line" smooth="yes"/>
      <point x="419" y="563"/>
      <point x="424" y="558"/>
      <point x="424" y="532" type="curve" smooth="yes"/>
    </contour>
  </outline>
</glyph>
<glyph name="Q" format="1">
  <advance width="736"/>
  <unicode hex="0051"/>
  <outline>
    <contour>
      <point x="233" y="59" type="line"/>
      <point x="416" y="-97" type="line"/>
      <point x="696" y="-97" type="line"/>
      <point x="489" y="59" type="line"/>
    </contour>
    <contour>
      <point x="678" y="543" type="line"/>
      <point x="678" y="596"/>
      <point x="652" y="622"/>
      <point x="599" y="622" type="curve" smooth="yes"/>
      <point x="134" y="622" type="line" smooth="yes"/>
      <point x="81" y="622"/>
      <point x="55" y="596"/>
      <point x="55" y="543" type="curve" smooth="yes"/>
      <point x="55" y="79" type="line" smooth="yes"/>
      <point x="55" y="26"/>
      <point x="81" y="0"/>
      <point x="134" y="0" type="curve" smooth="yes"/>
      <point x="599" y="0" type="line" smooth="yes"/>
      <point x="652" y="0"/>
      <point x="678" y="26"/>
      <point x="678" y="79" type="curve" smooth="yes"/>
    </contour>
    <contour>
      <point x="429" y="90" type="line"/>
      <point x="429" y="64"/>
      <point x="424" y="59"/>
      <point x="398" y="59" type="curve" smooth="yes"/>
      <point x="335" y="59" type="line" smooth="yes"/>
      <point x="309" y="59"/>
      <point x="304" y="64"/>
      <point x="304" y="90" type="curve" smooth="yes"/>
      <point x="304" y="532" type="line" smooth="yes"/>
      <point x="304" y="558"/>
      <point x="309" y="563"/>
      <point x="335" y="563" type="curve" smooth="yes"/>
      <point x="398" y="563" type="line" smooth="yes"/>
      <point x="424" y="563"/>
      <point x="429" y="558"/>
      <point x="429" y="532" type="curve" smooth="yes"/>
    </contour>
  </outline>
</glyph>
<glyph name="W" format="1">
  <advance width="1159"/>
  <unicode hex="0057"/>
  <outline>
    <contour>
      <point x="911" y="622" type="line"/>
      <point x="820" y="178" type="line"/>
      <point x="699" y="622" type="line"/>
      <point x="458" y="622" type="line"/>
      <point x="337" y="178" type="line"/>
      <point x="261" y="622" type="line"/>
      <point x="4" y="622" type="line"/>
      <point x="196" y="0" type="line"/>
      <point x="479" y="0" type="line"/>
      <point x="579" y="371" type="line"/>
      <point x="679" y="0" type="line"/>
      <point x="963" y="0" type="line"/>
      <point x="1155" y="622" type="line"/>
    </contour>
  </outline>
</glyph>
<glyph name="X" format="1">
  <advance width="737"/>
  <unicode hex="0058"/>
  <outline>
    <contour>
      <point x="495" y="326" type="line"/>
      <point x="702" y="622" type="line"/>
      <point x="447" y="622" type="line"/>
      <point x="361" y="458" type="line"/>
      <point x="276" y="622" type="line"/>
      <point x="7" y="622" type="line"/>
      <point x="227" y="306" type="line"/>
      <point x="1" y="0" type="line"/>
      <point x="253" y="0" type="line"/>
      <point x="361" y="179" type="line"/>
      <point x="468" y="0" type="line"/>
      <point x="736" y="0" type="line"/>
    </contour>
  </outline>
</glyph>
<glyph name="Y" format="1">
  <advance width="738"/>
  <unicode hex="0059"/>
  <outline>
    <contour>
      <point x="482" y="173" type="line"/>
      <point x="735" y="622" type="line"/>
      <point x="489" y="622" type="line"/>
      <point x="374" y="329" type="line"/>
      <point x="250" y="622" type="line"/>
      <point x="3" y="622" type="line"/>
      <point x="269" y="173" type="line"/>
    </contour>
    <contour>
      <point x="249" y="264" type="line"/>
      <point x="249" y="0" type="line"/>
      <point x="503" y="0" type="line"/>
      <point x="503" y="264" type="line"/>
    </contour>
  </outline>
</glyph>
<glyph name="Z" format="1">
  <advance width="658"/>
  <unicode hex="005A"/>
  <outline>
    <contour>
      <point x="628" y="622" type="line"/>
      <point x="49" y="622" type="line"/>
      <point x="49" y="563" type="line"/>
      <point x="628" y="563" type="line"/>
    </contour>
    <contour>
      <point x="340" y="563" type="line"/>
      <point x="30" y="59" type="line"/>
      <point x="318" y="59" type="line"/>
      <point x="628" y="563" type="line"/>
    </contour>
    <contour>
      <point x="618" y="59" type="line"/>
      <point x="30" y="59" type="line"/>
      <point x="30" y="0" type="line"/>
      <point x="618" y="0" type="line"/>
    </contour>
  </outline>
</glyph>
<glyph name="bracketleft" format="1">
  <advance width="399"/>
  <unicode hex="005B"/>
  <outline>
    <contour>
      <point x="139" y="660" type="line"/>
      <point x="432" y="660" type="line"/>
      <point x="432" y="719" type="line"/>
      <point x="139" y="719" type="line"/>
    </contour>
    <contour>
      <point x="55" y="719" type="line"/>
      <point x="55" y="-220" type="line"/>
      <point x="309" y="-220" type="line"/>
      <point x="309" y="719" type="line"/>
    </contour>
    <contour>
      <point x="139" y="-220" type="line"/>
      <point x="432" y="-220" type="line"/>
      <point x="432" y="-161" type="line"/>
      <point x="139" y="-161" type="line"/>
    </contour>
  </outline>
</glyph>
<glyph name="backslash" format="1">
  <advance width="544"/>
  <unicode hex="005C"/>
  <outline>
    <contour>
      <point x="-60" y="699" type="line"/>
      <point x="371" y="-136" type="line"/>
      <point x="574" y="-136" type="line"/>
      <point x="143" y="699" type="line"/>
    </contour>
  </outline>
</glyph>
<glyph name="bracketright" format="1">
  <advance width="399"/>
  <unicode hex="005D"/>
  <outline>
    <contour>
      <point x="260" y="719" type="line"/>
      <point x="-33" y="719" type="line"/>
      <point x="-33" y="660" type="line"/>
      <point x="260" y="660" type="line"/>
    </contour>
    <contour>
      <point x="90" y="719" type="line"/>
      <point x="90" y="-220" type="line"/>
      <point x="344" y="-220" type="line"/>
      <point x="344" y="719" type="line"/>
    </contour>
    <contour>
      <point x="260" y="-161" type="line"/>
      <point x="-33" y="-161" type="line"/>
      <point x="-33" y="-220" type="line"/>
      <point x="260" y="-220" type="line"/>
    </contour>
  </outline>
</glyph>
<glyph name="asciicircum" format="1">
  <advance width="658"/>
  <unicode hex="005E"/>
  <outline>
    <contour>
      <point x="186" y="668" type="line"/>
      <point x="3" y="328" type="line"/>
      <point x="219" y="328" type="line"/>
      <point x="328" y="542" type="line"/>
      <point x="438" y="328" type="line"/>
      <point x="655" y="328" type="line"/>
      <point x="472" y="668" type="line"/>
    </contour>
  </outline>
</glyph>
<glyph name="grave" format="1">
  <advance width="705"/>
  <unicode hex="0060"/>
  <outline>
    <contour>
      <point x="384" y="661" type="line"/>
      <point x="156" y="661" type="line"/>
      <point x="334" y="506" type="line"/>
      <point x="520" y="506" type="line"/>
    </contour>
  </outline>
</glyph>
<glyph name="i" format="1">
  <advance width="350"/>
  <unicode hex="0069"/>
  <outline>
    <contour>
      <point x="295" y="0" type="line"/>
      <point x="295" y="485" type="line"/>
      <point x="55" y="485" type="line"/>
      <point x="55" y="0" type="line"/>
    </contour>
    <contour>
      <point x="51" y="543" type="line"/>
      <point x="299" y="543" type="line"/>
      <point x="299" y="669" type="line"/>
      <point x="51" y="669" type="line"/>
    </contour>
  </outline>
</glyph>
<glyph name="k" format="1">
  <advance width="683"/>
  <unicode hex="006B"/>
  <outline>
    <contour>
      <point x="295" y="0" type="line"/>
      <point x="295" y="669" type="line"/>
      <point x="55" y="669" type="line"/>
      <point x="55" y="0" type="line"/>
    </contour>
    <contour>
      <point x="295" y="245" type="line"/>
      <point x="427" y="0" type="line"/>
      <point x="667" y="0" type="line"/>
      <point x="526" y="245" type="line"/>
    </contour>
    <contour>
      <point x="526" y="245" type="line"/>
      <point x="667" y="485" type="line"/>
      <point x="429" y="485" type="line"/>
      <point x="295" y="245" type="line"/>
    </contour>
  </outline>
</glyph>
<glyph name="l" format="1">
  <advance width="360"/>
  <unicode hex="006C"/>
  <outline>
    <contour>
      <point x="300" y="0" type="line"/>
      <point x="300" y="669" type="line"/>
      <point x="60" y="669" type="line"/>
      <point x="60" y="0" type="line"/>
    </contour>
  </outline>
</glyph>
<glyph name="o" format="1">
  <advance width="680"/>
  <unicode hex="006F"/>
  <outline>
    <contour>
      <point x="390" y="90" type="line"/>
      <point x="390" y="64"/>
      <point x="385" y="59"/>
      <point x="359" y="59" type="curve" smooth="yes"/>
      <point x="333" y="59" type="line"/>
      <point x="333" y="0" type="line"/>
      <point x="551" y="0" type="line" smooth="yes"/>
      <point x="604" y="0"/>
      <point x="630" y="26"/>
      <point x="630" y="79" type="curve" smooth="yes"/>
      <point x="630" y="406" type="line" smooth="yes"/>
      <point x="630" y="459"/>
      <point x="604" y="485"/>
      <point x="551" y="485" type="curve" smooth="yes"/>
      <point x="335" y="485" type="line"/>
      <point x="335" y="426" type="line"/>
      <point x="359" y="426" type="line" smooth="yes"/>
      <point x="385" y="426"/>
      <point x="390" y="421"/>
      <point x="390" y="395" type="curve" smooth="yes"/>
    </contour>
    <contour>
      <point x="290" y="395" type="line"/>
      <point x="290" y="421"/>
      <point x="295" y="426"/>
      <point x="321" y="426" type="curve" smooth="yes"/>
      <point x="339" y="426" type="line"/>
      <point x="339" y="485" type="line"/>
      <point x="129" y="485" type="line" smooth="yes"/>
      <point x="76" y="485"/>
      <point x="50" y="459"/>
      <point x="50" y="406" type="curve" smooth="yes"/>
      <point x="50" y="79" type="line" smooth="yes"/>
      <point x="50" y="26"/>
      <point x="76" y="0"/>
      <point x="129" y="0" type="curve" smooth="yes"/>
      <point x="338" y="0" type="line"/>
      <point x="338" y="59" type="line"/>
      <point x="321" y="59" type="line" smooth="yes"/>
      <point x="295" y="59"/>
      <point x="290" y="64"/>
      <point x="290" y="90" type="curve" smooth="yes"/>
    </contour>
  </outline>
</glyph>
<glyph name="r" format="1">
  <advance width="469"/>
  <unicode hex="0072"/>
  <outline>
    <contour>
      <point x="464" y="488" type="line"/>
      <point x="423" y="488" type="line" smooth="yes"/>
      <point x="324" y="488"/>
      <point x="287" y="445"/>
      <point x="287" y="380" type="curve" smooth="yes"/>
      <point x="287" y="253" type="line"/>
      <point x="295" y="253" type="line"/>
      <point x="295" y="338" type="line" smooth="yes"/>
      <point x="295" y="381"/>
      <point x="320" y="414"/>
      <point x="374" y="414" type="curve" smooth="yes"/>
      <point x="464" y="414" type="line"/>
    </contour>
    <contour>
      <point x="295" y="0" type="line"/>
      <point x="295" y="485" type="line"/>
      <point x="55" y="485" type="line"/>
      <point x="55" y="0" type="line"/>
    </contour>
  </outline>
</glyph>
<glyph name="s" format="1">
  <advance width="633"/>
  <unicode hex="0073"/>
  <outline>
    <contour>
      <point x="353" y="90" type="line"/>
      <point x="353" y="64"/>
      <point x="348" y="59"/>
      <point x="322" y="59" type="curve" smooth="yes"/>
      <point x="303" y="59" type="line" smooth="yes"/>
      <point x="277" y="59"/>
      <point x="272" y="64"/>
      <point x="272" y="90" type="curve" smooth="yes"/>
      <point x="272" y="162" type="line"/>
      <point x="40" y="162" type="line"/>
      <point x="40" y="79" type="line" smooth="yes"/>
      <point x="40" y="26"/>
      <point x="66" y="0"/>
      <point x="119" y="0" type="curve" smooth="yes"/>
      <point x="514" y="0" type="line" smooth="yes"/>
      <point x="567" y="0"/>
      <point x="593" y="26"/>
      <point x="593" y="79" type="curve" smooth="yes"/>
      <point x="593" y="192" type="line" smooth="yes"/>
      <point x="593" y="245"/>
      <point x="567" y="271"/>
      <point x="514" y="271" type="curve" smooth="yes"/>
      <point x="306" y="271" type="line" smooth="yes"/>
      <point x="280" y="271"/>
      <point x="275" y="276"/>
      <point x="275" y="302" type="curve" smooth="yes"/>
      <point x="275" y="395" type="line" smooth="yes"/>
      <point x="275" y="421"/>
      <point x="280" y="426"/>
      <point x="306" y="426" type="curve" smooth="yes"/>
      <point x="319" y="426" type="line" smooth="yes"/>
      <point x="345" y="426"/>
      <point x="350" y="421"/>
      <point x="350" y="395" type="curve" smooth="yes"/>
      <point x="350" y="323" type="line"/>
      <point x="582" y="323" type="line"/>
      <point x="582" y="406" type="line" smooth="yes"/>
      <point x="582" y="459"/>
      <point x="556" y="485"/>
      <point x="503" y="485" type="curve" smooth="yes"/>
      <point x="114" y="485" type="line" smooth="yes"/>
      <point x="61" y="485"/>
      <point x="35" y="459"/>
      <point x="35" y="406" type="curve" smooth="yes"/>
      <point x="35" y="291" type="line" smooth="yes"/>
      <point x="35" y="238"/>
      <point x="61" y="212"/>
      <point x="114" y="212" type="curve" smooth="yes"/>
      <point x="322" y="212" type="line" smooth="yes"/>
      <point x="348" y="212"/>
      <point x="353" y="207"/>
      <point x="353" y="181" type="curve" smooth="yes"/>
    </contour>
  </outline>
</glyph>
<glyph name="u" format="1">
  <advance width="682"/>
  <unicode hex="0075"/>
  <outline>
    <contour>
      <point x="50" y="485" type="line"/>
      <point x="50" y="79" type="line" smooth="yes"/>
      <point x="50" y="26"/>
      <point x="76" y="0"/>
      <point x="129" y="0" type="curve" smooth="yes"/>
      <point x="329" y="0" type="line" smooth="yes"/>
      <point x="392" y="0"/>
      <point x="396" y="35"/>
      <point x="396" y="90" type="curve" smooth="yes"/>
      <point x="396" y="114" type="line"/>
      <point x="387" y="114" type="line"/>
      <point x="387" y="88" type="line" smooth="yes"/>
      <point x="387" y="67"/>
      <point x="375" y="59"/>
      <point x="349" y="59" type="curve" smooth="yes"/>
      <point x="321" y="59" type="line" smooth="yes"/>
      <point x="295" y="59"/>
      <point x="290" y="64"/>
      <point x="290" y="90" type="curve" smooth="yes"/>
      <point x="290" y="485" type="line"/>
    </contour>
    <contour>
      <point x="387" y="485" type="line"/>
      <point x="387" y="0" type="line"/>
      <point x="627" y="0" type="line"/>
      <point x="627" y="485" type="line"/>
    </contour>
  </outline>
</glyph>
<glyph name="v" format="1">
  <advance width="656"/>
  <unicode hex="0076"/>
  <outline>
    <contour>
      <point x="238" y="485" type="line"/>
      <point x="327" y="146" type="line"/>
      <point x="417" y="485" type="line"/>
      <point x="654" y="485" type="line"/>
      <point x="471" y="0" type="line"/>
      <point x="185" y="0" type="line"/>
      <point x="2" y="485" type="line"/>
    </contour>
  </outline>
</glyph>
<glyph name="x" format="1">
  <advance width="637"/>
  <unicode hex="0078"/>
  <outline>
    <contour>
      <point x="427" y="282" type="line"/>
      <point x="610" y="485" type="line"/>
      <point x="464" y="485" type="line"/>
      <point x="357" y="364" type="line"/>
      <point x="268" y="485" type="line"/>
      <point x="-11" y="485" type="line"/>
      <point x="199" y="218" type="line"/>
      <point x="5" y="0" type="line"/>
      <point x="147" y="0" type="line"/>
      <point x="266" y="134" type="line"/>
      <point x="368" y="0" type="line"/>
      <point x="652" y="0" type="line"/>
    </contour>
  </outline>
</glyph>
<glyph name="y" format="1">
  <advance width="659"/>
  <unicode hex="0079"/>
  <outline>
    <contour>
      <point x="2" y="485" type="line"/>
      <point x="182" y="0" type="line"/>
      <point x="274" y="0" type="line"/>
      <point x="264" y="-27" type="line" smooth="yes"/>
      <point x="250" y="-63"/>
      <point x="229" y="-82"/>
      <point x="172" y="-82" type="curve" smooth="yes"/>
      <point x="105" y="-82" type="line"/>
      <point x="105" y="-141" type="line"/>
      <point x="250" y="-141" type="line" smooth="yes"/>
      <point x="408" y="-141"/>
      <point x="444" y="-89"/>
      <point x="479" y="7" type="curve" smooth="yes"/>
      <point x="656" y="485" type="line"/>
      <point x="415" y="485" type="line"/>
      <point x="331" y="154" type="line"/>
      <point x="253" y="485" type="line"/>
    </contour>
  </outline>
</glyph>
<glyph name="braceleft" format="1">
  <advance width="445"/>
  <unicode hex="007B"/>
  <outline>
    <contour>
      <point x="378" y="539" type="line"/>
      <point x="378" y="611"/>
      <point x="386" y="660"/>
      <point x="446" y="660" type="curve" smooth="yes"/>
      <point x="459" y="660" type="line"/>
      <point x="459" y="719" type="line"/>
      <point x="415" y="719" type="line" smooth="yes"/>
      <point x="226" y="719"/>
      <point x="124" y="675"/>
      <point x="124" y="481" type="curve" smooth="yes"/>
      <point x="124" y="362" type="line" smooth="yes"/>
      <point x="124" y="307"/>
      <point x="99" y="282"/>
      <point x="29" y="282" type="curve" smooth="yes"/>
      <point x="20" y="282" type="line"/>
      <point x="20" y="223" type="line"/>
      <point x="29" y="223" type="line" smooth="yes"/>
      <point x="99" y="223"/>
      <point x="124" y="199"/>
      <point x="124" y="145" type="curve" smooth="yes"/>
      <point x="124" y="17" type="line" smooth="yes"/>
      <point x="124" y="-177"/>
      <point x="226" y="-221"/>
      <point x="415" y="-221" type="curve" smooth="yes"/>
      <point x="459" y="-221" type="line"/>
      <point x="459" y="-162" type="line"/>
      <point x="446" y="-162" type="line" smooth="yes"/>
      <point x="386" y="-162"/>
      <point x="378" y="-113"/>
      <point x="378" y="-41" type="curve"/>
      <point x="378" y="121" type="line" smooth="yes"/>
      <point x="378" y="191"/>
      <point x="344" y="247"/>
      <point x="276" y="250" type="curve"/>
      <point x="344" y="252"/>
      <point x="378" y="308"/>
      <point x="378" y="379" type="curve" smooth="yes"/>
    </contour>
  </outline>
</glyph>
<glyph name="cent" format="1">
  <advance width="636"/>
  <unicode hex="00A2"/>
  <outline>
    <contour>
      <point x="452" y="450" type="line"/>
      <point x="452" y="563" type="line"/>
      <point x="205" y="563" type="line"/>
      <point x="205" y="450" type="line"/>
    </contour>
    <contour>
      <point x="452" y="-80" type="line"/>
      <point x="452" y="33" type="line"/>
      <point x="205" y="33" type="line"/>
      <point x="205" y="-80" type="line"/>
    </contour>
    <contour>
      <point x="282" y="395" type="line"/>
      <point x="282" y="421"/>
      <point x="287" y="426"/>
      <point x="313" y="426" type="curve" smooth="yes"/>
      <point x="331" y="426" type="line"/>
      <point x="331" y="485" type="line"/>
      <point x="121" y="485" type="line" smooth="yes"/>
      <point x="68" y="485"/>
      <point x="42" y="459"/>
      <point x="42" y="406" type="curve" smooth="yes"/>
      <point x="42" y="79" type="line" smooth="yes"/>
      <point x="42" y="26"/>
      <point x="68" y="0"/>
      <point x="121" y="0" type="curve" smooth="yes"/>
      <point x="330" y="0" type="line"/>
      <point x="330" y="59" type="line"/>
      <point x="313" y="59" type="line" smooth="yes"/>
      <point x="287" y="59"/>
      <point x="282" y="64"/>
      <point x="282" y="90" type="curve" smooth="yes"/>
    </contour>
    <contour>
      <point x="376" y="303" type="line"/>
      <point x="608" y="303" type="line"/>
      <point x="608" y="406" type="line" smooth="yes"/>
      <point x="608" y="459"/>
      <point x="582" y="485"/>
      <point x="529" y="485" type="curve" smooth="yes"/>
      <point x="327" y="485" type="line"/>
      <point x="327" y="426" type="line"/>
      <point x="345" y="426" type="line" smooth="yes"/>
      <point x="371" y="426"/>
      <point x="376" y="421"/>
      <point x="376" y="395" type="curve" smooth="yes"/>
    </contour>
    <contour>
      <point x="376" y="90" type="line"/>
      <point x="376" y="64"/>
      <point x="371" y="59"/>
      <point x="345" y="59" type="curve" smooth="yes"/>
      <point x="327" y="59" type="line"/>
      <point x="327" y="0" type="line"/>
      <point x="529" y="0" type="line" smooth="yes"/>
      <point x="582" y="0"/>
      <point x="608" y="26"/>
      <point x="608" y="79" type="curve" smooth="yes"/>
      <point x="608" y="179" type="line"/>
      <point x="376" y="179" type="line"/>
    </contour>
  </outline>
</glyph>
<glyph name="currency" format="1">
  <advance width="835"/>
  <unicode hex="00A4"/>
  <outline>
    <contour>
      <point x="726" y="314" type="line"/>
      <point x="726" y="422"/>
      <point x="678" y="489"/>
      <point x="501" y="489" type="curve" smooth="yes"/>
      <point x="331" y="489" type="line" smooth="yes"/>
      <point x="153" y="489"/>
      <point x="107" y="422"/>
      <point x="107" y="314" type="curve" smooth="yes"/>
      <point x="107" y="282" type="line" smooth="yes"/>
      <point x="107" y="173"/>
      <point x="153" y="106"/>
      <point x="331" y="106" type="curve" smooth="yes"/>
      <point x="501" y="106" type="line" smooth="yes"/>
      <point x="678" y="106"/>
      <point x="726" y="173"/>
      <point x="726" y="282" type="curve" smooth="yes"/>
    </contour>
    <contour>
      <point x="412" y="165" type="line"/>
      <point x="318" y="165"/>
      <point x="282" y="175"/>
      <point x="282" y="271" type="curve" smooth="yes"/>
      <point x="282" y="301" type="line" smooth="yes"/>
      <point x="282" y="397"/>
      <point x="318" y="430"/>
      <point x="412" y="430" type="curve" smooth="yes"/>
      <point x="421" y="430" type="line" smooth="yes"/>
      <point x="514" y="430"/>
      <point x="551" y="397"/>
      <point x="551" y="301" type="curve" smooth="yes"/>
      <point x="551" y="271" type="line" smooth="yes"/>
      <point x="551" y="175"/>
      <point x="514" y="165"/>
      <point x="421" y="165" type="curve" smooth="yes"/>
    </contour>
    <contour>
      <point x="317" y="444" type="line"/>
      <point x="177" y="581" type="line"/>
      <point x="55" y="456" type="line"/>
      <point x="195" y="319" type="line"/>
    </contour>
    <contour>
      <point x="640" y="319" type="line"/>
      <point x="780" y="456" type="line"/>
      <point x="658" y="581" type="line"/>
      <point x="518" y="444" type="line"/>
    </contour>
    <contour>
      <point x="195" y="274" type="line"/>
      <point x="55" y="137" type="line"/>
      <point x="177" y="12" type="line"/>
      <point x="317" y="149" type="line"/>
    </contour>
    <contour>
      <point x="518" y="149" type="line"/>
      <point x="658" y="12" type="line"/>
      <point x="780" y="137" type="line"/>
      <point x="640" y="274" type="line"/>
    </contour>
  </outline>
</glyph>
<glyph name="section" format="1">
  <advance width="1017"/>
  <unicode hex="00A7"/>
  <outline>
    <contour>
      <point x="776" y="183" type="curve"/>
      <point x="799" y="185"/>
      <point x="839" y="199"/>
      <point x="839" y="253" type="curve"/>
      <point x="839" y="360" type="line" smooth="yes"/>
      <point x="839" y="413"/>
      <point x="813" y="439"/>
      <point x="760" y="439" type="curve" smooth="yes"/>
      <point x="549" y="439" type="line" smooth="yes"/>
      <point x="523" y="439"/>
      <point x="518" y="444"/>
      <point x="518" y="470" type="curve" smooth="yes"/>
      <point x="518" y="558" type="line" smooth="yes"/>
      <point x="518" y="584"/>
      <point x="523" y="589"/>
      <point x="549" y="589" type="curve" smooth="yes"/>
      <point x="572" y="589" type="line" smooth="yes"/>
      <point x="598" y="589"/>
      <point x="603" y="584"/>
      <point x="603" y="558" type="curve" smooth="yes"/>
      <point x="603" y="496" type="line"/>
      <point x="850" y="496" type="line"/>
      <point x="850" y="569" type="line" smooth="yes"/>
      <point x="850" y="622"/>
      <point x="824" y="648"/>
      <point x="771" y="648" type="curve" smooth="yes"/>
      <point x="350" y="648" type="line" smooth="yes"/>
      <point x="297" y="648"/>
      <point x="271" y="622"/>
      <point x="271" y="569" type="curve" smooth="yes"/>
      <point x="271" y="459" type="line" smooth="yes"/>
      <point x="271" y="406"/>
      <point x="308" y="392"/>
      <point x="331" y="390" type="curve"/>
      <point x="307" y="387"/>
      <point x="269" y="363"/>
      <point x="269" y="310" type="curve" smooth="yes"/>
      <point x="269" y="213" type="line" smooth="yes"/>
      <point x="269" y="160"/>
      <point x="295" y="134"/>
      <point x="348" y="134" type="curve" smooth="yes"/>
      <point x="559" y="134" type="line" smooth="yes"/>
      <point x="585" y="134"/>
      <point x="590" y="129"/>
      <point x="590" y="103" type="curve" smooth="yes"/>
      <point x="590" y="15" type="line" smooth="yes"/>
      <point x="590" y="-11"/>
      <point x="585" y="-16"/>
      <point x="559" y="-16" type="curve" smooth="yes"/>
      <point x="536" y="-16" type="line" smooth="yes"/>
      <point x="510" y="-16"/>
      <point x="505" y="-11"/>
      <point x="505" y="15" type="curve" smooth="yes"/>
      <point x="505" y="77" type="line"/>
      <point x="258" y="77" type="line"/>
      <point x="258" y="4" type="line" smooth="yes"/>
      <point x="258" y="-49"/>
      <point x="284" y="-75"/>
      <point x="337" y="-75" type="curve" smooth="yes"/>
      <point x="758" y="-75" type="line" smooth="yes"/>
      <point x="811" y="-75"/>
      <point x="837" y="-49"/>
      <point x="837" y="4" type="curve" smooth="yes"/>
      <point x="837" y="104" type="line" smooth="yes"/>
      <point x="837" y="156"/>
      <point x="798" y="180"/>
    </contour>
    <contour>
      <point x="561" y="380" type="line"/>
      <point x="587" y="380"/>
      <point x="592" y="375"/>
      <point x="592" y="349" type="curve" smooth="yes"/>
      <point x="592" y="224" type="line" smooth="yes"/>
      <point x="592" y="198"/>
      <point x="587" y="193"/>
      <point x="561" y="193" type="curve" smooth="yes"/>
      <point x="547" y="193" type="line" smooth="yes"/>
      <point x="521" y="193"/>
      <point x="516" y="198"/>
      <point x="516" y="224" type="curve" smooth="yes"/>
      <point x="516" y="349" type="line" smooth="yes"/>
      <point x="516" y="375"/>
      <point x="521" y="380"/>
      <point x="547" y="380" type="curve" smooth="yes"/>
    </contour>
  </outline>
</glyph>
<glyph name="copyright" format="1">
  <advance width="1089"/>
  <unicode hex="00A9"/>
  <outline>
    <contour>
      <point x="1046" y="338" type="line"/>
      <point x="1046" y="513"/>
      <point x="971" y="622"/>
      <point x="682" y="622" type="curve" smooth="yes"/>
      <point x="406" y="622" type="line" smooth="yes"/>
      <point x="117" y="622"/>
      <point x="42" y="513"/>
      <point x="42" y="338" type="curve" smooth="yes"/>
      <point x="42" y="285" type="line" smooth="yes"/>
      <point x="42" y="109"/>
      <point x="117" y="0"/>
      <point x="406" y="0" type="curve" smooth="yes"/>
      <point x="682" y="0" type="line" smooth="yes"/>
      <point x="971" y="0"/>
      <point x="1046" y="109"/>
      <point x="1046" y="285" type="curve" smooth="yes"/>
    </contour>
    <contour>
      <point x="453" y="59" type="line"/>
      <point x="299" y="59"/>
      <point x="241" y="113"/>
      <point x="241" y="267" type="curve" smooth="yes"/>
      <point x="241" y="355" type="line" smooth="yes"/>
      <point x="241" y="509"/>
      <point x="299" y="563"/>
      <point x="453" y="563" type="curve" smooth="yes"/>
      <point x="636" y="563" type="line" smooth="yes"/>
      <point x="790" y="563"/>
      <point x="848" y="509"/>
      <point x="848" y="355" type="curve" smooth="yes"/>
      <point x="848" y="267" type="line" smooth="yes"/>
      <point x="848" y="113"/>
      <point x="790" y="59"/>
      <point x="636" y="59" type="curve" smooth="yes"/>
    </contour>
    <contour>
      <point x="582" y="240" type="line"/>
      <point x="582" y="214"/>
      <point x="577" y="209"/>
      <point x="551" y="209" type="curve" smooth="yes"/>
      <point x="540" y="209" type="line" smooth="yes"/>
      <point x="514" y="209"/>
      <point x="509" y="214"/>
      <point x="509" y="240" type="curve"/>
      <point x="509" y="383" type="line" smooth="yes"/>
      <point x="509" y="409"/>
      <point x="514" y="414"/>
      <point x="540" y="414" type="curve" smooth="yes"/>
      <point x="551" y="414" type="line" smooth="yes"/>
      <point x="577" y="414"/>
      <point x="582" y="409"/>
      <point x="582" y="383" type="curve" smooth="yes"/>
      <point x="582" y="339" type="line"/>
      <point x="747" y="339" type="line"/>
      <point x="747" y="394" type="line" smooth="yes"/>
      <point x="747" y="447"/>
      <point x="721" y="473"/>
      <point x="668" y="473" type="curve" smooth="yes"/>
      <point x="423" y="473" type="line" smooth="yes"/>
      <point x="370" y="473"/>
      <point x="344" y="447"/>
      <point x="344" y="394" type="curve" smooth="yes"/>
      <point x="344" y="229" type="line" smooth="yes"/>
      <point x="344" y="176"/>
      <point x="370" y="150"/>
      <point x="423" y="150" type="curve" smooth="yes"/>
      <point x="668" y="150" type="line" smooth="yes"/>
      <point x="721" y="150"/>
      <point x="747" y="176"/>
      <point x="747" y="229" type="curve" smooth="yes"/>
      <point x="747" y="285" type="line"/>
      <point x="582" y="285" type="line"/>
    </contour>
  </outline>
</glyph>
<glyph name="ordfeminine" format="1">
  <advance width="475"/>
  <unicode hex="00AA"/>
  <outline>
    <contour>
      <point x="205" y="444" type="line"/>
      <point x="205" y="559" type="line" smooth="yes"/>
      <point x="205" y="577"/>
      <point x="208" y="580"/>
      <point x="227" y="580" type="curve" smooth="yes"/>
      <point x="245" y="580" type="line" smooth="yes"/>
      <point x="264" y="580"/>
      <point x="272" y="575"/>
      <point x="272" y="560" type="curve" smooth="yes"/>
      <point x="272" y="542" type="line"/>
      <point x="278" y="542" type="line"/>
      <point x="278" y="559" type="line" smooth="yes"/>
      <point x="278" y="597"/>
      <point x="276" y="622"/>
      <point x="232" y="622" type="curve" smooth="yes"/>
      <point x="91" y="622" type="line" smooth="yes"/>
      <point x="53" y="622"/>
      <point x="35" y="604"/>
      <point x="35" y="566" type="curve" smooth="yes"/>
      <point x="35" y="444" type="line"/>
    </contour>
    <contour>
      <point x="442" y="280" type="line"/>
      <point x="442" y="622" type="line"/>
      <point x="272" y="622" type="line"/>
      <point x="272" y="280" type="line"/>
    </contour>
    <contour>
      <point x="35" y="456" type="line"/>
      <point x="35" y="335" type="line" smooth="yes"/>
      <point x="35" y="298"/>
      <point x="53" y="280"/>
      <point x="91" y="280" type="curve" smooth="yes"/>
      <point x="232" y="280" type="line" smooth="yes"/>
      <point x="276" y="280"/>
      <point x="278" y="304"/>
      <point x="278" y="343" type="curve" smooth="yes"/>
      <point x="278" y="360" type="line"/>
      <point x="272" y="360" type="line"/>
      <point x="272" y="342" type="line" smooth="yes"/>
      <point x="272" y="328"/>
      <point x="264" y="321"/>
      <point x="245" y="321" type="curve" smooth="yes"/>
      <point x="227" y="321" type="line" smooth="yes"/>
      <point x="208" y="321"/>
      <point x="205" y="325"/>
      <point x="205" y="343" type="curve" smooth="yes"/>
      <point x="205" y="456" type="line"/>
    </contour>
  </outline>
</glyph>
<glyph name="logicalnot" format="1">
  <advance width="799"/>
  <unicode hex="00AC"/>
  <outline>
    <contour>
      <point x="623" y="404" type="line"/>
      <point x="70" y="404" type="line"/>
      <point x="70" y="234" type="line"/>
      <point x="623" y="234" type="line"/>
    </contour>
    <contour>
      <point x="715" y="98" type="line"/>
      <point x="715" y="404" type="line"/>
      <point x="583" y="404" type="line"/>
      <point x="583" y="98" type="line"/>
    </contour>
  </outline>
</glyph>
<glyph name="registered" format="1">
  <advance width="674"/>
  <unicode hex="00AE"/>
  <outline>
    <contour>
      <point x="632" y="545" type="line" smooth="yes"/>
      <point x="632" y="648"/>
      <point x="588" y="712"/>
      <point x="419" y="712" type="curve" smooth="yes"/>
      <point x="256" y="712" type="line" smooth="yes"/>
      <point x="87" y="712"/>
      <point x="43" y="648"/>
      <point x="43" y="545" type="curve" smooth="yes"/>
      <point x="43" y="514" type="line" smooth="yes"/>
      <point x="43" y="411"/>
      <point x="87" y="347"/>
      <point x="256" y="347" type="curve" smooth="yes"/>
      <point x="419" y="347" type="line" smooth="yes"/>
      <point x="588" y="347"/>
      <point x="632" y="411"/>
      <point x="632" y="514" type="curve" smooth="yes"/>
    </contour>
    <contour>
      <point x="284" y="382" type="line" smooth="yes"/>
      <point x="194" y="382"/>
      <point x="160" y="414"/>
      <point x="160" y="504" type="curve" smooth="yes"/>
      <point x="160" y="555" type="line" smooth="yes"/>
      <point x="160" y="646"/>
      <point x="194" y="677"/>
      <point x="284" y="677" type="curve" smooth="yes"/>
      <point x="391" y="677" type="line" smooth="yes"/>
      <point x="481" y="677"/>
      <point x="516" y="646"/>
      <point x="516" y="555" type="curve" smooth="yes"/>
      <point x="516" y="504" type="line" smooth="yes"/>
      <point x="516" y="414"/>
      <point x="481" y="382"/>
      <point x="391" y="382" type="curve" smooth="yes"/>
    </contour>
    <contour>
      <point x="237" y="622" type="line"/>
      <point x="237" y="439" type="line"/>
      <point x="322" y="439" type="line"/>
      <point x="322" y="503" type="line"/>
      <point x="326" y="503" type="line"/>
      <point x="360" y="439" type="line"/>
      <point x="449" y="439" type="line"/>
      <point x="407" y="505" type="line"/>
      <point x="417" y="505" type="line" smooth="yes"/>
      <point x="433" y="505"/>
      <point x="441" y="513"/>
      <point x="441" y="528" type="curve" smooth="yes"/>
      <point x="441" y="598" type="line" smooth="yes"/>
      <point x="441" y="614"/>
      <point x="433" y="622"/>
      <point x="417" y="622" type="curve" smooth="yes"/>
    </contour>
    <contour>
      <point x="356" y="531" type="line" smooth="yes"/>
      <point x="356" y="524"/>
      <point x="355" y="522"/>
      <point x="347" y="522" type="curve" smooth="yes"/>
      <point x="322" y="522" type="line"/>
      <point x="322" y="604" type="line"/>
      <point x="347" y="604" type="line" smooth="yes"/>
      <point x="355" y="604"/>
      <point x="356" y="603"/>
      <point x="356" y="595" type="curve" smooth="yes"/>
    </contour>
  </outline>
</glyph>
<glyph name="macron" format="1">
  <advance width="705"/>
  <unicode hex="00AF"/>
  <outline>
    <contour>
      <point x="78" y="550" type="line"/>
      <point x="626" y="550" type="line"/>
      <point x="626" y="608" type="line"/>
      <point x="78" y="608" type="line"/>
    </contour>
  </outline>
</glyph>
<glyph name="plusminus" format="1">
  <advance width="752"/>
  <unicode hex="00B1"/>
  <outline>
    <contour>
      <point x="34" y="337" type="line"/>
      <point x="695" y="337" type="line"/>
      <point x="695" y="458" type="line"/>
      <point x="34" y="458" type="line"/>
    </contour>
    <contour>
      <point x="260" y="520" type="line"/>
      <point x="260" y="275" type="line"/>
      <point x="470" y="275" type="line"/>
      <point x="470" y="520" type="line"/>
    </contour>
    <contour>
      <point x="35" y="135" type="line"/>
      <point x="695" y="135" type="line"/>
      <point x="695" y="236" type="line"/>
      <point x="35" y="236" type="line"/>
    </contour>
  </outline>
</glyph>
<glyph name="twosuperior" format="1">
  <advance width="398"/>
  <unicode hex="00B2"/>
  <outline>
    <contour>
      <point x="167" y="563" type="line"/>
      <point x="167" y="577"/>
      <point x="170" y="580"/>
      <point x="184" y="580" type="curve" smooth="yes"/>
      <point x="206" y="580" type="line" smooth="yes"/>
      <point x="221" y="580"/>
      <point x="223" y="577"/>
      <point x="223" y="563" type="curve" smooth="yes"/>
      <point x="223" y="526" type="line" smooth="yes"/>
      <point x="223" y="507"/>
      <point x="220" y="487"/>
      <point x="198" y="469" type="curve"/>
      <point x="25" y="323" type="line"/>
      <point x="25" y="280" type="line"/>
      <point x="373" y="280" type="line"/>
      <point x="373" y="322" type="line"/>
      <point x="214" y="322" type="line"/>
      <point x="337" y="421" type="line" smooth="yes"/>
      <point x="364" y="446"/>
      <point x="373" y="473"/>
      <point x="373" y="527" type="curve" smooth="yes"/>
      <point x="373" y="579" type="line" smooth="yes"/>
      <point x="373" y="608"/>
      <point x="359" y="622"/>
      <point x="330" y="622" type="curve" smooth="yes"/>
      <point x="60" y="622" type="line" smooth="yes"/>
      <point x="31" y="622"/>
      <point x="17" y="608"/>
      <point x="17" y="579" type="curve" smooth="yes"/>
      <point x="17" y="505" type="line"/>
      <point x="167" y="505" type="line"/>
    </contour>
  </outline>
</glyph>
<glyph name="acute" format="1">
  <advance width="705"/>
  <unicode hex="00B4"/>
  <outline>
    <contour>
      <point x="166" y="506" type="line"/>
      <point x="352" y="506" type="line"/>
      <point x="530" y="661" type="line"/>
      <point x="302" y="661" type="line"/>
    </contour>
  </outline>
</glyph>
<glyph name="paragraph" format="1">
  <advance width="802"/>
  <unicode hex="00B6"/>
  <outline>
    <contour>
      <point x="413" y="622" type="line"/>
      <point x="117" y="622" type="line" smooth="yes"/>
      <point x="64" y="622"/>
      <point x="38" y="596"/>
      <point x="38" y="543" type="curve" smooth="yes"/>
      <point x="38" y="282" type="line" smooth="yes"/>
      <point x="38" y="229"/>
      <point x="64" y="203"/>
      <point x="117" y="203" type="curve"/>
      <point x="413" y="203" type="line"/>
    </contour>
    <contour>
      <point x="256" y="622" type="line"/>
      <point x="256" y="-141" type="line"/>
      <point x="467" y="-141" type="line"/>
      <point x="467" y="622" type="line"/>
    </contour>
    <contour>
      <point x="542" y="622" type="line"/>
      <point x="542" y="-141" type="line"/>
      <point x="753" y="-141" type="line"/>
      <point x="753" y="622" type="line"/>
    </contour>
  </outline>
</glyph>
<glyph name="cedilla" format="1">
  <advance width="705"/>
  <unicode hex="00B8"/>
  <outline>
    <contour>
      <point x="281" y="-162" type="line"/>
      <point x="281" y="-188"/>
      <point x="276" y="-193"/>
      <point x="250" y="-193" type="curve"/>
      <point x="171" y="-193" type="line"/>
      <point x="171" y="-252" type="line"/>
      <point x="427" y="-252" type="line" smooth="yes"/>
      <point x="480" y="-252"/>
      <point x="506" y="-226"/>
      <point x="506" y="-173" type="curve"/>
      <point x="506" y="-45" type="line"/>
      <point x="281" y="-45" type="line"/>
    </contour>
  </outline>
</glyph>
<glyph name="onesuperior" format="1">
  <advance width="307"/>
  <unicode hex="00B9"/>
  <outline>
    <contour>
      <point x="190" y="622" type="line"/>
      <point x="10" y="622" type="line"/>
      <point x="10" y="580" type="line"/>
      <point x="190" y="580" type="line"/>
    </contour>
    <contour>
      <point x="88" y="622" type="line"/>
      <point x="88" y="280" type="line"/>
      <point x="258" y="280" type="line"/>
      <point x="258" y="622" type="line"/>
    </contour>
  </outline>
</glyph>
<glyph name="ordmasculine" format="1">
  <advance width="467"/>
  <unicode hex="00BA"/>
  <outline>
    <contour>
      <point x="415" y="579" type="line"/>
      <point x="415" y="608"/>
      <point x="401" y="622"/>
      <point x="372" y="622" type="curve" smooth="yes"/>
      <point x="78" y="622" type="line" smooth="yes"/>
      <point x="49" y="622"/>
      <point x="35" y="608"/>
      <point x="35" y="579" type="curve" smooth="yes"/>
      <point x="35" y="323" type="line" smooth="yes"/>
      <point x="35" y="294"/>
      <point x="49" y="280"/>
      <point x="78" y="280" type="curve" smooth="yes"/>
      <point x="372" y="280" type="line" smooth="yes"/>
      <point x="401" y="280"/>
      <point x="415" y="294"/>
      <point x="415" y="323" type="curve" smooth="yes"/>
    </contour>
    <contour>
      <point x="255" y="339" type="line"/>
      <point x="255" y="325"/>
      <point x="253" y="322"/>
      <point x="238" y="322" type="curve" smooth="yes"/>
      <point x="212" y="322" type="line" smooth="yes"/>
      <point x="198" y="322"/>
      <point x="195" y="325"/>
      <point x="195" y="339" type="curve" smooth="yes"/>
      <point x="195" y="563" type="line" smooth="yes"/>
      <point x="195" y="577"/>
      <point x="198" y="580"/>
      <point x="212" y="580" type="curve" smooth="yes"/>
      <point x="238" y="580" type="line" smooth="yes"/>
      <point x="253" y="580"/>
      <point x="255" y="577"/>
      <point x="255" y="563" type="curve" smooth="yes"/>
    </contour>
  </outline>
</glyph>
<glyph name="threequarters" format="1">
  <advance width="1195"/>
  <unicode hex="00BE"/>
  <outline>
    <contour>
      <point x="747" y="56" type="line"/>
      <point x="1135" y="56" type="line"/>
      <point x="1135" y="88" type="line"/>
      <point x="747" y="88" type="line"/>
    </contour>
    <contour>
      <point x="671" y="56" type="line"/>
      <point x="826" y="56" type="line"/>
      <point x="995" y="342" type="line"/>
      <point x="814" y="342" type="line"/>
      <point x="671" y="111" type="line"/>
    </contour>
    <contour>
      <point x="917" y="181" type="line"/>
      <point x="917" y="0" type="line"/>
      <point x="1087" y="0" type="line"/>
      <point x="1087" y="181" type="line"/>
    </contour>
    <component base="threesuperior" xOffset="30"/>
    <component base="slash" xOffset="292"/>
  </outline>
</glyph>
<glyph name="Adieresis" format="1">
  <advance width="766"/>
  <unicode hex="00C4"/>
  <outline>
    <contour>
      <point x="233" y="622" type="line"/>
      <point x="0" y="0" type="line"/>
      <point x="243" y="0" type="line"/>
      <point x="382" y="477" type="line"/>
      <point x="517" y="0" type="line"/>
      <point x="766" y="0" type="line"/>
      <point x="533" y="622" type="line"/>
    </contour>
    <contour>
      <point x="158" y="182" type="line"/>
      <point x="158" y="123" type="line"/>
      <point x="611" y="123" type="line"/>
      <point x="611" y="182" type="line"/>
    </contour>
    <contour>
      <point x="104" y="810" type="line"/>
      <point x="104" y="669" type="line"/>
      <point x="343" y="669" type="line"/>
      <point x="343" y="810" type="line"/>
    </contour>
    <contour>
      <point x="423" y="810" type="line"/>
      <point x="423" y="669" type="line"/>
      <point x="662" y="669" type="line"/>
      <point x="662" y="810" type="line"/>
    </contour>
  </outline>
</glyph>
<glyph name="AE" format="1">
  <advance width="1105"/>
  <unicode hex="00C6"/>
  <outline>
    <contour>
      <point x="600" y="622" type="line"/>
      <point x="359" y="622" type="line"/>
      <point x="2" y="0" type="line"/>
      <point x="265" y="0" type="line"/>
    </contour>
    <contour>
      <point x="613" y="182" type="line"/>
      <point x="160" y="182" type="line"/>
      <point x="160" y="123" type="line"/>
      <point x="613" y="123" type="line"/>
    </contour>
    <contour>
      <point x="530" y="622" type="line"/>
      <point x="530" y="0" type="line"/>
      <point x="784" y="0" type="line"/>
      <point x="784" y="622" type="line"/>
    </contour>
    <contour>
      <point x="1076" y="59" type="line"/>
      <point x="608" y="59" type="line"/>
      <point x="608" y="0" type="line"/>
      <point x="1076" y="0" type="line"/>
    </contour>
    <contour>
      <point x="1022" y="348" type="line"/>
      <point x="626" y="348" type="line"/>
      <point x="626" y="289" type="line"/>
      <point x="1022" y="289" type="line"/>
    </contour>
    <contour>
      <point x="1063" y="622" type="line"/>
      <point x="608" y="622" type="line"/>
      <point x="608" y="563" type="line"/>
      <point x="1063" y="563" type="line"/>
    </contour>
  </outline>
</glyph>
<glyph name="Edieresis" format="1">
  <advance width="705"/>
  <unicode hex="00CB"/>
  <outline>
    <contour>
      <point x="370" y="810" type="line"/>
      <point x="370" y="669" type="line"/>
      <point x="609" y="669" type="line"/>
      <point x="609" y="810" type="line"/>
    </contour>
    <contour>
      <point x="51" y="810" type="line"/>
      <point x="51" y="669" type="line"/>
      <point x="290" y="669" type="line"/>
      <point x="290" y="810" type="line"/>
    </contour>
    <contour>
      <point x="56" y="622" type="line"/>
      <point x="56" y="0" type="line"/>
      <point x="320" y="0" type="line"/>
      <point x="320" y="622" type="line"/>
    </contour>
    <contour>
      <point x="558" y="348" type="line"/>
      <point x="162" y="348" type="line"/>
      <point x="162" y="289" type="line"/>
      <point x="558" y="289" type="line"/>
    </contour>
    <contour>
      <point x="599" y="622" type="line"/>
      <point x="144" y="622" type="line"/>
      <point x="144" y="563" type="line"/>
      <point x="599" y="563" type="line"/>
    </contour>
    <contour>
      <point x="612" y="59" type="line"/>
      <point x="144" y="59" type="line"/>
      <point x="144" y="0" type="line"/>
      <point x="612" y="0" type="line"/>
    </contour>
  </outline>
</glyph>
<glyph name="Idieresis" format="1">
  <advance width="360"/>
  <unicode hex="00CF"/>
  <outline>
    <contour>
      <point x="56" y="622" type="line"/>
      <point x="56" y="0" type="line"/>
      <point x="320" y="0" type="line"/>
      <point x="320" y="622" type="line"/>
    </contour>
    <contour>
      <point x="-88" y="809" type="line"/>
      <point x="-88" y="668" type="line"/>
      <point x="151" y="668" type="line"/>
      <point x="151" y="809" type="line"/>
    </contour>
    <contour>
      <point x="231" y="809" type="line"/>
      <point x="231" y="668" type="line"/>
      <point x="470" y="668" type="line"/>
      <point x="470" y="809" type="line"/>
    </contour>
  </outline>
</glyph>
<glyph name="multiply" format="1">
  <advance width="680"/>
  <unicode hex="00D7"/>
  <outline>
    <contour>
      <point x="645" y="185" type="line"/>
      <point x="178" y="533" type="line"/>
      <point x="78" y="432" type="line"/>
      <point x="546" y="86" type="line"/>
    </contour>
    <contour>
      <point x="545" y="533" type="line"/>
      <point x="78" y="186" type="line"/>
      <point x="177" y="86" type="line"/>
      <point x="645" y="433" type="line"/>
    </contour>
  </outline>
</glyph>
<glyph name="Oslash" format="1">
  <advance width="728"/>
  <unicode hex="00D8"/>
  <outline>
    <contour>
      <point x="675" y="543" type="line"/>
      <point x="675" y="596"/>
      <point x="649" y="622"/>
      <point x="596" y="622" type="curve" smooth="yes"/>
      <point x="131" y="622" type="line" smooth="yes"/>
      <point x="78" y="622"/>
      <point x="52" y="596"/>
      <point x="52" y="543" type="curve" smooth="yes"/>
      <point x="52" y="79" type="line" smooth="yes"/>
      <point x="52" y="26"/>
      <point x="78" y="0"/>
      <point x="131" y="0" type="curve" smooth="yes"/>
      <point x="596" y="0" type="line" smooth="yes"/>
      <point x="649" y="0"/>
      <point x="675" y="26"/>
      <point x="675" y="79" type="curve" smooth="yes"/>
    </contour>
    <contour>
      <point x="431" y="90" type="line"/>
      <point x="431" y="64"/>
      <point x="426" y="59"/>
      <point x="400" y="59" type="curve" smooth="yes"/>
      <point x="327" y="59" type="line" smooth="yes"/>
      <point x="301" y="59"/>
      <point x="296" y="64"/>
      <point x="296" y="90" type="curve" smooth="yes"/>
      <point x="296" y="532" type="line" smooth="yes"/>
      <point x="296" y="558"/>
      <point x="301" y="563"/>
      <point x="327" y="563" type="curve" smooth="yes"/>
      <point x="400" y="563" type="line" smooth="yes"/>
      <point x="426" y="563"/>
      <point x="431" y="558"/>
      <point x="431" y="532" type="curve" smooth="yes"/>
    </contour>
    <contour>
      <point x="614" y="661" type="line"/>
      <point x="27" y="-39" type="line"/>
      <point x="122" y="-39" type="line"/>
      <point x="709" y="661" type="line"/>
    </contour>
  </outline>
</glyph>
<glyph name="Thorn" format="1">
  <advance width="716"/>
  <unicode hex="00DE"/>
  <outline>
    <contour>
      <point x="425" y="192" type="line"/>
      <point x="425" y="166"/>
      <point x="420" y="161"/>
      <point x="394" y="161" type="curve"/>
      <point x="145" y="161" type="line"/>
      <point x="145" y="102" type="line"/>
      <point x="600" y="102" type="line" smooth="yes"/>
      <point x="653" y="102"/>
      <point x="679" y="128"/>
      <point x="679" y="181" type="curve" smooth="yes"/>
      <point x="679" y="441" type="line" smooth="yes"/>
      <point x="679" y="494"/>
      <point x="653" y="520"/>
      <point x="600" y="520" type="curve" smooth="yes"/>
      <point x="145" y="520" type="line"/>
      <point x="145" y="461" type="line"/>
      <point x="394" y="461" type="line" smooth="yes"/>
      <point x="420" y="461"/>
      <point x="425" y="456"/>
      <point x="425" y="430" type="curve" smooth="yes"/>
    </contour>
    <contour>
      <point x="63" y="622" type="line"/>
      <point x="63" y="0" type="line"/>
      <point x="317" y="0" type="line"/>
      <point x="317" y="622" type="line"/>
    </contour>
  </outline>
</glyph>
<glyph name="ae" format="1">
  <advance width="1038"/>
  <unicode hex="00E6"/>
  <outline>
    <contour>
      <point x="430" y="290" type="line"/>
      <point x="49" y="202" type="line"/>
      <point x="289" y="189" type="line"/>
      <point x="461" y="232" type="line"/>
    </contour>
    <contour>
      <point x="49" y="202" type="line"/>
      <point x="49" y="79" type="line" smooth="yes"/>
      <point x="49" y="26"/>
      <point x="75" y="0"/>
      <point x="128" y="0" type="curve" smooth="yes"/>
      <point x="373" y="0" type="line" smooth="yes"/>
      <point x="469" y="0"/>
      <point x="494" y="10"/>
      <point x="503" y="36" type="curve"/>
      <point x="511" y="10"/>
      <point x="521" y="0"/>
      <point x="618" y="0" type="curve" smooth="yes"/>
      <point x="894" y="0" type="line" smooth="yes"/>
      <point x="947" y="0"/>
      <point x="973" y="26"/>
      <point x="973" y="79" type="curve" smooth="yes"/>
      <point x="973" y="162" type="line"/>
      <point x="740" y="162" type="line"/>
      <point x="740" y="90" type="line" smooth="yes"/>
      <point x="740" y="64"/>
      <point x="735" y="59"/>
      <point x="709" y="59" type="curve" smooth="yes"/>
      <point x="650" y="59" type="line" smooth="yes"/>
      <point x="624" y="59"/>
      <point x="619" y="64"/>
      <point x="619" y="90" type="curve" smooth="yes"/>
      <point x="619" y="395" type="line" smooth="yes"/>
      <point x="619" y="421"/>
      <point x="624" y="426"/>
      <point x="650" y="426" type="curve" smooth="yes"/>
      <point x="709" y="426" type="line" smooth="yes"/>
      <point x="735" y="426"/>
      <point x="740" y="421"/>
      <point x="740" y="395" type="curve" smooth="yes"/>
      <point x="740" y="226" type="line"/>
      <point x="973" y="226" type="line"/>
      <point x="973" y="406" type="line" smooth="yes"/>
      <point x="973" y="459"/>
      <point x="947" y="485"/>
      <point x="894" y="485" type="curve" smooth="yes"/>
      <point x="618" y="485" type="line" smooth="yes"/>
      <point x="521" y="485"/>
      <point x="511" y="475"/>
      <point x="503" y="449" type="curve"/>
      <point x="494" y="475"/>
      <point x="469" y="485"/>
      <point x="373" y="485" type="curve" smooth="yes"/>
      <point x="128" y="485" type="line" smooth="yes"/>
      <point x="75" y="485"/>
      <point x="49" y="459"/>
      <point x="49" y="406" type="curve" smooth="yes"/>
      <point x="49" y="299" type="line"/>
      <point x="289" y="299" type="line"/>
      <point x="289" y="397" type="line" smooth="yes"/>
      <point x="289" y="423"/>
      <point x="294" y="428"/>
      <point x="320" y="428" type="curve" smooth="yes"/>
      <point x="355" y="428" type="line" smooth="yes"/>
      <point x="381" y="428"/>
      <point x="386" y="423"/>
      <point x="386" y="397" type="curve" smooth="yes"/>
      <point x="386" y="90" type="line" smooth="yes"/>
      <point x="386" y="64"/>
      <point x="381" y="59"/>
      <point x="355" y="59" type="curve" smooth="yes"/>
      <point x="320" y="59" type="line" smooth="yes"/>
      <point x="294" y="59"/>
      <point x="289" y="64"/>
      <point x="289" y="90" type="curve"/>
      <point x="289" y="189" type="line"/>
    </contour>
    <contour>
      <point x="973" y="278" type="line"/>
      <point x="506" y="278" type="line"/>
      <point x="506" y="219" type="line"/>
      <point x="973" y="219" type="line"/>
    </contour>
  </outline>
</glyph>
<glyph name="edieresis" format="1">
  <advance width="664"/>
  <unicode hex="00EB"/>
  <outline>
    <contour>
      <point x="302" y="673" type="line"/>
      <point x="63" y="673" type="line"/>
      <point x="63" y="532" type="line"/>
      <point x="302" y="532" type="line"/>
    </contour>
    <contour>
      <point x="621" y="673" type="line"/>
      <point x="382" y="673" type="line"/>
      <point x="382" y="532" type="line"/>
      <point x="621" y="532" type="line"/>
    </contour>
    <contour>
      <point x="121" y="485" type="line" smooth="yes"/>
      <point x="68" y="485"/>
      <point x="42" y="459"/>
      <point x="42" y="406" type="curve" smooth="yes"/>
      <point x="42" y="79" type="line" smooth="yes"/>
      <point x="42" y="26"/>
      <point x="68" y="0"/>
      <point x="121" y="0" type="curve" smooth="yes"/>
      <point x="550" y="0" type="line" smooth="yes"/>
      <point x="603" y="0"/>
      <point x="629" y="26"/>
      <point x="629" y="79" type="curve" smooth="yes"/>
      <point x="629" y="164" type="line"/>
      <point x="397" y="164" type="line"/>
      <point x="397" y="90" type="line" smooth="yes"/>
      <point x="397" y="64"/>
      <point x="392" y="59"/>
      <point x="366" y="59" type="curve" smooth="yes"/>
      <point x="313" y="59" type="line" smooth="yes"/>
      <point x="287" y="59"/>
      <point x="282" y="64"/>
      <point x="282" y="90" type="curve" smooth="yes"/>
      <point x="282" y="219" type="line"/>
      <point x="629" y="219" type="line"/>
      <point x="629" y="406" type="line" smooth="yes"/>
      <point x="629" y="459"/>
      <point x="603" y="485"/>
      <point x="550" y="485" type="curve" smooth="yes"/>
    </contour>
    <contour>
      <point x="282" y="278" type="line"/>
      <point x="282" y="395" type="line" smooth="yes"/>
      <point x="282" y="421"/>
      <point x="287" y="426"/>
      <point x="313" y="426" type="curve" smooth="yes"/>
      <point x="366" y="426" type="line" smooth="yes"/>
      <point x="392" y="426"/>
      <point x="397" y="421"/>
      <point x="397" y="395" type="curve" smooth="yes"/>
      <point x="397" y="278" type="line"/>
    </contour>
  </outline>
</glyph>
<glyph name="iacute" format="1">
  <advance width="352"/>
  <unicode hex="00ED"/>
  <outline>
    <contour>
      <point x="296" y="0" type="line"/>
      <point x="296" y="485" type="line"/>
      <point x="56" y="485" type="line"/>
      <point x="56" y="0" type="line"/>
    </contour>
    <component base="acute" xOffset="-77" yOffset="26"/>
  </outline>
</glyph>
<glyph name="idieresis" format="1">
  <advance width="352"/>
  <unicode hex="00EF"/>
  <outline>
    <contour>
      <point x="296" y="0" type="line"/>
      <point x="296" y="484" type="line"/>
      <point x="56" y="484" type="line"/>
      <point x="56" y="0" type="line"/>
    </contour>
    <component base="dieresis" xOffset="-180" yOffset="16"/>
  </outline>
</glyph>
<glyph name="thorn" format="1">
  <advance width="682"/>
  <unicode hex="00FE"/>
  <outline>
    <contour>
      <point x="632" y="243" type="line"/>
      <point x="632" y="415" type="line" smooth="yes"/>
      <point x="632" y="468"/>
      <point x="606" y="494"/>
      <point x="553" y="494" type="curve" smooth="yes"/>
      <point x="353" y="494" type="line" smooth="yes"/>
      <point x="290" y="494"/>
      <point x="286" y="459"/>
      <point x="286" y="404" type="curve" smooth="yes"/>
      <point x="286" y="380" type="line"/>
      <point x="295" y="380" type="line"/>
      <point x="295" y="406" type="line" smooth="yes"/>
      <point x="295" y="427"/>
      <point x="307" y="435"/>
      <point x="333" y="435" type="curve" smooth="yes"/>
      <point x="361" y="435" type="line" smooth="yes"/>
      <point x="387" y="435"/>
      <point x="392" y="430"/>
      <point x="392" y="404" type="curve"/>
      <point x="392" y="243" type="line"/>
    </contour>
    <contour>
      <point x="295" y="-141" type="line"/>
      <point x="295" y="401" type="line"/>
      <point x="290" y="401" type="line"/>
      <point x="290" y="669" type="line"/>
      <point x="55" y="669" type="line"/>
      <point x="55" y="-141" type="line"/>
    </contour>
    <contour>
      <point x="392" y="261" type="line"/>
      <point x="392" y="100" type="line" smooth="yes"/>
      <point x="392" y="74"/>
      <point x="387" y="69"/>
      <point x="361" y="69" type="curve" smooth="yes"/>
      <point x="333" y="69" type="line" smooth="yes"/>
      <point x="307" y="69"/>
      <point x="295" y="78"/>
      <point x="295" y="98" type="curve" smooth="yes"/>
      <point x="295" y="124" type="line"/>
      <point x="286" y="124" type="line"/>
      <point x="286" y="100" type="line" smooth="yes"/>
      <point x="286" y="45"/>
      <point x="290" y="10"/>
      <point x="353" y="10" type="curve" smooth="yes"/>
      <point x="553" y="10" type="line" smooth="yes"/>
      <point x="606" y="10"/>
      <point x="632" y="36"/>
      <point x="632" y="89" type="curve" smooth="yes"/>
      <point x="632" y="261" type="line"/>
    </contour>
  </outline>
</glyph>
<glyph name="Dcroat" format="1">
  <advance width="757"/>
  <unicode hex="0110"/>
  <outline>
    <contour>
      <point x="440" y="362" type="line"/>
      <point x="694" y="362" type="line"/>
      <point x="694" y="543" type="line" smooth="yes"/>
      <point x="694" y="596"/>
      <point x="668" y="622"/>
      <point x="615" y="622" type="curve" smooth="yes"/>
      <point x="152" y="622" type="line"/>
      <point x="152" y="563" type="line"/>
      <point x="409" y="563" type="line" smooth="yes"/>
      <point x="435" y="563"/>
      <point x="440" y="558"/>
      <point x="440" y="532" type="curve" smooth="yes"/>
    </contour>
    <contour>
      <point x="440" y="90" type="line"/>
      <point x="440" y="64"/>
      <point x="435" y="59"/>
      <point x="409" y="59" type="curve" smooth="yes"/>
      <point x="152" y="59" type="line"/>
      <point x="152" y="0" type="line"/>
      <point x="615" y="0" type="line" smooth="yes"/>
      <point x="668" y="0"/>
      <point x="694" y="26"/>
      <point x="694" y="79" type="curve" smooth="yes"/>
      <point x="694" y="375" type="line"/>
      <point x="440" y="375" type="line"/>
    </contour>
    <contour>
      <point x="70" y="622" type="line"/>
      <point x="70" y="0" type="line"/>
      <point x="324" y="0" type="line"/>
      <point x="324" y="622" type="line"/>
    </contour>
    <contour>
      <point x="395" y="348" type="line"/>
      <point x="-7" y="348" type="line"/>
      <point x="-7" y="284" type="line"/>
      <point x="395" y="284" type="line"/>
    </contour>
  </outline>
</glyph>
<glyph name="dcroat" format="1">
  <advance width="682"/>
  <unicode hex="0111"/>
  <outline>
    <contour>
      <point x="289" y="233" type="line"/>
      <point x="289" y="395" type="line" smooth="yes"/>
      <point x="289" y="421"/>
      <point x="294" y="426"/>
      <point x="320" y="426" type="curve" smooth="yes"/>
      <point x="348" y="426" type="line" smooth="yes"/>
      <point x="374" y="426"/>
      <point x="386" y="418"/>
      <point x="386" y="397" type="curve" smooth="yes"/>
      <point x="386" y="371" type="line"/>
      <point x="395" y="371" type="line"/>
      <point x="395" y="395" type="line" smooth="yes"/>
      <point x="395" y="450"/>
      <point x="391" y="485"/>
      <point x="328" y="485" type="curve" smooth="yes"/>
      <point x="128" y="485" type="line" smooth="yes"/>
      <point x="75" y="485"/>
      <point x="49" y="459"/>
      <point x="49" y="406" type="curve" smooth="yes"/>
      <point x="49" y="233" type="line"/>
    </contour>
    <contour>
      <point x="386" y="669" type="line"/>
      <point x="386" y="0" type="line"/>
      <point x="626" y="0" type="line"/>
      <point x="626" y="669" type="line"/>
    </contour>
    <contour>
      <point x="49" y="251" type="line"/>
      <point x="49" y="79" type="line" smooth="yes"/>
      <point x="49" y="26"/>
      <point x="75" y="0"/>
      <point x="128" y="0" type="curve" smooth="yes"/>
      <point x="328" y="0" type="line" smooth="yes"/>
      <point x="391" y="0"/>
      <point x="395" y="35"/>
      <point x="395" y="90" type="curve" smooth="yes"/>
      <point x="395" y="114" type="line"/>
      <point x="386" y="114" type="line"/>
      <point x="386" y="88" type="line" smooth="yes"/>
      <point x="386" y="68"/>
      <point x="374" y="59"/>
      <point x="348" y="59" type="curve" smooth="yes"/>
      <point x="320" y="59" type="line" smooth="yes"/>
      <point x="294" y="59"/>
      <point x="289" y="64"/>
      <point x="289" y="90" type="curve"/>
      <point x="289" y="251" type="line"/>
    </contour>
    <contour>
      <point x="697" y="599" type="line"/>
      <point x="302" y="599" type="line"/>
      <point x="302" y="540" type="line"/>
      <point x="697" y="540" type="line"/>
    </contour>
  </outline>
</glyph>
<glyph name="gcommaaccent" format="1">
  <advance width="675"/>
  <unicode hex="0123"/>
  <outline>
    <contour>
      <point x="405" y="777" type="line"/>
      <point x="243" y="616" type="line"/>
      <point x="243" y="532" type="line"/>
      <point x="478" y="532" type="line"/>
      <point x="478" y="777" type="line"/>
    </contour>
    <component base="g"/>
  </outline>
</glyph>
<glyph name="imacron" format="1">
  <advance width="352"/>
  <unicode hex="012B"/>
  <outline>
    <contour>
      <point x="296" y="0" type="line"/>
      <point x="296" y="485" type="line"/>
      <point x="56" y="485" type="line"/>
      <point x="56" y="0" type="line"/>
    </contour>
    <component base="macron" xOffset="-176" yOffset="-8"/>
  </outline>
</glyph>
<glyph name="Idotaccent" format="1">
  <advance width="360"/>
  <unicode hex="0130"/>
  <outline>
    <contour>
      <point x="56" y="622" type="line"/>
      <point x="56" y="0" type="line"/>
      <point x="320" y="0" type="line"/>
      <point x="320" y="622" type="line"/>
    </contour>
    <contour>
      <point x="66" y="810" type="line"/>
      <point x="66" y="669" type="line"/>
      <point x="305" y="669" type="line"/>
      <point x="305" y="810" type="line"/>
    </contour>
  </outline>
</glyph>
<glyph name="lcaron" format="1">
  <advance width="423"/>
  <unicode hex="013E"/>
  <outline>
    <contour>
      <point x="56" y="669" type="line"/>
      <point x="56" y="0" type="line"/>
      <point x="296" y="0" type="line"/>
      <point x="296" y="669" type="line"/>
    </contour>
    <contour>
      <point x="352" y="669" type="line"/>
      <point x="352" y="463" type="line"/>
      <point x="409" y="463" type="line"/>
      <point x="516" y="595" type="line"/>
      <point x="516" y="669" type="line"/>
    </contour>
  </outline>
</glyph>
<glyph name="Lslash" format="1">
  <advance width="612"/>
  <unicode hex="0141"/>
  <outline>
    <contour>
      <point x="472" y="432" type="line"/>
      <point x="-55" y="257" type="line"/>
      <point x="-55" y="186" type="line"/>
      <point x="472" y="360" type="line"/>
    </contour>
    <component base="L" xOffset="10"/>
  </outline>
</glyph>
<glyph name="tcaron" format="1">
  <advance width="427"/>
  <unicode hex="0165"/>
  <outline>
    <contour>
      <point x="85" y="611" type="line"/>
      <point x="85" y="79" type="line" smooth="yes"/>
      <point x="85" y="26"/>
      <point x="111" y="0"/>
      <point x="164" y="0" type="curve" smooth="yes"/>
      <point x="412" y="0" type="line"/>
      <point x="412" y="59" type="line"/>
      <point x="356" y="59" type="line" smooth="yes"/>
      <point x="330" y="59"/>
      <point x="325" y="64"/>
      <point x="325" y="90" type="curve"/>
      <point x="325" y="611" type="line"/>
    </contour>
    <contour>
      <point x="7" y="485" type="line"/>
      <point x="7" y="426" type="line"/>
      <point x="413" y="426" type="line"/>
      <point x="413" y="485" type="line"/>
    </contour>
    <contour>
      <point x="385" y="738" type="line"/>
      <point x="385" y="550" type="line"/>
      <point x="441" y="550" type="line"/>
      <point x="548" y="664" type="line"/>
      <point x="548" y="738" type="line"/>
    </contour>
  </outline>
</glyph>
<glyph name="uhungarumlaut" format="1">
  <advance width="682"/>
  <unicode hex="0171"/>
  <outline>
    <contour>
      <point x="49" y="485" type="line"/>
      <point x="49" y="79" type="line" smooth="yes"/>
      <point x="49" y="26"/>
      <point x="75" y="0"/>
      <point x="128" y="0" type="curve" smooth="yes"/>
      <point x="328" y="0" type="line" smooth="yes"/>
      <point x="391" y="0"/>
      <point x="395" y="35"/>
      <point x="395" y="90" type="curve" smooth="yes"/>
      <point x="395" y="114" type="line"/>
      <point x="386" y="114" type="line"/>
      <point x="386" y="88" type="line" smooth="yes"/>
      <point x="386" y="67"/>
      <point x="374" y="59"/>
      <point x="348" y="59" type="curve" smooth="yes"/>
      <point x="320" y="59" type="line" smooth="yes"/>
      <point x="294" y="59"/>
      <point x="289" y="64"/>
      <point x="289" y="90" type="curve" smooth="yes"/>
      <point x="289" y="485" type="line"/>
    </contour>
    <contour>
      <point x="386" y="485" type="line"/>
      <point x="386" y="0" type="line"/>
      <point x="626" y="0" type="line"/>
      <point x="626" y="485" type="line"/>
    </contour>
    <contour>
      <point x="530" y="688" type="line"/>
      <point x="384" y="533" type="line"/>
      <point x="550" y="533" type="line"/>
      <point x="738" y="688" type="line"/>
    </contour>
    <contour>
      <point x="263" y="688" type="line"/>
      <point x="127" y="533" type="line"/>
      <point x="293" y="533" type="line"/>
      <point x="471" y="688" type="line"/>
    </contour>
  </outline>
</glyph>
<glyph name="apostrophemod" format="1">
  <advance width="359"/>
  <unicode hex="02BC"/>
  <outline>
    <contour>
      <point x="55" y="750" type="line"/>
      <point x="309" y="750" type="line"/>
      <point x="309" y="653" type="line"/>
      <point x="139" y="440" type="line"/>
      <point x="55" y="440" type="line"/>
    </contour>
  </outline>
</glyph>
<glyph name="circumflex" format="1">
  <advance width="705"/>
  <unicode hex="02C6"/>
  <outline>
    <contour>
      <point x="56" y="506" type="line"/>
      <point x="278" y="506" type="line"/>
      <point x="352" y="590" type="line"/>
      <point x="427" y="506" type="line"/>
      <point x="649" y="506" type="line"/>
      <point x="461" y="669" type="line"/>
      <point x="244" y="669" type="line"/>
    </contour>
  </outline>
</glyph>
<glyph name="caron" format="1">
  <advance width="705"/>
  <unicode hex="02C7"/>
  <outline>
    <contour>
      <point x="244" y="496" type="line"/>
      <point x="461" y="496" type="line"/>
      <point x="649" y="659" type="line"/>
      <point x="427" y="659" type="line"/>
      <point x="352" y="575" type="line"/>
      <point x="278" y="659" type="line"/>
      <point x="56" y="659" type="line"/>
    </contour>
  </outline>
</glyph>
<glyph name="breve" format="1">
  <advance width="705"/>
  <unicode hex="02D8"/>
  <outline>
    <contour>
      <point x="419" y="661" type="line"/>
      <point x="419" y="606" type="line" smooth="yes"/>
      <point x="419" y="580"/>
      <point x="414" y="575"/>
      <point x="388" y="575" type="curve" smooth="yes"/>
      <point x="338" y="575" type="line"/>
      <point x="338" y="516" type="line"/>
      <point x="551" y="516" type="line" smooth="yes"/>
      <point x="604" y="516"/>
      <point x="630" y="542"/>
      <point x="630" y="595" type="curve" smooth="yes"/>
      <point x="630" y="661" type="line"/>
    </contour>
    <contour>
      <point x="75" y="661" type="line"/>
      <point x="75" y="595" type="line" smooth="yes"/>
      <point x="75" y="542"/>
      <point x="101" y="516"/>
      <point x="154" y="516" type="curve" smooth="yes"/>
      <point x="367" y="516" type="line"/>
      <point x="367" y="575" type="line"/>
      <point x="317" y="575" type="line" smooth="yes"/>
      <point x="291" y="575"/>
      <point x="286" y="580"/>
      <point x="286" y="606" type="curve" smooth="yes"/>
      <point x="286" y="661" type="line"/>
    </contour>
  </outline>
</glyph>
<glyph name="ring" format="1">
  <advance width="705"/>
  <unicode hex="02DA"/>
  <outline>
    <contour>
      <point x="557" y="604" type="line"/>
      <point x="557" y="657"/>
      <point x="531" y="683"/>
      <point x="478" y="683" type="curve" smooth="yes"/>
      <point x="227" y="683" type="line" smooth="yes"/>
      <point x="174" y="683"/>
      <point x="148" y="657"/>
      <point x="148" y="604" type="curve" smooth="yes"/>
      <point x="148" y="573" type="line" smooth="yes"/>
      <point x="148" y="520"/>
      <point x="174" y="494"/>
      <point x="227" y="494" type="curve" smooth="yes"/>
      <point x="478" y="494" type="line" smooth="yes"/>
      <point x="531" y="494"/>
      <point x="557" y="520"/>
      <point x="557" y="573" type="curve" smooth="yes"/>
    </contour>
    <contour>
      <point x="407" y="584" type="line"/>
      <point x="407" y="558"/>
      <point x="402" y="553"/>
      <point x="376" y="553" type="curve" smooth="yes"/>
      <point x="329" y="553" type="line" smooth="yes"/>
      <point x="303" y="553"/>
      <point x="298" y="558"/>
      <point x="298" y="584" type="curve" smooth="yes"/>
      <point x="298" y="593" type="line" smooth="yes"/>
      <point x="298" y="619"/>
      <point x="303" y="624"/>
      <point x="329" y="624" type="curve" smooth="yes"/>
      <point x="376" y="624" type="line" smooth="yes"/>
      <point x="402" y="624"/>
      <point x="407" y="619"/>
      <point x="407" y="593" type="curve" smooth="yes"/>
    </contour>
  </outline>
</glyph>
<glyph name="ogonek" format="1">
  <advance width="705"/>
  <unicode hex="02DB"/>
  <outline>
    <contour>
      <point x="253" y="-31" type="line"/>
      <point x="200" y="-31"/>
      <point x="174" y="-57"/>
      <point x="174" y="-110" type="curve" smooth="yes"/>
      <point x="174" y="-187" type="line" smooth="yes"/>
      <point x="174" y="-240"/>
      <point x="200" y="-266"/>
      <point x="253" y="-266" type="curve" smooth="yes"/>
      <point x="529" y="-266" type="line"/>
      <point x="529" y="-207" type="line"/>
      <point x="372" y="-207" type="line" smooth="yes"/>
      <point x="346" y="-207"/>
      <point x="341" y="-202"/>
      <point x="341" y="-176" type="curve" smooth="yes"/>
      <point x="341" y="-121" type="line" smooth="yes"/>
      <point x="341" y="-95"/>
      <point x="346" y="-90"/>
      <point x="372" y="-90" type="curve" smooth="yes"/>
      <point x="503" y="-90" type="line"/>
      <point x="503" y="-31" type="line"/>
    </contour>
    <contour>
      <point x="503" y="-36" type="line"/>
      <point x="503" y="15" type="line"/>
      <point x="263" y="15" type="line"/>
      <point x="263" y="-36" type="line"/>
    </contour>
  </outline>
</glyph>
<glyph name="pi" format="1">
  <advance width="822"/>
  <unicode hex="03C0"/>
  <outline>
    <contour>
      <point x="114" y="90" type="line"/>
      <point x="114" y="64"/>
      <point x="109" y="59"/>
      <point x="83" y="59" type="curve" smooth="yes"/>
      <point x="32" y="59" type="line"/>
      <point x="32" y="0" type="line"/>
      <point x="275" y="0" type="line" smooth="yes"/>
      <point x="328" y="0"/>
      <point x="354" y="26"/>
      <point x="354" y="79" type="curve" smooth="yes"/>
      <point x="354" y="445" type="line"/>
      <point x="114" y="445" type="line"/>
    </contour>
    <contour>
      <point x="467" y="445" type="line"/>
      <point x="467" y="0" type="line"/>
      <point x="707" y="0" type="line"/>
      <point x="707" y="445" type="line"/>
    </contour>
    <contour>
      <point x="802" y="485" type="line"/>
      <point x="19" y="485" type="line"/>
      <point x="19" y="426" type="line"/>
      <point x="802" y="426" type="line"/>
    </contour>
  </outline>
</glyph>
<glyph name="dvCandrabindu" format="1">
  <advance width="0"/>
  <unicode hex="0901"/>
  <outline>
    <contour>
      <point x="-55" y="622" type="move" name="_abvm.candra"/>
    </contour>
    <contour>
      <point x="-435" y="685" type="curve"/>
      <point x="61" y="685" type="line" smooth="yes"/>
      <point x="117" y="685"/>
      <point x="130" y="715"/>
      <point x="130" y="763" type="curve" smooth="yes"/>
      <point x="130" y="852" type="line"/>
      <point x="-81" y="852" type="line"/>
      <point x="-81" y="777" type="line" smooth="yes"/>
      <point x="-81" y="753"/>
      <point x="-88" y="744"/>
      <point x="-114" y="744" type="curve" smooth="yes"/>
      <point x="-260" y="744" type="line" smooth="yes"/>
      <point x="-286" y="744"/>
      <point x="-294" y="753"/>
      <point x="-294" y="777" type="curve" smooth="yes"/>
      <point x="-294" y="852" type="line"/>
      <point x="-505" y="852" type="line"/>
      <point x="-505" y="763" type="line" smooth="yes"/>
      <point x="-505" y="715"/>
      <point x="-492" y="685"/>
    </contour>
    <contour>
      <point x="-246" y="815" type="line"/>
      <point x="-128" y="815" type="line"/>
      <point x="-128" y="917" type="line"/>
      <point x="-246" y="917" type="line"/>
    </contour>
  </outline>
</glyph>
<glyph name="dvVisarga" format="1">
  <advance width="403"/>
  <unicode hex="0903"/>
  <outline>
    <contour>
      <point x="120" y="396" type="line"/>
      <point x="363" y="396" type="line"/>
      <point x="363" y="588" type="line"/>
      <point x="120" y="588" type="line"/>
    </contour>
    <contour>
      <point x="120" y="35" type="line"/>
      <point x="363" y="35" type="line"/>
      <point x="363" y="226" type="line"/>
      <point x="120" y="226" type="line"/>
    </contour>
  </outline>
</glyph>
<glyph name="dvAA" format="1">
  <advance width="1462"/>
  <unicode hex="0906"/>
  <outline>
    <contour>
      <point x="1220" y="622" type="move" name="abvm.candra"/>
    </contour>
    <contour>
      <point x="1220" y="622" type="move" name="abvm.bindu"/>
    </contour>
    <component base="dvmAA" xOffset="1088"/>
    <component base="dvA"/>
  </outline>
</glyph>
<glyph name="dvI" format="1">
  <advance width="723"/>
  <unicode hex="0907"/>
  <outline>
    <contour>
      <point x="495" y="622" type="move" name="abvm.candra"/>
    </contour>
    <contour>
      <point x="495" y="622" type="move" name="abvm.bindu"/>
    </contour>
    <contour>
      <point x="743" y="563" type="line"/>
      <point x="743" y="622" type="line"/>
      <point x="-20" y="622" type="line"/>
      <point x="-20" y="563" type="line"/>
    </contour>
    <contour>
      <point x="323" y="190" type="line"/>
      <point x="45" y="190" type="line"/>
      <point x="45" y="0" type="line"/>
      <point x="323" y="0" type="line"/>
    </contour>
    <contour>
      <point x="447" y="485" type="line"/>
      <point x="116" y="485" type="line" smooth="yes"/>
      <point x="63" y="485"/>
      <point x="41" y="463"/>
      <point x="41" y="410" type="curve" smooth="yes"/>
      <point x="41" y="340" type="line" smooth="yes"/>
      <point x="41" y="287"/>
      <point x="63" y="265"/>
      <point x="116" y="265" type="curve" smooth="yes"/>
      <point x="374" y="265" type="line"/>
      <point x="374" y="324" type="line"/>
      <point x="339" y="324" type="line" smooth="yes"/>
      <point x="313" y="324"/>
      <point x="305" y="332"/>
      <point x="305" y="358" type="curve" smooth="yes"/>
      <point x="305" y="392" type="line" smooth="yes"/>
      <point x="305" y="418"/>
      <point x="313" y="426"/>
      <point x="339" y="426" type="curve" smooth="yes"/>
      <point x="447" y="426" type="line"/>
    </contour>
    <contour>
      <point x="284" y="78" type="line"/>
      <point x="608" y="78" type="line" smooth="yes"/>
      <point x="661" y="78"/>
      <point x="683" y="100"/>
      <point x="683" y="153" type="curve" smooth="yes"/>
      <point x="683" y="249" type="line" smooth="yes"/>
      <point x="683" y="302"/>
      <point x="661" y="324"/>
      <point x="608" y="324" type="curve" smooth="yes"/>
      <point x="360" y="324" type="line"/>
      <point x="360" y="265" type="line"/>
      <point x="385" y="265" type="line" smooth="yes"/>
      <point x="411" y="265"/>
      <point x="419" y="257"/>
      <point x="419" y="231" type="curve" smooth="yes"/>
      <point x="419" y="171" type="line" smooth="yes"/>
      <point x="419" y="145"/>
      <point x="411" y="137"/>
      <point x="385" y="137" type="curve" smooth="yes"/>
      <point x="284" y="137" type="line"/>
    </contour>
    <contour>
      <point x="659" y="426" type="line"/>
      <point x="659" y="597" type="line"/>
      <point x="395" y="597" type="line"/>
      <point x="395" y="426" type="line"/>
    </contour>
  </outline>
</glyph>
<glyph name="dvvL" format="1">
  <advance width="1099"/>
  <unicode hex="090C"/>
  <outline>
    <contour>
      <point x="678" y="177" type="line"/>
      <point x="678" y="393" type="line" smooth="yes"/>
      <point x="678" y="417"/>
      <point x="686" y="426"/>
      <point x="712" y="426" type="curve" smooth="yes"/>
      <point x="806" y="426" type="line"/>
      <point x="806" y="485" type="line"/>
      <point x="622" y="485" type="line" smooth="yes"/>
      <point x="569" y="485"/>
      <point x="548" y="463"/>
      <point x="548" y="410" type="curve"/>
      <point x="543" y="410" type="line"/>
      <point x="543" y="463"/>
      <point x="522" y="485"/>
      <point x="469" y="485" type="curve" smooth="yes"/>
      <point x="120" y="485" type="line" smooth="yes"/>
      <point x="67" y="485"/>
      <point x="45" y="463"/>
      <point x="45" y="410" type="curve" smooth="yes"/>
      <point x="45" y="75" type="line" smooth="yes"/>
      <point x="45" y="22"/>
      <point x="67" y="0"/>
      <point x="120" y="0" type="curve" smooth="yes"/>
      <point x="461" y="0" type="line"/>
      <point x="461" y="59" type="line"/>
      <point x="343" y="59" type="line" smooth="yes"/>
      <point x="317" y="59"/>
      <point x="309" y="68"/>
      <point x="309" y="92" type="curve" smooth="yes"/>
      <point x="309" y="393" type="line" smooth="yes"/>
      <point x="309" y="417"/>
      <point x="317" y="426"/>
      <point x="343" y="426" type="curve" smooth="yes"/>
      <point x="380" y="426" type="line" smooth="yes"/>
      <point x="406" y="426"/>
      <point x="414" y="417"/>
      <point x="414" y="393" type="curve" smooth="yes"/>
      <point x="414" y="177" type="line"/>
    </contour>
    <contour>
      <point x="1076" y="-119" type="line"/>
      <point x="936" y="-119" type="line" smooth="yes"/>
      <point x="910" y="-119"/>
      <point x="902" y="-110"/>
      <point x="902" y="-86" type="curve" smooth="yes"/>
      <point x="902" y="1" type="line" smooth="yes"/>
      <point x="902" y="25"/>
      <point x="910" y="34"/>
      <point x="936" y="34" type="curve" smooth="yes"/>
      <point x="1047" y="34" type="line"/>
      <point x="1047" y="93" type="line"/>
      <point x="729" y="93" type="line" smooth="yes"/>
      <point x="676" y="93"/>
      <point x="654" y="71"/>
      <point x="654" y="18" type="curve" smooth="yes"/>
      <point x="654" y="-103" type="line" smooth="yes"/>
      <point x="654" y="-156"/>
      <point x="676" y="-178"/>
      <point x="729" y="-178" type="curve" smooth="yes"/>
      <point x="1076" y="-178" type="line"/>
    </contour>
    <contour>
      <point x="783" y="93" type="line"/>
      <point x="1047" y="93" type="line"/>
      <point x="1047" y="602" type="line"/>
      <point x="783" y="602" type="line"/>
    </contour>
    <contour>
      <point x="-20" y="563" type="line"/>
      <point x="1119" y="563" type="line"/>
      <point x="1119" y="622" type="line"/>
      <point x="-20" y="622" type="line"/>
    </contour>
  </outline>
</glyph>
<glyph name="dvOcandra" format="1">
  <advance width="1462"/>
  <unicode hex="0911"/>
  <outline>
    <contour>
      <point x="1226" y="714" type="move" name="abvm.bindu"/>
    </contour>
    <component base="dvmEcandra" xOffset="1280"/>
    <component base="dvmAA" xOffset="1088"/>
    <component base="dvA"/>
  </outline>
</glyph>
<glyph name="dvO" format="1">
  <advance width="1462"/>
  <unicode hex="0913"/>
  <outline>
    <contour>
      <point x="1639" y="622" type="move" name="abvm.bindu"/>
    </contour>
    <component base="dvmE" xOffset="1463"/>
    <component base="dvmAA" xOffset="1088"/>
    <component base="dvA"/>
  </outline>
</glyph>
<glyph name="dvKHA" format="1">
  <advance width="1339"/>
  <unicode hex="0916"/>
  <outline>
    <contour>
      <point x="979" y="455" type="line"/>
      <point x="769" y="455" type="line" smooth="yes"/>
      <point x="716" y="455"/>
      <point x="694" y="433"/>
      <point x="694" y="380" type="curve" smooth="yes"/>
      <point x="694" y="195" type="line" smooth="yes"/>
      <point x="694" y="142"/>
      <point x="716" y="120"/>
      <point x="769" y="120" type="curve" smooth="yes"/>
      <point x="978" y="120" type="line"/>
      <point x="978" y="179" type="line"/>
      <point x="963" y="179" type="line" smooth="yes"/>
      <point x="937" y="179"/>
      <point x="929" y="188"/>
      <point x="929" y="212" type="curve" smooth="yes"/>
      <point x="929" y="363" type="line" smooth="yes"/>
      <point x="929" y="387"/>
      <point x="937" y="396"/>
      <point x="963" y="396" type="curve" smooth="yes"/>
      <point x="979" y="396" type="line"/>
    </contour>
    <contour>
      <point x="-20" y="563" type="line"/>
      <point x="1359" y="563" type="line"/>
      <point x="1359" y="622" type="line"/>
      <point x="-20" y="622" type="line"/>
    </contour>
    <contour>
      <point x="1024" y="0" type="line"/>
      <point x="1284" y="0" type="line"/>
      <point x="1284" y="592" type="line"/>
      <point x="1024" y="592" type="line"/>
    </contour>
    <contour>
      <point x="969" y="120" type="line"/>
      <point x="992" y="120" type="line" smooth="yes"/>
      <point x="1022" y="120"/>
      <point x="1035" y="131"/>
      <point x="1035" y="167" type="curve"/>
      <point x="1024" y="213" type="line"/>
      <point x="1024" y="187"/>
      <point x="1016" y="179"/>
      <point x="990" y="179" type="curve" smooth="yes"/>
      <point x="969" y="179" type="line"/>
    </contour>
    <contour>
      <point x="711" y="59" type="line"/>
      <point x="343" y="59" type="line" smooth="yes"/>
      <point x="317" y="59"/>
      <point x="309" y="68"/>
      <point x="309" y="92" type="curve" smooth="yes"/>
      <point x="309" y="431" type="line"/>
      <point x="45" y="431" type="line"/>
      <point x="45" y="75" type="line" smooth="yes"/>
      <point x="45" y="22"/>
      <point x="67" y="0"/>
      <point x="120" y="0" type="curve" smooth="yes"/>
      <point x="711" y="0" type="line"/>
    </contour>
    <contour>
      <point x="294" y="211" type="line"/>
      <point x="556" y="211" type="line" smooth="yes"/>
      <point x="609" y="211"/>
      <point x="631" y="233"/>
      <point x="631" y="286" type="curve" smooth="yes"/>
      <point x="631" y="595" type="line"/>
      <point x="371" y="595" type="line"/>
      <point x="371" y="303" type="line" smooth="yes"/>
      <point x="371" y="279"/>
      <point x="363" y="270"/>
      <point x="337" y="270" type="curve" smooth="yes"/>
      <point x="294" y="270" type="line"/>
    </contour>
  </outline>
</glyph>
<glyph name="dvGHA" format="1">
  <advance width="861"/>
  <unicode hex="0918"/>
  <outline>
    <contour>
      <point x="542" y="0" type="line"/>
      <point x="806" y="0" type="line"/>
      <point x="806" y="590" type="line"/>
      <point x="542" y="590" type="line"/>
    </contour>
    <contour>
      <point x="48" y="424" type="line"/>
      <point x="48" y="371"/>
      <point x="70" y="350"/>
      <point x="123" y="350" type="curve"/>
      <point x="123" y="345" type="line"/>
      <point x="70" y="345"/>
      <point x="48" y="324"/>
      <point x="48" y="271" type="curve" smooth="yes"/>
      <point x="48" y="153" type="line" smooth="yes"/>
      <point x="48" y="100"/>
      <point x="70" y="78"/>
      <point x="123" y="78" type="curve" smooth="yes"/>
      <point x="422" y="78" type="line"/>
      <point x="422" y="137" type="line"/>
      <point x="346" y="137" type="line" smooth="yes"/>
      <point x="320" y="137"/>
      <point x="312" y="146"/>
      <point x="312" y="170" type="curve" smooth="yes"/>
      <point x="312" y="285" type="line" smooth="yes"/>
      <point x="312" y="311"/>
      <point x="320" y="319"/>
      <point x="346" y="319" type="curve" smooth="yes"/>
      <point x="441" y="319" type="line"/>
      <point x="441" y="378" type="line"/>
      <point x="346" y="378" type="line" smooth="yes"/>
      <point x="320" y="378"/>
      <point x="312" y="386"/>
      <point x="312" y="412" type="curve" smooth="yes"/>
      <point x="312" y="529" type="line" smooth="yes"/>
      <point x="312" y="555"/>
      <point x="320" y="563"/>
      <point x="346" y="563" type="curve" smooth="yes"/>
      <point x="881" y="563" type="line"/>
      <point x="881" y="622" type="line"/>
      <point x="-20" y="622" type="line"/>
      <point x="-20" y="563" type="line"/>
      <point x="97" y="563" type="line"/>
      <point x="97" y="568" type="line"/>
      <point x="62" y="568"/>
      <point x="48" y="557"/>
      <point x="48" y="522" type="curve"/>
    </contour>
    <contour>
      <point x="414" y="78" type="line"/>
      <point x="510" y="78" type="line" smooth="yes"/>
      <point x="540" y="78"/>
      <point x="553" y="89"/>
      <point x="553" y="125" type="curve"/>
      <point x="542" y="171" type="line"/>
      <point x="542" y="145"/>
      <point x="534" y="137"/>
      <point x="508" y="137" type="curve" smooth="yes"/>
      <point x="414" y="137" type="line"/>
    </contour>
  </outline>
</glyph>
<glyph name="dvNGA" format="1">
  <advance width="851"/>
  <unicode hex="0919"/>
  <outline>
    <contour>
      <point x="635" y="622" type="move" name="abvm.candra"/>
    </contour>
    <contour>
      <point x="223" y="0" type="move" name="blwm.virama"/>
    </contour>
    <contour>
      <point x="224" y="-55" type="move" name="blwm.u"/>
    </contour>
    <contour>
      <point x="635" y="622" type="move" name="abvm.bindu"/>
    </contour>
    <contour>
      <point x="635" y="622" type="move" name="abvm.e"/>
    </contour>
    <contour>
      <point x="683" y="286" type="line"/>
      <point x="846" y="286" type="line"/>
      <point x="846" y="416" type="line"/>
      <point x="683" y="416" type="line"/>
    </contour>
    <contour>
      <point x="871" y="563" type="line"/>
      <point x="871" y="622" type="line"/>
      <point x="-20" y="622" type="line"/>
      <point x="-20" y="563" type="line"/>
    </contour>
    <contour>
      <point x="423" y="485" type="line"/>
      <point x="117" y="485" type="line" smooth="yes"/>
      <point x="64" y="485"/>
      <point x="42" y="463"/>
      <point x="42" y="410" type="curve" smooth="yes"/>
      <point x="42" y="319" type="line" smooth="yes"/>
      <point x="42" y="266"/>
      <point x="64" y="244"/>
      <point x="117" y="244" type="curve" smooth="yes"/>
      <point x="355" y="244" type="line"/>
      <point x="355" y="303" type="line"/>
      <point x="340" y="303" type="line" smooth="yes"/>
      <point x="314" y="303"/>
      <point x="306" y="311"/>
      <point x="306" y="337" type="curve" smooth="yes"/>
      <point x="306" y="392" type="line" smooth="yes"/>
      <point x="306" y="418"/>
      <point x="314" y="426"/>
      <point x="340" y="426" type="curve" smooth="yes"/>
      <point x="423" y="426" type="line"/>
    </contour>
    <contour>
      <point x="635" y="426" type="line"/>
      <point x="635" y="597" type="line"/>
      <point x="371" y="597" type="line"/>
      <point x="371" y="426" type="line"/>
    </contour>
    <contour>
      <point x="349" y="0" type="line"/>
      <point x="584" y="0" type="line" smooth="yes"/>
      <point x="637" y="0"/>
      <point x="659" y="22"/>
      <point x="659" y="75" type="curve" smooth="yes"/>
      <point x="659" y="228" type="line" smooth="yes"/>
      <point x="659" y="281"/>
      <point x="637" y="303"/>
      <point x="584" y="303" type="curve" smooth="yes"/>
      <point x="346" y="303" type="line"/>
      <point x="346" y="244" type="line"/>
      <point x="361" y="244" type="line" smooth="yes"/>
      <point x="387" y="244"/>
      <point x="395" y="236"/>
      <point x="395" y="210" type="curve" smooth="yes"/>
      <point x="395" y="93" type="line" smooth="yes"/>
      <point x="395" y="67"/>
      <point x="387" y="59"/>
      <point x="361" y="59" type="curve" smooth="yes"/>
      <point x="349" y="59" type="line"/>
    </contour>
    <contour>
      <point x="359" y="59" type="line"/>
      <point x="343" y="59" type="line" smooth="yes"/>
      <point x="317" y="59"/>
      <point x="309" y="68"/>
      <point x="309" y="92" type="curve" smooth="yes"/>
      <point x="309" y="160" type="line"/>
      <point x="45" y="160" type="line"/>
      <point x="45" y="75" type="line" smooth="yes"/>
      <point x="45" y="22"/>
      <point x="67" y="0"/>
      <point x="120" y="0" type="curve" smooth="yes"/>
      <point x="359" y="0" type="line"/>
    </contour>
  </outline>
</glyph>
<glyph name="dvJHA" format="1">
  <advance width="1105"/>
  <unicode hex="091D"/>
  <outline>
    <contour>
      <point x="786" y="0" type="line"/>
      <point x="1050" y="0" type="line"/>
      <point x="1050" y="595" type="line"/>
      <point x="786" y="595" type="line"/>
    </contour>
    <contour>
      <point x="1125" y="563" type="line"/>
      <point x="1125" y="622" type="line"/>
      <point x="-20" y="622" type="line"/>
      <point x="-20" y="563" type="line"/>
    </contour>
    <contour>
      <point x="662" y="426" type="line"/>
      <point x="662" y="597" type="line"/>
      <point x="398" y="597" type="line"/>
      <point x="398" y="426" type="line"/>
    </contour>
    <contour>
      <point x="456" y="485" type="line"/>
      <point x="125" y="485" type="line" smooth="yes"/>
      <point x="72" y="485"/>
      <point x="50" y="463"/>
      <point x="50" y="410" type="curve" smooth="yes"/>
      <point x="50" y="347" type="line" smooth="yes"/>
      <point x="50" y="294"/>
      <point x="72" y="272"/>
      <point x="125" y="272" type="curve" smooth="yes"/>
      <point x="359" y="272" type="line"/>
      <point x="359" y="331" type="line"/>
      <point x="348" y="331" type="line" smooth="yes"/>
      <point x="322" y="331"/>
      <point x="314" y="339"/>
      <point x="314" y="365" type="curve" smooth="yes"/>
      <point x="314" y="392" type="line" smooth="yes"/>
      <point x="314" y="418"/>
      <point x="322" y="426"/>
      <point x="348" y="426" type="curve" smooth="yes"/>
      <point x="456" y="426" type="line"/>
    </contour>
    <contour>
      <point x="528" y="272" type="line"/>
      <point x="957" y="272" type="line"/>
      <point x="957" y="331" type="line"/>
      <point x="528" y="331" type="line"/>
    </contour>
    <contour>
      <point x="318" y="190" type="line"/>
      <point x="45" y="190" type="line"/>
      <point x="45" y="0" type="line"/>
      <point x="318" y="0" type="line"/>
    </contour>
    <contour>
      <point x="274" y="78" type="line"/>
      <point x="587" y="78" type="line" smooth="yes"/>
      <point x="640" y="78"/>
      <point x="662" y="100"/>
      <point x="662" y="153" type="curve" smooth="yes"/>
      <point x="662" y="256" type="line" smooth="yes"/>
      <point x="662" y="309"/>
      <point x="640" y="331"/>
      <point x="587" y="331" type="curve" smooth="yes"/>
      <point x="354" y="331" type="line"/>
      <point x="354" y="272" type="line"/>
      <point x="364" y="272" type="line" smooth="yes"/>
      <point x="390" y="272"/>
      <point x="398" y="264"/>
      <point x="398" y="238" type="curve" smooth="yes"/>
      <point x="398" y="171" type="line" smooth="yes"/>
      <point x="398" y="145"/>
      <point x="390" y="137"/>
      <point x="364" y="137" type="curve" smooth="yes"/>
      <point x="274" y="137" type="line"/>
    </contour>
  </outline>
</glyph>
<glyph name="dvTTA" format="1">
  <advance width="714"/>
  <unicode hex="091F"/>
  <outline>
    <contour>
      <point x="644" y="622" type="move" name="abvm.candra"/>
    </contour>
    <contour>
      <point x="234" y="0" type="move" name="blwm.virama"/>
    </contour>
    <contour>
      <point x="235" y="-55" type="move" name="blwm.u"/>
    </contour>
    <contour>
      <point x="644" y="622" type="move" name="abvm.bindu"/>
    </contour>
    <contour>
      <point x="644" y="622" type="move" name="abvm.e"/>
    </contour>
    <contour>
      <point x="644" y="426" type="line"/>
      <point x="644" y="604" type="line"/>
      <point x="380" y="604" type="line"/>
      <point x="380" y="426" type="line"/>
    </contour>
    <contour>
      <point x="-20" y="563" type="line"/>
      <point x="734" y="563" type="line"/>
      <point x="734" y="622" type="line"/>
      <point x="-20" y="622" type="line"/>
    </contour>
    <contour>
      <point x="410" y="244" type="line"/>
      <point x="410" y="92" type="line" smooth="yes"/>
      <point x="410" y="68"/>
      <point x="402" y="59"/>
      <point x="376" y="59" type="curve" smooth="yes"/>
      <point x="356" y="59" type="line"/>
      <point x="356" y="0" type="line"/>
      <point x="599" y="0" type="line" smooth="yes"/>
      <point x="652" y="0"/>
      <point x="674" y="22"/>
      <point x="674" y="75" type="curve" smooth="yes"/>
      <point x="674" y="244" type="line"/>
    </contour>
    <contour>
      <point x="123" y="0" type="curve"/>
      <point x="368" y="0" type="line"/>
      <point x="368" y="59" type="line"/>
      <point x="346" y="59" type="line" smooth="yes"/>
      <point x="320" y="59"/>
      <point x="312" y="68"/>
      <point x="312" y="92" type="curve" smooth="yes"/>
      <point x="312" y="393" type="line" smooth="yes"/>
      <point x="312" y="417"/>
      <point x="320" y="426"/>
      <point x="346" y="426" type="curve" smooth="yes"/>
      <point x="574" y="426" type="line"/>
      <point x="574" y="485" type="line"/>
      <point x="123" y="485" type="line" smooth="yes"/>
      <point x="70" y="485"/>
      <point x="48" y="463"/>
      <point x="48" y="410" type="curve" smooth="yes"/>
      <point x="48" y="75" type="line" smooth="yes"/>
      <point x="48" y="22"/>
      <point x="70" y="0"/>
    </contour>
  </outline>
</glyph>
<glyph name="dvTTHA" format="1">
  <advance width="742"/>
  <unicode hex="0920"/>
  <outline>
    <contour>
      <point x="503" y="622" type="move" name="abvm.candra"/>
    </contour>
    <contour>
      <point x="244" y="0" type="move" name="blwm.virama"/>
    </contour>
    <contour>
      <point x="244" y="-55" type="move" name="blwm.u"/>
    </contour>
    <contour>
      <point x="503" y="622" type="move" name="abvm.bindu"/>
    </contour>
    <contour>
      <point x="503" y="622" type="move" name="abvm.e"/>
    </contour>
    <contour>
      <point x="-20" y="563" type="line"/>
      <point x="762" y="563" type="line"/>
      <point x="762" y="622" type="line"/>
      <point x="-20" y="622" type="line"/>
    </contour>
    <contour>
      <point x="239" y="447" type="line"/>
      <point x="503" y="447" type="line"/>
      <point x="503" y="583" type="line"/>
      <point x="239" y="583" type="line"/>
    </contour>
    <contour>
      <point x="619" y="0" type="line"/>
      <point x="672" y="0"/>
      <point x="694" y="22"/>
      <point x="694" y="75" type="curve" smooth="yes"/>
      <point x="694" y="410" type="line" smooth="yes"/>
      <point x="694" y="463"/>
      <point x="672" y="485"/>
      <point x="619" y="485" type="curve" smooth="yes"/>
      <point x="358" y="485" type="line"/>
      <point x="358" y="426" type="line"/>
      <point x="406" y="426" type="line" smooth="yes"/>
      <point x="432" y="426"/>
      <point x="440" y="417"/>
      <point x="440" y="393" type="curve" smooth="yes"/>
      <point x="440" y="92" type="line" smooth="yes"/>
      <point x="440" y="68"/>
      <point x="432" y="59"/>
      <point x="406" y="59" type="curve" smooth="yes"/>
      <point x="364" y="59" type="line"/>
      <point x="364" y="0" type="line"/>
    </contour>
    <contour>
      <point x="123" y="0" type="curve"/>
      <point x="378" y="0" type="line"/>
      <point x="378" y="59" type="line"/>
      <point x="336" y="59" type="line" smooth="yes"/>
      <point x="310" y="59"/>
      <point x="302" y="68"/>
      <point x="302" y="92" type="curve" smooth="yes"/>
      <point x="302" y="393" type="line" smooth="yes"/>
      <point x="302" y="417"/>
      <point x="310" y="426"/>
      <point x="336" y="426" type="curve" smooth="yes"/>
      <point x="384" y="426" type="line"/>
      <point x="384" y="485" type="line"/>
      <point x="123" y="485" type="line" smooth="yes"/>
      <point x="70" y="485"/>
      <point x="48" y="463"/>
      <point x="48" y="410" type="curve" smooth="yes"/>
      <point x="48" y="75" type="line" smooth="yes"/>
      <point x="48" y="22"/>
      <point x="70" y="0"/>
    </contour>
  </outline>
</glyph>
<glyph name="dvPA" format="1">
  <advance width="736"/>
  <unicode hex="092A"/>
  <outline>
    <contour>
      <point x="417" y="0" type="line"/>
      <point x="681" y="0" type="line"/>
      <point x="681" y="598" type="line"/>
      <point x="417" y="598" type="line"/>
    </contour>
    <contour>
      <point x="-20" y="563" type="line"/>
      <point x="756" y="563" type="line"/>
      <point x="756" y="622" type="line"/>
      <point x="-20" y="622" type="line"/>
    </contour>
    <contour>
      <point x="48" y="596" type="line"/>
      <point x="48" y="153" type="line" smooth="yes"/>
      <point x="48" y="100"/>
      <point x="70" y="78"/>
      <point x="123" y="78" type="curve" smooth="yes"/>
      <point x="362" y="78" type="line"/>
      <point x="362" y="137" type="line"/>
      <point x="336" y="137" type="line" smooth="yes"/>
      <point x="310" y="137"/>
      <point x="302" y="146"/>
      <point x="302" y="170" type="curve" smooth="yes"/>
      <point x="302" y="596" type="line"/>
    </contour>
    <contour>
      <point x="352" y="78" type="line"/>
      <point x="385" y="78" type="line" smooth="yes"/>
      <point x="415" y="78"/>
      <point x="428" y="89"/>
      <point x="428" y="125" type="curve"/>
      <point x="417" y="171" type="line"/>
      <point x="417" y="145"/>
      <point x="409" y="137"/>
      <point x="383" y="137" type="curve" smooth="yes"/>
      <point x="352" y="137" type="line"/>
    </contour>
  </outline>
</glyph>
<glyph name="dvPHA" format="1">
  <advance width="1090"/>
  <unicode hex="092B"/>
  <outline>
    <contour>
      <point x="681" y="622" type="move" name="abvm.candra"/>
    </contour>
    <contour>
      <point x="417" y="0" type="move" name="blwm.virama"/>
    </contour>
    <contour>
      <point x="417" y="0" type="move" name="blwm.u"/>
    </contour>
    <contour>
      <point x="681" y="622" type="move" name="abvm.bindu"/>
    </contour>
    <contour>
      <point x="681" y="622" type="move" name="abvm.e"/>
    </contour>
    <contour>
      <point x="722" y="78" type="line"/>
      <point x="970" y="78" type="line" smooth="yes"/>
      <point x="1023" y="78"/>
      <point x="1045" y="100"/>
      <point x="1045" y="153" type="curve" smooth="yes"/>
      <point x="1045" y="410" type="line" smooth="yes"/>
      <point x="1045" y="463"/>
      <point x="1023" y="485"/>
      <point x="970" y="485" type="curve" smooth="yes"/>
      <point x="735" y="485" type="line"/>
      <point x="735" y="426" type="line"/>
      <point x="747" y="426" type="line" smooth="yes"/>
      <point x="773" y="426"/>
      <point x="781" y="417"/>
      <point x="781" y="393" type="curve" smooth="yes"/>
      <point x="781" y="170" type="line" smooth="yes"/>
      <point x="781" y="146"/>
      <point x="773" y="137"/>
      <point x="747" y="137" type="curve" smooth="yes"/>
      <point x="722" y="137" type="line"/>
    </contour>
    <contour>
      <point x="743" y="485" type="line"/>
      <point x="713" y="485" type="line" smooth="yes"/>
      <point x="683" y="485"/>
      <point x="670" y="474"/>
      <point x="670" y="438" type="curve"/>
      <point x="681" y="392" type="line"/>
      <point x="681" y="418"/>
      <point x="689" y="426"/>
      <point x="715" y="426" type="curve" smooth="yes"/>
      <point x="743" y="426" type="line"/>
    </contour>
    <contour>
      <point x="417" y="0" type="line"/>
      <point x="681" y="0" type="line"/>
      <point x="681" y="598" type="line"/>
      <point x="417" y="598" type="line"/>
    </contour>
    <contour>
      <point x="-20" y="563" type="line"/>
      <point x="1110" y="563" type="line"/>
      <point x="1110" y="622" type="line"/>
      <point x="-20" y="622" type="line"/>
    </contour>
    <contour>
      <point x="48" y="596" type="line"/>
      <point x="48" y="153" type="line" smooth="yes"/>
      <point x="48" y="100"/>
      <point x="70" y="78"/>
      <point x="123" y="78" type="curve" smooth="yes"/>
      <point x="362" y="78" type="line"/>
      <point x="362" y="137" type="line"/>
      <point x="336" y="137" type="line" smooth="yes"/>
      <point x="310" y="137"/>
      <point x="302" y="146"/>
      <point x="302" y="170" type="curve" smooth="yes"/>
      <point x="302" y="596" type="line"/>
    </contour>
    <contour>
      <point x="352" y="78" type="line"/>
      <point x="385" y="78" type="line" smooth="yes"/>
      <point x="415" y="78"/>
      <point x="428" y="89"/>
      <point x="428" y="125" type="curve"/>
      <point x="417" y="171" type="line"/>
      <point x="417" y="145"/>
      <point x="409" y="137"/>
      <point x="383" y="137" type="curve" smooth="yes"/>
      <point x="352" y="137" type="line"/>
    </contour>
  </outline>
</glyph>
<glyph name="dvBA" format="1">
  <advance width="812"/>
  <unicode hex="092C"/>
  <outline>
    <contour>
      <point x="493" y="595" type="line"/>
      <point x="493" y="323" type="line"/>
      <point x="493" y="233"/>
      <point x="503" y="195"/>
      <point x="503" y="195" type="curve"/>
      <point x="315" y="426" type="line"/>
      <point x="443" y="426" type="line"/>
      <point x="443" y="485" type="line"/>
      <point x="120" y="485" type="line" smooth="yes"/>
      <point x="67" y="485"/>
      <point x="45" y="463"/>
      <point x="45" y="410" type="curve" smooth="yes"/>
      <point x="45" y="153" type="line" smooth="yes"/>
      <point x="45" y="100"/>
      <point x="67" y="78"/>
      <point x="120" y="78" type="curve" smooth="yes"/>
      <point x="402" y="78" type="line"/>
      <point x="402" y="137" type="line"/>
      <point x="343" y="137" type="line" smooth="yes"/>
      <point x="317" y="137"/>
      <point x="309" y="146"/>
      <point x="309" y="170" type="curve" smooth="yes"/>
      <point x="309" y="257" type="line"/>
      <point x="309" y="323"/>
      <point x="301" y="372"/>
      <point x="301" y="372" type="curve"/>
      <point x="499" y="129" type="line"/>
      <point x="493" y="101" type="line"/>
      <point x="493" y="0" type="line"/>
      <point x="757" y="0" type="line"/>
      <point x="757" y="595" type="line"/>
    </contour>
    <contour>
      <point x="383" y="78" type="line"/>
      <point x="461" y="78" type="line" smooth="yes"/>
      <point x="491" y="78"/>
      <point x="504" y="89"/>
      <point x="504" y="125" type="curve"/>
      <point x="493" y="171" type="line"/>
      <point x="493" y="145"/>
      <point x="485" y="137"/>
      <point x="459" y="137" type="curve" smooth="yes"/>
      <point x="383" y="137" type="line"/>
    </contour>
    <contour>
      <point x="-20" y="563" type="line"/>
      <point x="832" y="563" type="line"/>
      <point x="832" y="622" type="line"/>
      <point x="-20" y="622" type="line"/>
    </contour>
  </outline>
</glyph>
<glyph name="dvRxA" format="1">
  <advance width="709"/>
  <unicode hex="0931"/>
  <outline>
    <contour>
      <point x="647" y="622" type="move" name="abvm.candra"/>
    </contour>
    <contour>
      <point x="224" y="0" type="move" name="blwm.virama"/>
    </contour>
    <contour>
      <point x="347" y="-183" type="move" name="blwm.u"/>
    </contour>
    <contour>
      <point x="647" y="622" type="move" name="abvm.bindu"/>
    </contour>
    <contour>
      <point x="647" y="622" type="move" name="abvm.e"/>
    </contour>
    <component base="dvNukta" xOffset="443"/>
    <component base="dvRA"/>
  </outline>
</glyph>
<glyph name="dvLLA" format="1">
  <advance width="1038"/>
  <unicode hex="0933"/>
  <outline>
    <contour>
      <point x="880" y="622" type="move" name="abvm.candra"/>
    </contour>
    <contour>
      <point x="626" y="78" type="move" name="blwm.virama"/>
    </contour>
    <contour>
      <point x="626" y="23" type="move" name="blwm.u"/>
    </contour>
    <contour>
      <point x="880" y="622" type="move" name="abvm.bindu"/>
    </contour>
    <contour>
      <point x="880" y="622" type="move" name="abvm.e"/>
    </contour>
    <contour>
      <point x="-20" y="563" type="line"/>
      <point x="1058" y="563" type="line"/>
      <point x="1058" y="622" type="line"/>
      <point x="-20" y="622" type="line"/>
    </contour>
    <contour>
      <point x="626" y="177" type="line"/>
      <point x="626" y="393" type="line" smooth="yes"/>
      <point x="626" y="417"/>
      <point x="634" y="426"/>
      <point x="660" y="426" type="curve" smooth="yes"/>
      <point x="754" y="426" type="line"/>
      <point x="754" y="485" type="line"/>
      <point x="595" y="485" type="line" smooth="yes"/>
      <point x="542" y="485"/>
      <point x="521" y="463"/>
      <point x="521" y="410" type="curve"/>
      <point x="516" y="410" type="line"/>
      <point x="516" y="463"/>
      <point x="495" y="485"/>
      <point x="442" y="485" type="curve" smooth="yes"/>
      <point x="356" y="485" type="line"/>
      <point x="356" y="426" type="line"/>
      <point x="378" y="426" type="line" smooth="yes"/>
      <point x="404" y="426"/>
      <point x="412" y="417"/>
      <point x="412" y="393" type="curve" smooth="yes"/>
      <point x="412" y="177" type="line"/>
    </contour>
    <contour>
      <point x="359" y="485" type="line"/>
      <point x="115" y="485" type="line" smooth="yes"/>
      <point x="62" y="485"/>
      <point x="40" y="463"/>
      <point x="40" y="410" type="curve" smooth="yes"/>
      <point x="40" y="153" type="line" smooth="yes"/>
      <point x="40" y="100"/>
      <point x="62" y="78"/>
      <point x="115" y="78" type="curve" smooth="yes"/>
      <point x="342" y="78" type="line"/>
      <point x="342" y="137" type="line"/>
      <point x="323" y="137" type="line" smooth="yes"/>
      <point x="297" y="137"/>
      <point x="289" y="146"/>
      <point x="289" y="170" type="curve" smooth="yes"/>
      <point x="289" y="393" type="line" smooth="yes"/>
      <point x="289" y="417"/>
      <point x="297" y="426"/>
      <point x="323" y="426" type="curve" smooth="yes"/>
      <point x="359" y="426" type="line"/>
    </contour>
    <contour>
      <point x="679" y="426" type="line"/>
      <point x="715" y="426" type="line" smooth="yes"/>
      <point x="741" y="426"/>
      <point x="749" y="417"/>
      <point x="749" y="393" type="curve" smooth="yes"/>
      <point x="749" y="170" type="line" smooth="yes"/>
      <point x="749" y="146"/>
      <point x="741" y="137"/>
      <point x="715" y="137" type="curve" smooth="yes"/>
      <point x="686" y="137" type="line"/>
      <point x="686" y="78" type="line"/>
      <point x="923" y="78" type="line" smooth="yes"/>
      <point x="976" y="78"/>
      <point x="998" y="100"/>
      <point x="998" y="153" type="curve" smooth="yes"/>
      <point x="998" y="410" type="line" smooth="yes"/>
      <point x="998" y="463"/>
      <point x="976" y="485"/>
      <point x="923" y="485" type="curve" smooth="yes"/>
      <point x="679" y="485" type="line"/>
    </contour>
    <contour>
      <point x="616" y="459" type="line"/>
      <point x="880" y="459" type="line"/>
      <point x="880" y="608" type="line"/>
      <point x="616" y="608" type="line"/>
    </contour>
    <contour>
      <point x="412" y="386" type="line"/>
      <point x="412" y="170" type="line" smooth="yes"/>
      <point x="412" y="146"/>
      <point x="404" y="137"/>
      <point x="378" y="137" type="curve" smooth="yes"/>
      <point x="284" y="137" type="line"/>
      <point x="284" y="78" type="line"/>
      <point x="442" y="78" type="line" smooth="yes"/>
      <point x="495" y="78"/>
      <point x="516" y="100"/>
      <point x="516" y="153" type="curve"/>
      <point x="521" y="153" type="line"/>
      <point x="521" y="100"/>
      <point x="542" y="78"/>
      <point x="595" y="78" type="curve" smooth="yes"/>
      <point x="692" y="78" type="line"/>
      <point x="692" y="137" type="line"/>
      <point x="660" y="137" type="line" smooth="yes"/>
      <point x="634" y="137"/>
      <point x="626" y="146"/>
      <point x="626" y="170" type="curve" smooth="yes"/>
      <point x="626" y="386" type="line"/>
    </contour>
  </outline>
</glyph>
<glyph name="dvSHA" format="1">
  <advance width="1092"/>
  <unicode hex="0936"/>
  <outline>
    <contour>
      <point x="360" y="563" type="line"/>
      <point x="374" y="563" type="line" smooth="yes"/>
      <point x="400" y="563"/>
      <point x="408" y="554"/>
      <point x="408" y="530" type="curve" smooth="yes"/>
      <point x="408" y="357" type="line" smooth="yes"/>
      <point x="408" y="333"/>
      <point x="400" y="324"/>
      <point x="374" y="324" type="curve" smooth="yes"/>
      <point x="240" y="324" type="line"/>
      <point x="240" y="265" type="line"/>
      <point x="597" y="265" type="line" smooth="yes"/>
      <point x="650" y="265"/>
      <point x="672" y="287"/>
      <point x="672" y="340" type="curve" smooth="yes"/>
      <point x="672" y="547" type="line" smooth="yes"/>
      <point x="672" y="600"/>
      <point x="650" y="622"/>
      <point x="597" y="622" type="curve" smooth="yes"/>
      <point x="360" y="622" type="line"/>
    </contour>
    <contour>
      <point x="773" y="0" type="line"/>
      <point x="1037" y="0" type="line"/>
      <point x="1037" y="592" type="line"/>
      <point x="773" y="592" type="line"/>
    </contour>
    <contour>
      <point x="773" y="563" type="line"/>
      <point x="1112" y="563" type="line"/>
      <point x="1112" y="622" type="line"/>
      <point x="773" y="622" type="line"/>
    </contour>
    <contour>
      <point x="360" y="59" type="line"/>
      <point x="346" y="59" type="line" smooth="yes"/>
      <point x="320" y="59"/>
      <point x="312" y="68"/>
      <point x="312" y="92" type="curve" smooth="yes"/>
      <point x="312" y="373" type="line"/>
      <point x="48" y="373" type="line"/>
      <point x="48" y="75" type="line" smooth="yes"/>
      <point x="48" y="22"/>
      <point x="70" y="0"/>
      <point x="123" y="0" type="curve" smooth="yes"/>
      <point x="360" y="0" type="line"/>
    </contour>
    <contour>
      <point x="352" y="0" type="line"/>
      <point x="589" y="0" type="line" smooth="yes"/>
      <point x="642" y="0"/>
      <point x="664" y="22"/>
      <point x="664" y="75" type="curve" smooth="yes"/>
      <point x="664" y="201" type="line"/>
      <point x="400" y="201" type="line"/>
      <point x="400" y="92" type="line" smooth="yes"/>
      <point x="400" y="68"/>
      <point x="392" y="59"/>
      <point x="366" y="59" type="curve" smooth="yes"/>
      <point x="352" y="59" type="line"/>
    </contour>
    <contour>
      <point x="365" y="622" type="line"/>
      <point x="128" y="622" type="line" smooth="yes"/>
      <point x="75" y="622"/>
      <point x="53" y="600"/>
      <point x="53" y="547" type="curve" smooth="yes"/>
      <point x="53" y="447" type="line"/>
      <point x="317" y="447" type="line"/>
      <point x="317" y="530" type="line" smooth="yes"/>
      <point x="317" y="554"/>
      <point x="325" y="563"/>
      <point x="351" y="563" type="curve" smooth="yes"/>
      <point x="365" y="563" type="line"/>
    </contour>
  </outline>
</glyph>
<glyph name="dvHA" format="1">
  <advance width="735"/>
  <unicode hex="0939"/>
  <outline>
    <contour>
      <point x="671" y="622" type="move" name="abvm.candra"/>
    </contour>
    <contour>
      <point x="254" y="0" type="move" name="blwm.virama"/>
    </contour>
    <contour>
      <point x="254" y="-55" type="move" name="blwm.u"/>
    </contour>
    <contour>
      <point x="671" y="622" type="move" name="abvm.bindu"/>
    </contour>
    <contour>
      <point x="671" y="622" type="move" name="abvm.e"/>
    </contour>
    <contour>
      <point x="755" y="563" type="line"/>
      <point x="755" y="622" type="line"/>
      <point x="-20" y="622" type="line"/>
      <point x="-20" y="563" type="line"/>
    </contour>
    <contour>
      <point x="407" y="584" type="line"/>
      <point x="407" y="446" type="line"/>
      <point x="671" y="446" type="line"/>
      <point x="671" y="584" type="line"/>
    </contour>
    <contour>
      <point x="399" y="265" type="line"/>
      <point x="409" y="265" type="line" smooth="yes"/>
      <point x="435" y="265"/>
      <point x="443" y="255"/>
      <point x="443" y="231" type="curve" smooth="yes"/>
      <point x="443" y="142" type="line"/>
      <point x="690" y="142" type="line"/>
      <point x="690" y="240" type="line" smooth="yes"/>
      <point x="690" y="298"/>
      <point x="658" y="324"/>
      <point x="597" y="324" type="curve" smooth="yes"/>
      <point x="399" y="324" type="line"/>
    </contour>
    <contour>
      <point x="671" y="485" type="line"/>
      <point x="123" y="485" type="line" smooth="yes"/>
      <point x="70" y="485"/>
      <point x="48" y="463"/>
      <point x="48" y="410" type="curve" smooth="yes"/>
      <point x="48" y="363" type="line" smooth="yes"/>
      <point x="48" y="310"/>
      <point x="70" y="289"/>
      <point x="123" y="289" type="curve"/>
      <point x="123" y="284" type="line"/>
      <point x="70" y="284"/>
      <point x="48" y="263"/>
      <point x="48" y="210" type="curve" smooth="yes"/>
      <point x="48" y="75" type="line" smooth="yes"/>
      <point x="48" y="22"/>
      <point x="70" y="0"/>
      <point x="123" y="0" type="curve" smooth="yes"/>
      <point x="688" y="0" type="line"/>
      <point x="688" y="59" type="line"/>
      <point x="346" y="59" type="line" smooth="yes"/>
      <point x="320" y="59"/>
      <point x="312" y="68"/>
      <point x="312" y="92" type="curve" smooth="yes"/>
      <point x="312" y="231" type="line" smooth="yes"/>
      <point x="312" y="257"/>
      <point x="320" y="265"/>
      <point x="346" y="265" type="curve" smooth="yes"/>
      <point x="404" y="265" type="line"/>
      <point x="404" y="324" type="line"/>
      <point x="346" y="324" type="line" smooth="yes"/>
      <point x="320" y="324"/>
      <point x="312" y="332"/>
      <point x="312" y="358" type="curve" smooth="yes"/>
      <point x="312" y="393" type="line" smooth="yes"/>
      <point x="312" y="417"/>
      <point x="320" y="426"/>
      <point x="346" y="426" type="curve" smooth="yes"/>
      <point x="671" y="426" type="line"/>
    </contour>
  </outline>
</glyph>
<glyph name="dvAvagraha" format="1">
  <advance width="708"/>
  <unicode hex="093D"/>
  <outline>
    <contour>
      <point x="663" y="622" type="line"/>
      <point x="121" y="622" type="line" smooth="yes"/>
      <point x="68" y="622"/>
      <point x="46" y="600"/>
      <point x="46" y="547" type="curve" smooth="yes"/>
      <point x="46" y="398" type="line" smooth="yes"/>
      <point x="46" y="345"/>
      <point x="68" y="323"/>
      <point x="121" y="323" type="curve" smooth="yes"/>
      <point x="359" y="323" type="line"/>
      <point x="359" y="382" type="line"/>
      <point x="344" y="382" type="line" smooth="yes"/>
      <point x="318" y="382"/>
      <point x="310" y="390"/>
      <point x="310" y="416" type="curve" smooth="yes"/>
      <point x="310" y="529" type="line" smooth="yes"/>
      <point x="310" y="555"/>
      <point x="318" y="563"/>
      <point x="344" y="563" type="curve" smooth="yes"/>
      <point x="663" y="563" type="line"/>
    </contour>
    <contour>
      <point x="353" y="0" type="line"/>
      <point x="588" y="0" type="line" smooth="yes"/>
      <point x="641" y="0"/>
      <point x="663" y="22"/>
      <point x="663" y="75" type="curve" smooth="yes"/>
      <point x="663" y="307" type="line" smooth="yes"/>
      <point x="663" y="360"/>
      <point x="641" y="382"/>
      <point x="588" y="382" type="curve" smooth="yes"/>
      <point x="350" y="382" type="line"/>
      <point x="350" y="323" type="line"/>
      <point x="365" y="323" type="line" smooth="yes"/>
      <point x="391" y="323"/>
      <point x="399" y="315"/>
      <point x="399" y="289" type="curve" smooth="yes"/>
      <point x="399" y="93" type="line" smooth="yes"/>
      <point x="399" y="67"/>
      <point x="391" y="59"/>
      <point x="365" y="59" type="curve" smooth="yes"/>
      <point x="353" y="59" type="line"/>
    </contour>
    <contour>
      <point x="363" y="59" type="line"/>
      <point x="347" y="59" type="line" smooth="yes"/>
      <point x="321" y="59"/>
      <point x="313" y="68"/>
      <point x="313" y="92" type="curve" smooth="yes"/>
      <point x="313" y="167" type="line"/>
      <point x="49" y="167" type="line"/>
      <point x="49" y="75" type="line" smooth="yes"/>
      <point x="49" y="22"/>
      <point x="71" y="0"/>
      <point x="124" y="0" type="curve" smooth="yes"/>
      <point x="363" y="0" type="line"/>
    </contour>
  </outline>
</glyph>
<glyph name="dvmU" format="1">
  <advance width="0"/>
  <unicode hex="0941"/>
  <outline>
    <contour>
      <point x="-319" y="0" type="move" name="_blwm.u"/>
    </contour>
    <contour>
      <point x="-605" y="-90" type="line"/>
      <point x="-535" y="-206" type="line" smooth="yes"/>
      <point x="-499" y="-264"/>
      <point x="-479" y="-270"/>
      <point x="-409" y="-270" type="curve" smooth="yes"/>
      <point x="-250" y="-270" type="line"/>
      <point x="-250" y="-211" type="line"/>
      <point x="-273" y="-211" type="line" smooth="yes"/>
      <point x="-296" y="-211"/>
      <point x="-303" y="-203"/>
      <point x="-315" y="-183" type="curve" smooth="yes"/>
      <point x="-369" y="-90" type="line"/>
    </contour>
    <contour>
      <point x="-263" y="-270" type="line"/>
      <point x="-24" y="-270" type="line" smooth="yes"/>
      <point x="29" y="-270"/>
      <point x="51" y="-248"/>
      <point x="51" y="-195" type="curve" smooth="yes"/>
      <point x="51" y="-114" type="line"/>
      <point x="-198" y="-114" type="line"/>
      <point x="-198" y="-178" type="line" smooth="yes"/>
      <point x="-198" y="-202"/>
      <point x="-206" y="-211"/>
      <point x="-232" y="-211" type="curve" smooth="yes"/>
      <point x="-263" y="-211" type="line"/>
    </contour>
    <contour>
      <point x="-319" y="-59" type="line"/>
      <point x="-232" y="-59" type="line" smooth="yes"/>
      <point x="-206" y="-59"/>
      <point x="-198" y="-68"/>
      <point x="-198" y="-92" type="curve" smooth="yes"/>
      <point x="-198" y="-146" type="line"/>
      <point x="51" y="-146" type="line"/>
      <point x="51" y="-75" type="line" smooth="yes"/>
      <point x="51" y="-22"/>
      <point x="29" y="0"/>
      <point x="-24" y="0" type="curve" smooth="yes"/>
      <point x="-319" y="0" type="line"/>
    </contour>
  </outline>
</glyph>
<glyph name="dvmvR" format="1">
  <advance width="0"/>
  <unicode hex="0943"/>
  <outline>
    <contour>
      <point x="-319" y="0" type="move" name="_blwm.u"/>
    </contour>
    <contour>
      <point x="-145" y="-146" type="line"/>
      <point x="-145" y="-92" type="line" smooth="yes"/>
      <point x="-145" y="-68"/>
      <point x="-137" y="-59"/>
      <point x="-111" y="-59" type="curve" smooth="yes"/>
      <point x="-55" y="-59" type="line"/>
      <point x="-55" y="0" type="line"/>
      <point x="-319" y="0" type="line"/>
      <point x="-372" y="0"/>
      <point x="-394" y="-22"/>
      <point x="-394" y="-75" type="curve" smooth="yes"/>
      <point x="-394" y="-146" type="line"/>
    </contour>
    <contour>
      <point x="-394" y="-114" type="line"/>
      <point x="-394" y="-195" type="line" smooth="yes"/>
      <point x="-394" y="-248"/>
      <point x="-372" y="-270"/>
      <point x="-319" y="-270" type="curve" smooth="yes"/>
      <point x="-10" y="-270" type="line"/>
      <point x="-10" y="-211" type="line"/>
      <point x="-111" y="-211" type="line" smooth="yes"/>
      <point x="-137" y="-211"/>
      <point x="-145" y="-202"/>
      <point x="-145" y="-178" type="curve" smooth="yes"/>
      <point x="-145" y="-114" type="line"/>
    </contour>
  </outline>
</glyph>
<glyph name="dvmEcandra" format="1">
  <advance width="0"/>
  <unicode hex="0945"/>
  <outline>
    <contour>
      <point x="-55" y="622" type="move" name="_abvm.candra"/>
    </contour>
    <contour>
      <point x="-178" y="744" type="line"/>
      <point x="-224" y="744" type="line" smooth="yes"/>
      <point x="-250" y="744"/>
      <point x="-258" y="753"/>
      <point x="-258" y="777" type="curve" smooth="yes"/>
      <point x="-258" y="852" type="line"/>
      <point x="-512" y="852" type="line"/>
      <point x="-512" y="760" type="line" smooth="yes"/>
      <point x="-512" y="707"/>
      <point x="-490" y="685"/>
      <point x="-437" y="685" type="curve" smooth="yes"/>
      <point x="-178" y="685" type="line"/>
    </contour>
    <contour>
      <point x="-187" y="685" type="line"/>
      <point x="62" y="685" type="line" smooth="yes"/>
      <point x="115" y="685"/>
      <point x="137" y="707"/>
      <point x="137" y="760" type="curve" smooth="yes"/>
      <point x="137" y="852" type="line"/>
      <point x="-117" y="852" type="line"/>
      <point x="-117" y="777" type="line" smooth="yes"/>
      <point x="-117" y="753"/>
      <point x="-125" y="744"/>
      <point x="-151" y="744" type="curve" smooth="yes"/>
      <point x="-187" y="744" type="line"/>
    </contour>
  </outline>
</glyph>
<glyph name="dvmE" format="1">
  <advance width="0"/>
  <unicode hex="0947"/>
  <outline>
    <contour>
      <point x="-55" y="622" type="move" name="_abvm.e"/>
    </contour>
    <contour>
      <point x="-45" y="609" type="line"/>
      <point x="-250" y="852" type="line"/>
      <point x="-530" y="852" type="line"/>
      <point x="-425" y="734" type="line" smooth="yes"/>
      <point x="-350" y="649"/>
      <point x="-311" y="622"/>
      <point x="-280" y="609" type="curve"/>
    </contour>
  </outline>
</glyph>
<glyph name="dvmAI" format="1">
  <advance width="0"/>
  <unicode hex="0948"/>
  <outline>
    <contour>
      <point x="-55" y="622" type="move" name="_abvm.e"/>
    </contour>
    <contour>
      <point x="-188" y="622" type="line"/>
      <point x="-219" y="680"/>
      <point x="-254" y="734"/>
      <point x="-304" y="795" type="curve" smooth="yes"/>
      <point x="-350" y="852" type="line"/>
      <point x="-576" y="852" type="line"/>
      <point x="-441" y="725" type="line"/>
      <point x="-344" y="633"/>
      <point x="-304" y="610"/>
      <point x="-304" y="610" type="curve"/>
      <point x="-54" y="610" type="line"/>
      <point x="-94" y="852" type="line"/>
      <point x="-259" y="852" type="line"/>
      <point x="-241" y="796" type="line" smooth="yes"/>
      <point x="-222" y="736"/>
      <point x="-204" y="673"/>
      <point x="-179" y="622" type="curve"/>
    </contour>
  </outline>
</glyph>
<glyph name="dvDDxA" format="1">
  <advance width="699"/>
  <unicode hex="095C"/>
  <outline>
    <contour>
      <point x="635" y="622" type="move" name="abvm.candra"/>
    </contour>
    <contour>
      <point x="224" y="0" type="move" name="blwm.virama"/>
    </contour>
    <contour>
      <point x="224" y="-55" type="move" name="blwm.u"/>
    </contour>
    <contour>
      <point x="635" y="622" type="move" name="abvm.bindu"/>
    </contour>
    <contour>
      <point x="635" y="622" type="move" name="abvm.e"/>
    </contour>
    <component base="dvNukta" xOffset="615"/>
    <component base="dvDDA"/>
  </outline>
</glyph>
<glyph name="dvDDHxA" format="1">
  <advance width="737"/>
  <unicode hex="095D"/>
  <outline>
    <contour>
      <point x="646" y="622" type="move" name="abvm.candra"/>
    </contour>
    <contour>
      <point x="244" y="0" type="move" name="blwm.virama"/>
    </contour>
    <contour>
      <point x="244" y="-55" type="move" name="blwm.u"/>
    </contour>
    <contour>
      <point x="646" y="622" type="move" name="abvm.bindu"/>
    </contour>
    <contour>
      <point x="646" y="622" type="move" name="abvm.e"/>
    </contour>
    <component base="dvNukta" xOffset="635"/>
    <component base="dvDDHA"/>
  </outline>
</glyph>
<glyph name="dvZero" format="1">
  <advance width="742"/>
  <unicode hex="0966"/>
  <outline>
    <contour>
      <point x="682" y="78" type="curve"/>
      <point x="682" y="544" type="line" smooth="yes"/>
      <point x="682" y="592"/>
      <point x="669" y="622"/>
      <point x="613" y="622" type="curve" smooth="yes"/>
      <point x="352" y="622" type="line"/>
      <point x="352" y="563" type="line"/>
      <point x="395" y="563" type="line" smooth="yes"/>
      <point x="421" y="563"/>
      <point x="428" y="554"/>
      <point x="428" y="530" type="curve" smooth="yes"/>
      <point x="428" y="92" type="line" smooth="yes"/>
      <point x="428" y="68"/>
      <point x="421" y="59"/>
      <point x="395" y="59" type="curve" smooth="yes"/>
      <point x="248" y="59" type="line"/>
      <point x="248" y="0" type="line"/>
      <point x="613" y="0" type="line" smooth="yes"/>
      <point x="669" y="0"/>
      <point x="682" y="30"/>
    </contour>
    <contour>
      <point x="495" y="59" type="line"/>
      <point x="348" y="59" type="line" smooth="yes"/>
      <point x="322" y="59"/>
      <point x="314" y="68"/>
      <point x="314" y="92" type="curve" smooth="yes"/>
      <point x="314" y="530" type="line" smooth="yes"/>
      <point x="314" y="554"/>
      <point x="322" y="563"/>
      <point x="348" y="563" type="curve" smooth="yes"/>
      <point x="396" y="563" type="line"/>
      <point x="396" y="622" type="line"/>
      <point x="130" y="622" type="line" smooth="yes"/>
      <point x="73" y="622"/>
      <point x="60" y="592"/>
      <point x="60" y="544" type="curve" smooth="yes"/>
      <point x="60" y="78" type="line" smooth="yes"/>
      <point x="60" y="30"/>
      <point x="73" y="0"/>
      <point x="130" y="0" type="curve" smooth="yes"/>
      <point x="495" y="0" type="line"/>
    </contour>
  </outline>
</glyph>
<glyph name="dvThree" format="1">
  <advance width="733"/>
  <unicode hex="0969"/>
  <outline>
    <contour>
      <point x="380" y="59" type="curve"/>
      <point x="343" y="59" type="line" smooth="yes"/>
      <point x="317" y="59"/>
      <point x="309" y="68"/>
      <point x="309" y="92" type="curve" smooth="yes"/>
      <point x="309" y="187" type="line"/>
      <point x="45" y="187" type="line"/>
      <point x="45" y="78" type="line" smooth="yes"/>
      <point x="45" y="30"/>
      <point x="59" y="0"/>
      <point x="115" y="0" type="curve" smooth="yes"/>
      <point x="608" y="0" type="line" smooth="yes"/>
      <point x="664" y="0"/>
      <point x="678" y="36"/>
      <point x="678" y="83" type="curve" smooth="yes"/>
      <point x="678" y="232" type="line" smooth="yes"/>
      <point x="678" y="288"/>
      <point x="648" y="314"/>
      <point x="592" y="316" type="curve"/>
      <point x="592" y="319" type="line"/>
      <point x="648" y="321"/>
      <point x="678" y="347"/>
      <point x="678" y="402" type="curve" smooth="yes"/>
      <point x="678" y="539" type="line" smooth="yes"/>
      <point x="678" y="586"/>
      <point x="664" y="622"/>
      <point x="608" y="622" type="curve" smooth="yes"/>
      <point x="115" y="622" type="line" smooth="yes"/>
      <point x="59" y="622"/>
      <point x="45" y="592"/>
      <point x="45" y="544" type="curve" smooth="yes"/>
      <point x="45" y="437" type="line"/>
      <point x="309" y="437" type="line"/>
      <point x="309" y="530" type="line" smooth="yes"/>
      <point x="309" y="554"/>
      <point x="317" y="563"/>
      <point x="343" y="563" type="curve" smooth="yes"/>
      <point x="380" y="563" type="line" smooth="yes"/>
      <point x="406" y="563"/>
      <point x="414" y="554"/>
      <point x="414" y="530" type="curve" smooth="yes"/>
      <point x="414" y="374" type="line" smooth="yes"/>
      <point x="414" y="350"/>
      <point x="406" y="341"/>
      <point x="380" y="341" type="curve" smooth="yes"/>
      <point x="262" y="341" type="line"/>
      <point x="262" y="282" type="line"/>
      <point x="380" y="282" type="line" smooth="yes"/>
      <point x="406" y="282"/>
      <point x="414" y="272"/>
      <point x="414" y="249" type="curve" smooth="yes"/>
      <point x="414" y="92" type="line" smooth="yes"/>
      <point x="414" y="68"/>
      <point x="406" y="59"/>
    </contour>
  </outline>
</glyph>
<glyph name="dvFive" format="1">
  <advance width="732"/>
  <unicode hex="096B"/>
  <outline>
    <contour>
      <point x="322" y="332" type="line"/>
      <point x="322" y="563" type="line"/>
      <point x="672" y="563" type="line"/>
      <point x="672" y="622" type="line"/>
      <point x="58" y="622" type="line"/>
      <point x="58" y="332" type="line"/>
    </contour>
    <contour>
      <point x="251" y="333" type="line"/>
      <point x="384" y="333" type="line" smooth="yes"/>
      <point x="410" y="333"/>
      <point x="418" y="323"/>
      <point x="418" y="299" type="curve" smooth="yes"/>
      <point x="418" y="92" type="line" smooth="yes"/>
      <point x="418" y="68"/>
      <point x="410" y="59"/>
      <point x="384" y="59" type="curve" smooth="yes"/>
      <point x="358" y="59" type="line" smooth="yes"/>
      <point x="332" y="59"/>
      <point x="324" y="68"/>
      <point x="324" y="92" type="curve" smooth="yes"/>
      <point x="324" y="209" type="line"/>
      <point x="60" y="209" type="line"/>
      <point x="60" y="78" type="line" smooth="yes"/>
      <point x="60" y="30"/>
      <point x="74" y="0"/>
      <point x="130" y="0" type="curve" smooth="yes"/>
      <point x="612" y="0" type="line" smooth="yes"/>
      <point x="668" y="0"/>
      <point x="682" y="36"/>
      <point x="682" y="83" type="curve" smooth="yes"/>
      <point x="682" y="313" type="line" smooth="yes"/>
      <point x="682" y="361"/>
      <point x="668" y="391"/>
      <point x="612" y="391" type="curve" smooth="yes"/>
      <point x="251" y="391" type="line"/>
    </contour>
  </outline>
</glyph>
<glyph name="dvSix" format="1">
  <advance width="752"/>
  <unicode hex="096C"/>
  <outline>
    <contour>
      <point x="230" y="314" type="line"/>
      <point x="400" y="314" type="line" smooth="yes"/>
      <point x="426" y="314"/>
      <point x="434" y="305"/>
      <point x="434" y="281" type="curve" smooth="yes"/>
      <point x="434" y="92" type="line" smooth="yes"/>
      <point x="434" y="68"/>
      <point x="426" y="59"/>
      <point x="400" y="59" type="curve" smooth="yes"/>
      <point x="367" y="59" type="line"/>
      <point x="367" y="0" type="line"/>
      <point x="628" y="0" type="line" smooth="yes"/>
      <point x="684" y="0"/>
      <point x="697" y="30"/>
      <point x="697" y="78" type="curve" smooth="yes"/>
      <point x="697" y="295" type="line" smooth="yes"/>
      <point x="697" y="342"/>
      <point x="684" y="373"/>
      <point x="628" y="373" type="curve" smooth="yes"/>
      <point x="230" y="373" type="line"/>
    </contour>
    <contour>
      <point x="382" y="59" type="line"/>
      <point x="357" y="59" type="line" smooth="yes"/>
      <point x="331" y="59"/>
      <point x="323" y="68"/>
      <point x="323" y="92" type="curve" smooth="yes"/>
      <point x="323" y="530" type="line" smooth="yes"/>
      <point x="323" y="554"/>
      <point x="331" y="563"/>
      <point x="357" y="563" type="curve" smooth="yes"/>
      <point x="390" y="563" type="line"/>
      <point x="390" y="622" type="line"/>
      <point x="129" y="622" type="line" smooth="yes"/>
      <point x="73" y="622"/>
      <point x="60" y="591"/>
      <point x="60" y="544" type="curve" smooth="yes"/>
      <point x="60" y="78" type="line" smooth="yes"/>
      <point x="60" y="30"/>
      <point x="73" y="0"/>
      <point x="129" y="0" type="curve" smooth="yes"/>
      <point x="382" y="0" type="line"/>
    </contour>
    <contour>
      <point x="382" y="563" type="line"/>
      <point x="397" y="563" type="line" smooth="yes"/>
      <point x="423" y="563"/>
      <point x="431" y="554"/>
      <point x="431" y="530" type="curve" smooth="yes"/>
      <point x="431" y="450" type="line"/>
      <point x="695" y="450" type="line"/>
      <point x="695" y="544" type="line" smooth="yes"/>
      <point x="695" y="592"/>
      <point x="681" y="622"/>
      <point x="625" y="622" type="curve" smooth="yes"/>
      <point x="382" y="622" type="line"/>
    </contour>
  </outline>
</glyph>
<glyph name="dvNine" format="1">
  <advance width="752"/>
  <unicode hex="096F"/>
  <outline>
    <contour>
      <point x="523" y="303" type="line"/>
      <point x="352" y="303" type="line" smooth="yes"/>
      <point x="326" y="303"/>
      <point x="318" y="312"/>
      <point x="318" y="336" type="curve" smooth="yes"/>
      <point x="318" y="530" type="line" smooth="yes"/>
      <point x="318" y="554"/>
      <point x="326" y="563"/>
      <point x="352" y="563" type="curve" smooth="yes"/>
      <point x="378" y="563" type="line"/>
      <point x="378" y="622" type="line"/>
      <point x="124" y="622" type="line" smooth="yes"/>
      <point x="68" y="622"/>
      <point x="55" y="592"/>
      <point x="55" y="544" type="curve" smooth="yes"/>
      <point x="55" y="322" type="line" smooth="yes"/>
      <point x="55" y="275"/>
      <point x="68" y="245"/>
      <point x="124" y="245" type="curve" smooth="yes"/>
      <point x="523" y="245" type="line"/>
    </contour>
    <contour>
      <point x="362" y="563" type="line"/>
      <point x="395" y="563" type="line" smooth="yes"/>
      <point x="421" y="563"/>
      <point x="429" y="554"/>
      <point x="429" y="530" type="curve" smooth="yes"/>
      <point x="429" y="92" type="line" smooth="yes"/>
      <point x="429" y="68"/>
      <point x="421" y="59"/>
      <point x="395" y="59" type="curve" smooth="yes"/>
      <point x="364" y="59" type="line"/>
      <point x="364" y="0" type="line"/>
      <point x="623" y="0" type="line" smooth="yes"/>
      <point x="679" y="0"/>
      <point x="692" y="31"/>
      <point x="692" y="78" type="curve" smooth="yes"/>
      <point x="692" y="544" type="line" smooth="yes"/>
      <point x="692" y="592"/>
      <point x="679" y="622"/>
      <point x="623" y="622" type="curve" smooth="yes"/>
      <point x="362" y="622" type="line"/>
    </contour>
    <contour>
      <point x="371" y="59" type="line"/>
      <point x="355" y="59" type="line" smooth="yes"/>
      <point x="329" y="59"/>
      <point x="321" y="68"/>
      <point x="321" y="92" type="curve" smooth="yes"/>
      <point x="321" y="167" type="line"/>
      <point x="58" y="167" type="line"/>
      <point x="58" y="78" type="line" smooth="yes"/>
      <point x="58" y="30"/>
      <point x="71" y="0"/>
      <point x="127" y="0" type="curve" smooth="yes"/>
      <point x="371" y="0" type="line"/>
    </contour>
  </outline>
</glyph>
<glyph name="dvAbbreviationsign" format="1">
  <advance width="662"/>
  <unicode hex="0970"/>
  <outline>
    <contour>
      <point x="598" y="266" type="line"/>
      <point x="598" y="357" type="line" smooth="yes"/>
      <point x="598" y="410"/>
      <point x="576" y="432"/>
      <point x="523" y="432" type="curve" smooth="yes"/>
      <point x="130" y="432" type="line" smooth="yes"/>
      <point x="77" y="432"/>
      <point x="55" y="410"/>
      <point x="55" y="357" type="curve" smooth="yes"/>
      <point x="55" y="263" type="line"/>
      <point x="279" y="263" type="line"/>
      <point x="279" y="342" type="line" smooth="yes"/>
      <point x="279" y="366"/>
      <point x="287" y="375"/>
      <point x="313" y="375" type="curve" smooth="yes"/>
      <point x="340" y="375" type="line" smooth="yes"/>
      <point x="366" y="375"/>
      <point x="374" y="366"/>
      <point x="374" y="342" type="curve" smooth="yes"/>
      <point x="374" y="266" type="line"/>
    </contour>
    <contour>
      <point x="374" y="299" type="line"/>
      <point x="374" y="220" type="line" smooth="yes"/>
      <point x="374" y="196"/>
      <point x="366" y="187"/>
      <point x="340" y="187" type="curve" smooth="yes"/>
      <point x="313" y="187" type="line" smooth="yes"/>
      <point x="287" y="187"/>
      <point x="279" y="196"/>
      <point x="279" y="220" type="curve" smooth="yes"/>
      <point x="279" y="296" type="line"/>
      <point x="55" y="296" type="line"/>
      <point x="55" y="205" type="line" smooth="yes"/>
      <point x="55" y="152"/>
      <point x="77" y="130"/>
      <point x="130" y="130" type="curve" smooth="yes"/>
      <point x="523" y="130" type="line" smooth="yes"/>
      <point x="576" y="130"/>
      <point x="598" y="152"/>
      <point x="598" y="205" type="curve" smooth="yes"/>
      <point x="598" y="299" type="line"/>
    </contour>
  </outline>
</glyph>
<glyph name="quoteleft" format="1">
  <advance width="358"/>
  <unicode hex="2018"/>
  <outline>
    <contour>
      <point x="310" y="332" type="line"/>
      <point x="56" y="332" type="line"/>
      <point x="56" y="409" type="line"/>
      <point x="226" y="622" type="line"/>
      <point x="310" y="622" type="line"/>
    </contour>
  </outline>
</glyph>
<glyph name="quotesinglbase" format="1">
  <advance width="355"/>
  <unicode hex="201A"/>
  <outline>
    <contour>
      <point x="56" y="169" type="line"/>
      <point x="310" y="169" type="line"/>
      <point x="310" y="92" type="line"/>
      <point x="140" y="-121" type="line"/>
      <point x="56" y="-121" type="line"/>
    </contour>
  </outline>
</glyph>
<glyph name="quotedblleft" format="1">
  <advance width="654"/>
  <unicode hex="201C"/>
  <outline>
    <contour>
      <point x="619" y="332" type="line"/>
      <point x="365" y="332" type="line"/>
      <point x="365" y="409" type="line"/>
      <point x="535" y="622" type="line"/>
      <point x="619" y="622" type="line"/>
    </contour>
    <contour>
      <point x="310" y="332" type="line"/>
      <point x="56" y="332" type="line"/>
      <point x="56" y="409" type="line"/>
      <point x="226" y="622" type="line"/>
      <point x="310" y="622" type="line"/>
    </contour>
  </outline>
</glyph>
<glyph name="quotedblright" format="1">
  <advance width="654"/>
  <unicode hex="201D"/>
  <outline>
    <contour>
      <point x="56" y="622" type="line"/>
      <point x="310" y="622" type="line"/>
      <point x="310" y="545" type="line"/>
      <point x="140" y="332" type="line"/>
      <point x="56" y="332" type="line"/>
    </contour>
    <contour>
      <point x="365" y="622" type="line"/>
      <point x="619" y="622" type="line"/>
      <point x="619" y="545" type="line"/>
      <point x="449" y="332" type="line"/>
      <point x="365" y="332" type="line"/>
    </contour>
  </outline>
</glyph>
<glyph name="quotedblbase" format="1">
  <advance width="654"/>
  <unicode hex="201E"/>
  <outline>
    <contour>
      <point x="56" y="169" type="line"/>
      <point x="310" y="169" type="line"/>
      <point x="310" y="92" type="line"/>
      <point x="140" y="-121" type="line"/>
      <point x="56" y="-121" type="line"/>
    </contour>
    <contour>
      <point x="365" y="169" type="line"/>
      <point x="619" y="169" type="line"/>
      <point x="619" y="92" type="line"/>
      <point x="449" y="-121" type="line"/>
      <point x="365" y="-121" type="line"/>
    </contour>
  </outline>
</glyph>
<glyph name="daggerdbl" format="1">
  <advance width="682"/>
  <unicode hex="2021"/>
  <outline>
    <contour>
      <point x="216" y="622" type="line"/>
      <point x="216" y="-141" type="line"/>
      <point x="470" y="-141" type="line"/>
      <point x="470" y="622" type="line"/>
    </contour>
    <contour>
      <point x="646" y="435" type="line"/>
      <point x="34" y="435" type="line"/>
      <point x="34" y="376" type="line"/>
      <point x="646" y="376" type="line"/>
    </contour>
    <contour>
      <point x="646" y="114" type="line"/>
      <point x="34" y="114" type="line"/>
      <point x="34" y="55" type="line"/>
      <point x="646" y="55" type="line"/>
    </contour>
  </outline>
</glyph>
<glyph name="bullet" format="1">
  <advance width="558"/>
  <unicode hex="2022"/>
  <outline>
    <contour>
      <point x="279" y="454" type="curve" smooth="yes"/>
      <point x="165" y="454"/>
      <point x="70" y="390"/>
      <point x="70" y="311" type="curve" smooth="yes"/>
      <point x="70" y="233"/>
      <point x="165" y="168"/>
      <point x="279" y="168" type="curve" smooth="yes"/>
      <point x="393" y="168"/>
      <point x="488" y="233"/>
      <point x="488" y="311" type="curve" smooth="yes"/>
      <point x="488" y="390"/>
      <point x="393" y="454"/>
    </contour>
  </outline>
</glyph>
<glyph name="ellipsis" format="1">
  <advance width="1060"/>
  <unicode hex="2026"/>
  <outline>
    <contour>
      <point x="56" y="0" type="line"/>
      <point x="310" y="0" type="line"/>
      <point x="310" y="149" type="line"/>
      <point x="56" y="149" type="line"/>
    </contour>
    <contour>
      <point x="418" y="0" type="line"/>
      <point x="672" y="0" type="line"/>
      <point x="672" y="149" type="line"/>
      <point x="418" y="149" type="line"/>
    </contour>
    <contour>
      <point x="770" y="0" type="line"/>
      <point x="1024" y="0" type="line"/>
      <point x="1024" y="149" type="line"/>
      <point x="770" y="149" type="line"/>
    </contour>
  </outline>
</glyph>
<glyph name="perthousand" format="1">
  <advance width="1791"/>
  <unicode hex="2030"/>
  <outline>
    <contour>
      <point x="1238" y="325" type="line"/>
      <point x="1238" y="357"/>
      <point x="1222" y="373"/>
      <point x="1190" y="373" type="curve" smooth="yes"/>
      <point x="834" y="373" type="line" smooth="yes"/>
      <point x="802" y="373"/>
      <point x="786" y="357"/>
      <point x="786" y="325" type="curve" smooth="yes"/>
      <point x="786" y="50" type="line" smooth="yes"/>
      <point x="786" y="18"/>
      <point x="802" y="2"/>
      <point x="834" y="2" type="curve" smooth="yes"/>
      <point x="1190" y="2" type="line" smooth="yes"/>
      <point x="1222" y="2"/>
      <point x="1238" y="18"/>
      <point x="1238" y="50" type="curve" smooth="yes"/>
    </contour>
    <contour>
      <point x="1055" y="66" type="line"/>
      <point x="1055" y="51"/>
      <point x="1052" y="48"/>
      <point x="1036" y="48" type="curve" smooth="yes"/>
      <point x="988" y="48" type="line" smooth="yes"/>
      <point x="973" y="48"/>
      <point x="970" y="51"/>
      <point x="970" y="66" type="curve" smooth="yes"/>
      <point x="970" y="309" type="line" smooth="yes"/>
      <point x="970" y="324"/>
      <point x="973" y="327"/>
      <point x="988" y="327" type="curve" smooth="yes"/>
      <point x="1036" y="327" type="line" smooth="yes"/>
      <point x="1052" y="327"/>
      <point x="1055" y="324"/>
      <point x="1055" y="309" type="curve" smooth="yes"/>
    </contour>
    <contour>
      <point x="781" y="622" type="line"/>
      <point x="312" y="0" type="line"/>
      <point x="488" y="0" type="line"/>
      <point x="960" y="622" type="line"/>
    </contour>
    <contour>
      <point x="486" y="574" type="line"/>
      <point x="486" y="606"/>
      <point x="470" y="622"/>
      <point x="438" y="622" type="curve" smooth="yes"/>
      <point x="82" y="622" type="line" smooth="yes"/>
      <point x="50" y="622"/>
      <point x="34" y="606"/>
      <point x="34" y="574" type="curve" smooth="yes"/>
      <point x="34" y="299" type="line" smooth="yes"/>
      <point x="34" y="267"/>
      <point x="50" y="251"/>
      <point x="82" y="251" type="curve" smooth="yes"/>
      <point x="438" y="251" type="line" smooth="yes"/>
      <point x="470" y="251"/>
      <point x="486" y="267"/>
      <point x="486" y="299" type="curve" smooth="yes"/>
    </contour>
    <contour>
      <point x="303" y="315" type="line"/>
      <point x="303" y="300"/>
      <point x="300" y="297"/>
      <point x="284" y="297" type="curve" smooth="yes"/>
      <point x="236" y="297" type="line" smooth="yes"/>
      <point x="221" y="297"/>
      <point x="218" y="300"/>
      <point x="218" y="315" type="curve" smooth="yes"/>
      <point x="218" y="558" type="line" smooth="yes"/>
      <point x="218" y="573"/>
      <point x="221" y="576"/>
      <point x="236" y="576" type="curve" smooth="yes"/>
      <point x="284" y="576" type="line" smooth="yes"/>
      <point x="300" y="576"/>
      <point x="303" y="573"/>
      <point x="303" y="558" type="curve" smooth="yes"/>
    </contour>
    <contour>
      <point x="1750" y="325" type="line"/>
      <point x="1750" y="357"/>
      <point x="1734" y="373"/>
      <point x="1702" y="373" type="curve" smooth="yes"/>
      <point x="1346" y="373" type="line" smooth="yes"/>
      <point x="1314" y="373"/>
      <point x="1298" y="357"/>
      <point x="1298" y="325" type="curve" smooth="yes"/>
      <point x="1298" y="50" type="line" smooth="yes"/>
      <point x="1298" y="18"/>
      <point x="1314" y="2"/>
      <point x="1346" y="2" type="curve" smooth="yes"/>
      <point x="1702" y="2" type="line" smooth="yes"/>
      <point x="1734" y="2"/>
      <point x="1750" y="18"/>
      <point x="1750" y="50" type="curve" smooth="yes"/>
    </contour>
    <contour>
      <point x="1567" y="66" type="line"/>
      <point x="1567" y="51"/>
      <point x="1564" y="48"/>
      <point x="1548" y="48" type="curve" smooth="yes"/>
      <point x="1500" y="48" type="line" smooth="yes"/>
      <point x="1485" y="48"/>
      <point x="1482" y="51"/>
      <point x="1482" y="66" type="curve" smooth="yes"/>
      <point x="1482" y="309" type="line" smooth="yes"/>
      <point x="1482" y="324"/>
      <point x="1485" y="327"/>
      <point x="1500" y="327" type="curve" smooth="yes"/>
      <point x="1548" y="327" type="line" smooth="yes"/>
      <point x="1564" y="327"/>
      <point x="1567" y="324"/>
      <point x="1567" y="309" type="curve" smooth="yes"/>
    </contour>
  </outline>
</glyph>
<glyph name="guilsinglleft" format="1">
  <advance width="422"/>
  <unicode hex="2039"/>
  <outline>
    <contour>
      <point x="167" y="93" type="line"/>
      <point x="415" y="93" type="line"/>
      <point x="274" y="241" type="line"/>
      <point x="415" y="388" type="line"/>
      <point x="167" y="388" type="line"/>
      <point x="21" y="241" type="line"/>
    </contour>
  </outline>
</glyph>
<glyph name="fraction" format="1">
  <advance width="544"/>
  <unicode hex="2044"/>
  <outline>
    <contour>
      <point x="437" y="622" type="line"/>
      <point x="8" y="0" type="line"/>
      <point x="184" y="0" type="line"/>
      <point x="616" y="622" type="line"/>
    </contour>
  </outline>
</glyph>
<glyph name="Euro" format="1">
  <advance width="728"/>
  <unicode hex="20AC"/>
  <outline>
    <contour>
      <point x="409" y="277" type="line"/>
      <point x="16" y="277" type="line"/>
      <point x="16" y="218" type="line"/>
      <point x="409" y="218" type="line"/>
    </contour>
    <contour>
      <point x="409" y="405" type="line"/>
      <point x="16" y="405" type="line"/>
      <point x="16" y="346" type="line"/>
      <point x="409" y="346" type="line"/>
    </contour>
    <contour>
      <point x="78" y="543" type="curve" smooth="yes"/>
      <point x="78" y="79" type="line" smooth="yes"/>
      <point x="78" y="26"/>
      <point x="104" y="0"/>
      <point x="157" y="0" type="curve" smooth="yes"/>
      <point x="397" y="0" type="line"/>
      <point x="397" y="59" type="line"/>
      <point x="363" y="59" type="line" smooth="yes"/>
      <point x="337" y="59"/>
      <point x="332" y="64"/>
      <point x="332" y="90" type="curve"/>
      <point x="332" y="532" type="line"/>
      <point x="332" y="558"/>
      <point x="337" y="563"/>
      <point x="363" y="563" type="curve" smooth="yes"/>
      <point x="397" y="563" type="line"/>
      <point x="397" y="622" type="line"/>
      <point x="157" y="622" type="line" smooth="yes"/>
      <point x="104" y="622"/>
      <point x="78" y="596"/>
    </contour>
    <contour>
      <point x="438" y="390" type="line"/>
      <point x="692" y="390" type="line"/>
      <point x="692" y="543" type="line" smooth="yes"/>
      <point x="692" y="596"/>
      <point x="666" y="622"/>
      <point x="613" y="622" type="curve" smooth="yes"/>
      <point x="373" y="622" type="line"/>
      <point x="373" y="563" type="line"/>
      <point x="407" y="563" type="line" smooth="yes"/>
      <point x="433" y="563"/>
      <point x="438" y="558"/>
      <point x="438" y="532" type="curve" smooth="yes"/>
    </contour>
    <contour>
      <point x="438" y="90" type="line"/>
      <point x="438" y="64"/>
      <point x="433" y="59"/>
      <point x="407" y="59" type="curve" smooth="yes"/>
      <point x="373" y="59" type="line"/>
      <point x="373" y="0" type="line"/>
      <point x="613" y="0" type="line" smooth="yes"/>
      <point x="666" y="0"/>
      <point x="692" y="26"/>
      <point x="692" y="79" type="curve" smooth="yes"/>
      <point x="692" y="229" type="line"/>
      <point x="438" y="229" type="line"/>
    </contour>
  </outline>
</glyph>
<glyph name="trademark" format="1">
  <advance width="981"/>
  <unicode hex="2122"/>
  <outline>
    <contour>
      <point x="115" y="598" type="line"/>
      <point x="115" y="265" type="line"/>
      <point x="283" y="265" type="line"/>
      <point x="283" y="598" type="line"/>
    </contour>
    <contour>
      <point x="371" y="622" type="line"/>
      <point x="28" y="622" type="line"/>
      <point x="28" y="554" type="line"/>
      <point x="371" y="554" type="line"/>
    </contour>
    <contour>
      <point x="415" y="622" type="line"/>
      <point x="415" y="265" type="line"/>
      <point x="571" y="265" type="line"/>
      <point x="571" y="469" type="line"/>
      <point x="626" y="334" type="line"/>
      <point x="728" y="334" type="line"/>
      <point x="784" y="469" type="line"/>
      <point x="784" y="265" type="line"/>
      <point x="940" y="265" type="line"/>
      <point x="940" y="622" type="line"/>
      <point x="770" y="622" type="line"/>
      <point x="677" y="419" type="line"/>
      <point x="585" y="622" type="line"/>
    </contour>
  </outline>
</glyph>
<glyph name="Omega.math" format="1">
  <advance width="750"/>
  <unicode hex="2126"/>
  <outline>
    <contour>
      <point x="318" y="532" type="line"/>
      <point x="318" y="558"/>
      <point x="323" y="563"/>
      <point x="349" y="563" type="curve" smooth="yes"/>
      <point x="402" y="563" type="line" smooth="yes"/>
      <point x="428" y="563"/>
      <point x="433" y="558"/>
      <point x="433" y="532" type="curve" smooth="yes"/>
      <point x="433" y="90" type="line" smooth="yes"/>
      <point x="433" y="64"/>
      <point x="428" y="59"/>
      <point x="402" y="59" type="curve" smooth="yes"/>
      <point x="395" y="59" type="line"/>
      <point x="395" y="50" type="line"/>
      <point x="608" y="50" type="line" smooth="yes"/>
      <point x="661" y="50"/>
      <point x="687" y="76"/>
      <point x="687" y="129" type="curve" smooth="yes"/>
      <point x="687" y="543" type="line" smooth="yes"/>
      <point x="687" y="596"/>
      <point x="661" y="622"/>
      <point x="608" y="622" type="curve" smooth="yes"/>
      <point x="142" y="622" type="line" smooth="yes"/>
      <point x="89" y="622"/>
      <point x="63" y="596"/>
      <point x="63" y="543" type="curve" smooth="yes"/>
      <point x="63" y="129" type="line" smooth="yes"/>
      <point x="63" y="76"/>
      <point x="89" y="50"/>
      <point x="142" y="50" type="curve" smooth="yes"/>
      <point x="355" y="50" type="line"/>
      <point x="355" y="59" type="line"/>
      <point x="349" y="59" type="line" smooth="yes"/>
      <point x="323" y="59"/>
      <point x="318" y="64"/>
      <point x="318" y="90" type="curve" smooth="yes"/>
    </contour>
    <contour>
      <point x="735" y="59" type="line"/>
      <point x="395" y="59" type="line"/>
      <point x="395" y="0" type="line"/>
      <point x="735" y="0" type="line"/>
    </contour>
    <contour>
      <point x="355" y="59" type="line"/>
      <point x="12" y="59" type="line"/>
      <point x="12" y="0" type="line"/>
      <point x="355" y="0" type="line"/>
    </contour>
  </outline>
</glyph>
<glyph name="estimated" format="1">
  <advance width="781"/>
  <unicode hex="212E"/>
  <outline>
    <contour>
      <point x="461" y="334" type="line"/>
      <point x="126" y="334" type="line"/>
      <point x="126" y="275" type="line"/>
      <point x="705" y="275" type="line"/>
      <point x="706" y="282"/>
      <point x="707" y="293"/>
      <point x="707" y="306" type="curve" smooth="yes"/>
      <point x="707" y="481"/>
      <point x="565" y="623"/>
      <point x="390" y="623" type="curve" smooth="yes"/>
      <point x="215" y="623"/>
      <point x="74" y="481"/>
      <point x="74" y="306" type="curve" smooth="yes"/>
      <point x="74" y="131"/>
      <point x="215" y="-10"/>
      <point x="390" y="-10" type="curve" smooth="yes"/>
      <point x="495" y="-10"/>
      <point x="590" y="33"/>
      <point x="655" y="103" type="curve"/>
      <point x="613" y="145" type="line"/>
      <point x="559" y="87"/>
      <point x="479" y="49"/>
      <point x="390" y="49" type="curve" smooth="yes"/>
      <point x="368" y="49"/>
      <point x="347" y="51"/>
      <point x="327" y="56" type="curve"/>
      <point x="327" y="558" type="line"/>
      <point x="347" y="563"/>
      <point x="368" y="564"/>
      <point x="390" y="564" type="curve" smooth="yes"/>
      <point x="414" y="564"/>
      <point x="438" y="562"/>
      <point x="461" y="556" type="curve"/>
    </contour>
  </outline>
</glyph>
<glyph name="partialdiff" format="1">
  <advance width="707"/>
  <unicode hex="2202"/>
  <outline>
    <contour>
      <point x="130" y="607" type="line"/>
      <point x="377" y="607"/>
      <point x="466" y="543"/>
      <point x="339" y="90" type="curve" smooth="yes"/>
      <point x="331" y="64"/>
      <point x="325" y="59"/>
      <point x="299" y="59" type="curve" smooth="yes"/>
      <point x="268" y="59" type="line" smooth="yes"/>
      <point x="242" y="59"/>
      <point x="239" y="64"/>
      <point x="246" y="90" type="curve" smooth="yes"/>
      <point x="283" y="222" type="line"/>
      <point x="29" y="222" type="line"/>
      <point x="-10" y="79" type="line" smooth="yes"/>
      <point x="-25" y="26"/>
      <point x="-6" y="0"/>
      <point x="46" y="0" type="curve" smooth="yes"/>
      <point x="490" y="0" type="line" smooth="yes"/>
      <point x="543" y="0"/>
      <point x="576" y="26"/>
      <point x="591" y="79" type="curve" smooth="yes"/>
      <point x="703" y="521"/>
      <point x="619" y="666"/>
      <point x="152" y="666" type="curve"/>
    </contour>
    <contour>
      <point x="272" y="183" type="line"/>
      <point x="298" y="273" type="line" smooth="yes"/>
      <point x="305" y="299"/>
      <point x="312" y="304"/>
      <point x="338" y="304" type="curve" smooth="yes"/>
      <point x="417" y="304" type="line"/>
      <point x="433" y="363" type="line"/>
      <point x="148" y="363" type="line" smooth="yes"/>
      <point x="95" y="363"/>
      <point x="62" y="337"/>
      <point x="47" y="284" type="curve" smooth="yes"/>
      <point x="18" y="183" type="line"/>
    </contour>
  </outline>
</glyph>
<glyph name="product" format="1">
  <advance width="760"/>
  <unicode hex="220F"/>
  <outline>
    <contour>
      <point x="86" y="90" type="line"/>
      <point x="86" y="64"/>
      <point x="81" y="59"/>
      <point x="55" y="59" type="curve" smooth="yes"/>
      <point x="4" y="59" type="line"/>
      <point x="4" y="0" type="line"/>
      <point x="247" y="0" type="line" smooth="yes"/>
      <point x="300" y="0"/>
      <point x="326" y="26"/>
      <point x="326" y="79" type="curve" smooth="yes"/>
      <point x="326" y="582" type="line"/>
      <point x="86" y="582" type="line"/>
    </contour>
    <contour>
      <point x="459" y="582" type="line"/>
      <point x="459" y="0" type="line"/>
      <point x="699" y="0" type="line"/>
      <point x="699" y="582" type="line"/>
    </contour>
    <contour>
      <point x="700" y="622" type="line"/>
      <point x="86" y="622" type="line"/>
      <point x="86" y="563" type="line"/>
      <point x="700" y="563" type="line"/>
    </contour>
  </outline>
</glyph>
<glyph name="summation" format="1">
  <advance width="657"/>
  <unicode hex="2211"/>
  <outline>
    <contour>
      <point x="575" y="622" type="line"/>
      <point x="82" y="622" type="line"/>
      <point x="82" y="563" type="line"/>
      <point x="575" y="563" type="line"/>
    </contour>
    <contour>
      <point x="575" y="-64" type="line"/>
      <point x="82" y="-64" type="line"/>
      <point x="82" y="-123" type="line"/>
      <point x="575" y="-123" type="line"/>
    </contour>
    <contour>
      <point x="321" y="346" type="line"/>
      <point x="82" y="-64" type="line"/>
      <point x="283" y="-102" type="line"/>
      <point x="497" y="250" type="line"/>
      <point x="283" y="601" type="line"/>
      <point x="82" y="563" type="line"/>
      <point x="320" y="155" type="line"/>
    </contour>
  </outline>
</glyph>
<glyph name="bulletoperator" format="1">
  <advance width="355"/>
  <unicode hex="2219"/>
  <outline>
    <contour>
      <point x="56" y="381" type="line"/>
      <point x="56" y="232" type="line"/>
      <point x="310" y="232" type="line"/>
      <point x="310" y="381" type="line"/>
    </contour>
  </outline>
</glyph>
<glyph name="approxequal" format="1">
  <advance width="828"/>
  <unicode hex="2248"/>
  <outline>
    <contour>
      <point x="316" y="412" type="curve" smooth="yes"/>
      <point x="393" y="412"/>
      <point x="440" y="318"/>
      <point x="532" y="318" type="curve"/>
      <point x="704" y="318" type="line" smooth="yes"/>
      <point x="757" y="318"/>
      <point x="783" y="344"/>
      <point x="783" y="397" type="curve" smooth="yes"/>
      <point x="783" y="497" type="line"/>
      <point x="543" y="497" type="line"/>
      <point x="543" y="433" type="line" smooth="yes"/>
      <point x="543" y="407"/>
      <point x="538" y="402"/>
      <point x="512" y="402" type="curve"/>
      <point x="453" y="402"/>
      <point x="410" y="497"/>
      <point x="296" y="497" type="curve" smooth="yes"/>
      <point x="124" y="497" type="line" smooth="yes"/>
      <point x="71" y="497"/>
      <point x="45" y="471"/>
      <point x="45" y="418" type="curve" smooth="yes"/>
      <point x="45" y="318" type="line"/>
      <point x="285" y="318" type="line"/>
      <point x="285" y="381" type="line" smooth="yes"/>
      <point x="285" y="407"/>
      <point x="290" y="412"/>
    </contour>
    <contour>
      <point x="316" y="192" type="curve" smooth="yes"/>
      <point x="393" y="192"/>
      <point x="440" y="98"/>
      <point x="532" y="98" type="curve"/>
      <point x="704" y="98" type="line" smooth="yes"/>
      <point x="757" y="98"/>
      <point x="783" y="124"/>
      <point x="783" y="177" type="curve" smooth="yes"/>
      <point x="783" y="277" type="line"/>
      <point x="543" y="277" type="line"/>
      <point x="543" y="213" type="line" smooth="yes"/>
      <point x="543" y="187"/>
      <point x="538" y="182"/>
      <point x="512" y="182" type="curve" smooth="yes"/>
      <point x="453" y="182"/>
      <point x="410" y="277"/>
      <point x="296" y="277" type="curve" smooth="yes"/>
      <point x="124" y="277" type="line" smooth="yes"/>
      <point x="71" y="277"/>
      <point x="45" y="251"/>
      <point x="45" y="198" type="curve" smooth="yes"/>
      <point x="45" y="98" type="line"/>
      <point x="285" y="98" type="line"/>
      <point x="285" y="161" type="line" smooth="yes"/>
      <point x="285" y="187"/>
      <point x="290" y="192"/>
    </contour>
  </outline>
</glyph>
<glyph name="lessequal" format="1">
  <advance width="741"/>
  <unicode hex="2264"/>
  <outline>
    <contour>
      <point x="696" y="213" type="line"/>
      <point x="35" y="213" type="line"/>
      <point x="35" y="99" type="line"/>
      <point x="696" y="99" type="line"/>
    </contour>
    <contour>
      <point x="696" y="408" type="line"/>
      <point x="696" y="530" type="line"/>
      <point x="35" y="454" type="line"/>
      <point x="35" y="309" type="line"/>
      <point x="696" y="226" type="line"/>
      <point x="696" y="350" type="line"/>
      <point x="202" y="380" type="line"/>
    </contour>
  </outline>
</glyph>
<glyph name="lozenge" format="1">
  <advance width="826"/>
  <unicode hex="25CA"/>
  <outline>
    <contour>
      <point x="786" y="313" type="line"/>
      <point x="531" y="622" type="line"/>
      <point x="287" y="622" type="line"/>
      <point x="40" y="313" type="line"/>
      <point x="287" y="0" type="line"/>
      <point x="531" y="0" type="line"/>
    </contour>
    <contour>
      <point x="541" y="313" type="line"/>
      <point x="408" y="131" type="line"/>
      <point x="286" y="313" type="line"/>
      <point x="408" y="491" type="line"/>
    </contour>
  </outline>
</glyph>
<glyph name="commaaccent" format="1">
  <advance width="705"/>
  <unicode hex="F6C3"/>
  <outline>
    <contour>
      <point x="234" y="-45" type="line"/>
      <point x="470" y="-45" type="line"/>
      <point x="470" y="-129" type="line"/>
      <point x="307" y="-290" type="line"/>
      <point x="234" y="-290" type="line"/>
    </contour>
  </outline>
</glyph>
<glyph name="Delta.math" format="1">
  <advance width="810"/>
  <outline>
    <contour>
      <point x="316" y="702" type="line"/>
      <point x="10" y="3" type="line"/>
      <point x="271" y="3" type="line"/>
      <point x="505" y="596" type="line"/>
      <point x="494" y="702" type="line"/>
    </contour>
    <contour>
      <point x="657" y="62" type="line"/>
      <point x="93" y="62" type="line"/>
      <point x="93" y="3" type="line"/>
      <point x="657" y="3" type="line"/>
    </contour>
    <contour>
      <point x="316" y="702" type="line"/>
      <point x="305" y="597" type="line"/>
      <point x="539" y="3" type="line"/>
      <point x="800" y="3" type="line"/>
      <point x="494" y="702" type="line"/>
    </contour>
  </outline>
</glyph>
<glyph name="dvAnusvara.amI" format="1">
  <advance width="0"/>
  <outline>
    <contour>
      <point x="0" y="671" type="move" name="_abvm.i"/>
    </contour>
    <contour>
      <point x="55" y="671" type="line"/>
      <point x="310" y="671" type="line"/>
      <point x="310" y="821" type="line"/>
      <point x="55" y="821" type="line"/>
    </contour>
  </outline>
</glyph>
<glyph name="dvBH" format="1">
  <advance width="739"/>
  <outline>
    <contour>
      <point x="831" y="373" type="line"/>
      <point x="120" y="373" type="line" smooth="yes"/>
      <point x="67" y="373"/>
      <point x="45" y="351"/>
      <point x="45" y="298" type="curve" smooth="yes"/>
      <point x="45" y="153" type="line" smooth="yes"/>
      <point x="45" y="100"/>
      <point x="67" y="78"/>
      <point x="120" y="78" type="curve" smooth="yes"/>
      <point x="362" y="78" type="line"/>
      <point x="362" y="137" type="line"/>
      <point x="323" y="137" type="line" smooth="yes"/>
      <point x="297" y="137"/>
      <point x="289" y="146"/>
      <point x="289" y="170" type="curve" smooth="yes"/>
      <point x="289" y="281" type="line" smooth="yes"/>
      <point x="289" y="305"/>
      <point x="297" y="314"/>
      <point x="323" y="314" type="curve" smooth="yes"/>
      <point x="831" y="314" type="line"/>
    </contour>
    <contour>
      <point x="359" y="563" type="line"/>
      <point x="371" y="563" type="line" smooth="yes"/>
      <point x="397" y="563"/>
      <point x="405" y="554"/>
      <point x="405" y="530" type="curve" smooth="yes"/>
      <point x="405" y="170" type="line" smooth="yes"/>
      <point x="405" y="146"/>
      <point x="397" y="137"/>
      <point x="371" y="137" type="curve" smooth="yes"/>
      <point x="352" y="137" type="line"/>
      <point x="352" y="78" type="line"/>
      <point x="594" y="78" type="line" smooth="yes"/>
      <point x="647" y="78"/>
      <point x="669" y="100"/>
      <point x="669" y="153" type="curve" smooth="yes"/>
      <point x="669" y="547" type="line" smooth="yes"/>
      <point x="669" y="600"/>
      <point x="647" y="622"/>
      <point x="594" y="622" type="curve" smooth="yes"/>
      <point x="359" y="622" type="line"/>
    </contour>
    <contour>
      <point x="319" y="441" type="line"/>
      <point x="319" y="530" type="line" smooth="yes"/>
      <point x="319" y="554"/>
      <point x="327" y="563"/>
      <point x="353" y="563" type="curve" smooth="yes"/>
      <point x="365" y="563" type="line"/>
      <point x="365" y="622" type="line"/>
      <point x="130" y="622" type="line" smooth="yes"/>
      <point x="77" y="622"/>
      <point x="55" y="600"/>
      <point x="55" y="547" type="curve" smooth="yes"/>
      <point x="55" y="441" type="line"/>
    </contour>
  </outline>
</glyph>
<glyph name="dvBH_LA" format="1">
  <advance width="1817"/>
  <outline>
    <contour>
      <point x="1393" y="177" type="line"/>
      <point x="1393" y="393" type="line" smooth="yes"/>
      <point x="1393" y="417"/>
      <point x="1401" y="426"/>
      <point x="1427" y="426" type="curve" smooth="yes"/>
      <point x="1521" y="426" type="line"/>
      <point x="1521" y="485" type="line"/>
      <point x="1337" y="485" type="line" smooth="yes"/>
      <point x="1284" y="485"/>
      <point x="1263" y="463"/>
      <point x="1263" y="410" type="curve"/>
      <point x="1258" y="410" type="line"/>
      <point x="1258" y="463"/>
      <point x="1237" y="485"/>
      <point x="1184" y="485" type="curve" smooth="yes"/>
      <point x="1073" y="485" type="line"/>
      <point x="1073" y="426" type="line"/>
      <point x="1095" y="426" type="line" smooth="yes"/>
      <point x="1121" y="426"/>
      <point x="1129" y="417"/>
      <point x="1129" y="393" type="curve" smooth="yes"/>
      <point x="1129" y="177" type="line"/>
    </contour>
    <contour>
      <point x="1077" y="485" type="line"/>
      <point x="835" y="485" type="line" smooth="yes"/>
      <point x="782" y="485"/>
      <point x="760" y="463"/>
      <point x="760" y="410" type="curve" smooth="yes"/>
      <point x="760" y="75" type="line" smooth="yes"/>
      <point x="760" y="22"/>
      <point x="782" y="0"/>
      <point x="835" y="0" type="curve" smooth="yes"/>
      <point x="1176" y="0" type="line"/>
      <point x="1176" y="59" type="line"/>
      <point x="1058" y="59" type="line" smooth="yes"/>
      <point x="1032" y="59"/>
      <point x="1024" y="68"/>
      <point x="1024" y="92" type="curve" smooth="yes"/>
      <point x="1024" y="393" type="line" smooth="yes"/>
      <point x="1024" y="417"/>
      <point x="1032" y="426"/>
      <point x="1058" y="426" type="curve" smooth="yes"/>
      <point x="1077" y="426" type="line"/>
    </contour>
    <contour>
      <point x="1498" y="0" type="line"/>
      <point x="1762" y="0" type="line"/>
      <point x="1762" y="622" type="line"/>
      <point x="1498" y="622" type="line"/>
    </contour>
    <contour>
      <point x="760" y="563" type="line"/>
      <point x="1837" y="563" type="line"/>
      <point x="1837" y="622" type="line"/>
      <point x="760" y="622" type="line"/>
    </contour>
    <component base="dvBH"/>
  </outline>
</glyph>
